<mxfile host="65bd71144e">
    <diagram id="OY1TzOKUo4BkqvnFaGek" name="Page-1">
        <mxGraphModel dx="1824" dy="1072" grid="1" gridSize="10" guides="1" tooltips="1" connect="1" arrows="1" fold="1" page="1" pageScale="1" pageWidth="850" pageHeight="1100" math="0" shadow="0">
            <root>
                <mxCell id="0"/>
                <mxCell id="1" parent="0"/>
                <mxCell id="5" style="edgeStyle=none;html=1;entryX=0;entryY=0.5;entryDx=0;entryDy=0;" parent="1" source="2" target="6" edge="1">
                    <mxGeometry relative="1" as="geometry">
                        <mxPoint x="520" y="210" as="targetPoint"/>
                    </mxGeometry>
                </mxCell>
                <mxCell id="2" value="Kaggle" style="rounded=1;whiteSpace=wrap;html=1;" parent="1" vertex="1">
                    <mxGeometry x="340" y="180" width="120" height="60" as="geometry"/>
                </mxCell>
                <mxCell id="4" style="edgeStyle=none;html=1;entryX=0.5;entryY=0;entryDx=0;entryDy=0;" parent="1" source="3" target="2" edge="1">
                    <mxGeometry relative="1" as="geometry"/>
                </mxCell>
                <mxCell id="13" style="edgeStyle=none;html=1;entryX=0.5;entryY=0;entryDx=0;entryDy=0;" parent="1" source="3" target="14" edge="1">
                    <mxGeometry relative="1" as="geometry">
                        <mxPoint x="160" y="180" as="targetPoint"/>
                    </mxGeometry>
                </mxCell>
                <mxCell id="40" style="edgeStyle=none;html=1;entryX=0.5;entryY=0;entryDx=0;entryDy=0;" parent="1" source="3" target="39" edge="1">
                    <mxGeometry relative="1" as="geometry"/>
                </mxCell>
                <mxCell id="3" value="Begin at 2025.2.11" style="ellipse;whiteSpace=wrap;html=1;" parent="1" vertex="1">
                    <mxGeometry x="170" y="20" width="120" height="80" as="geometry"/>
                </mxCell>
                <mxCell id="7" style="edgeStyle=none;html=1;" parent="1" source="6" target="8" edge="1">
                    <mxGeometry relative="1" as="geometry">
                        <mxPoint x="750" y="210" as="targetPoint"/>
                    </mxGeometry>
                </mxCell>
                <mxCell id="15" style="edgeStyle=none;html=1;entryX=0.5;entryY=0;entryDx=0;entryDy=0;" parent="1" source="6" target="16" edge="1">
                    <mxGeometry relative="1" as="geometry">
                        <mxPoint x="625" y="290" as="targetPoint"/>
                    </mxGeometry>
                </mxCell>
                <mxCell id="6" value="Introduce to programming" style="rounded=1;whiteSpace=wrap;html=1;fillColor=#FFCCE6;" parent="1" vertex="1">
                    <mxGeometry x="540" y="180" width="170" height="60" as="geometry"/>
                </mxCell>
                <mxCell id="8" value="Lesson 1 ~ 5, python basic" style="rounded=1;whiteSpace=wrap;html=1;fillColor=#FFCCE6;" parent="1" vertex="1">
                    <mxGeometry x="770" y="180" width="120" height="60" as="geometry"/>
                </mxCell>
                <mxCell id="25" value="" style="edgeStyle=none;html=1;" parent="1" source="14" target="24" edge="1">
                    <mxGeometry relative="1" as="geometry"/>
                </mxCell>
                <mxCell id="14" value="Math" style="rounded=1;whiteSpace=wrap;html=1;" parent="1" vertex="1">
                    <mxGeometry x="170" y="180" width="120" height="60" as="geometry"/>
                </mxCell>
                <mxCell id="17" style="edgeStyle=none;html=1;entryX=0;entryY=0.5;entryDx=0;entryDy=0;" parent="1" source="16" target="18" edge="1">
                    <mxGeometry relative="1" as="geometry">
                        <mxPoint x="770" y="320" as="targetPoint"/>
                    </mxGeometry>
                </mxCell>
                <mxCell id="21" value="" style="edgeStyle=none;html=1;" parent="1" source="16" target="20" edge="1">
                    <mxGeometry relative="1" as="geometry"/>
                </mxCell>
                <mxCell id="16" value="1. Pandas" style="rounded=1;whiteSpace=wrap;html=1;" parent="1" vertex="1">
                    <mxGeometry x="565" y="290" width="120" height="60" as="geometry"/>
                </mxCell>
                <mxCell id="27" value="" style="edgeStyle=none;html=1;entryX=0;entryY=0.5;entryDx=0;entryDy=0;" parent="1" source="18" target="26" edge="1">
                    <mxGeometry relative="1" as="geometry"/>
                </mxCell>
                <mxCell id="18" value="1. DataFrame and Series" style="rounded=1;whiteSpace=wrap;html=1;" parent="1" vertex="1">
                    <mxGeometry x="770" y="285" width="250" height="70" as="geometry"/>
                </mxCell>
                <mxCell id="23" value="" style="edgeStyle=none;html=1;" parent="1" source="20" target="22" edge="1">
                    <mxGeometry relative="1" as="geometry"/>
                </mxCell>
                <mxCell id="20" value="2. Numpy" style="rounded=1;whiteSpace=wrap;html=1;" parent="1" vertex="1">
                    <mxGeometry x="565" y="400" width="120" height="60" as="geometry"/>
                </mxCell>
                <mxCell id="22" value="3. MatPlotlib" style="rounded=1;whiteSpace=wrap;html=1;" parent="1" vertex="1">
                    <mxGeometry x="565" y="500" width="120" height="60" as="geometry"/>
                </mxCell>
                <mxCell id="36" value="" style="edgeStyle=none;html=1;" parent="1" source="24" target="35" edge="1">
                    <mxGeometry relative="1" as="geometry"/>
                </mxCell>
                <mxCell id="24" value="Statistics Concept" style="whiteSpace=wrap;html=1;rounded=1;" parent="1" vertex="1">
                    <mxGeometry x="170" y="285" width="120" height="60" as="geometry"/>
                </mxCell>
                <mxCell id="29" value="" style="edgeStyle=none;html=1;" parent="1" source="26" target="28" edge="1">
                    <mxGeometry relative="1" as="geometry"/>
                </mxCell>
                <mxCell id="26" value=".query()" style="rounded=1;whiteSpace=wrap;html=1;fillColor=#FFCCE6;" parent="1" vertex="1">
                    <mxGeometry x="1100" y="310" width="90" height="20" as="geometry"/>
                </mxCell>
                <mxCell id="47" value="" style="edgeStyle=none;html=1;" parent="1" source="28" target="46" edge="1">
                    <mxGeometry relative="1" as="geometry"/>
                </mxCell>
                <mxCell id="28" value=".groupby" style="rounded=1;whiteSpace=wrap;html=1;fillColor=#FFCCE6;" parent="1" vertex="1">
                    <mxGeometry x="1100" y="365" width="90" height="15" as="geometry"/>
                </mxCell>
                <mxCell id="51" value="" style="edgeStyle=none;html=1;" edge="1" parent="1" source="35" target="50">
                    <mxGeometry relative="1" as="geometry"/>
                </mxCell>
                <mxCell id="35" value="Profit margin(利润率" style="whiteSpace=wrap;html=1;rounded=1;fillColor=#FFCCE6;" parent="1" vertex="1">
                    <mxGeometry x="260" y="370" width="130" height="30" as="geometry"/>
                </mxCell>
                <mxCell id="43" value="" style="edgeStyle=none;html=1;" parent="1" source="39" target="42" edge="1">
                    <mxGeometry relative="1" as="geometry"/>
                </mxCell>
                <mxCell id="39" value="huggingFace" style="rounded=1;whiteSpace=wrap;html=1;fillColor=light-dark(#FFFFFF,#050505);" parent="1" vertex="1">
                    <mxGeometry x="30" y="180" width="120" height="60" as="geometry"/>
                </mxCell>
                <mxCell id="45" value="" style="edgeStyle=none;html=1;" parent="1" source="42" target="44" edge="1">
                    <mxGeometry relative="1" as="geometry"/>
                </mxCell>
                <mxCell id="42" value="pipeline" style="rounded=1;whiteSpace=wrap;html=1;fillColor=light-dark(#FFFFFF,#54283F);" parent="1" vertex="1">
                    <mxGeometry x="-170" y="195" width="120" height="30" as="geometry"/>
                </mxCell>
                <mxCell id="44" value="transaformers" style="rounded=1;whiteSpace=wrap;html=1;" parent="1" vertex="1">
                    <mxGeometry x="-175" y="250" width="130" height="20" as="geometry"/>
                </mxCell>
                <mxCell id="49" value="" style="edgeStyle=none;html=1;" parent="1" source="46" target="48" edge="1">
                    <mxGeometry relative="1" as="geometry"/>
                </mxCell>
                <mxCell id="46" value=".loc" style="rounded=1;whiteSpace=wrap;html=1;fillColor=#FFCCE6;" parent="1" vertex="1">
                    <mxGeometry x="1095" y="410" width="100" height="20" as="geometry"/>
                </mxCell>
                <mxCell id="48" value="" style="rounded=1;whiteSpace=wrap;html=1;fillColor=light-dark(#FFFFFF,#54283F);" parent="1" vertex="1">
                    <mxGeometry x="1097.5" y="460" width="95" height="20" as="geometry"/>
                </mxCell>
                <mxCell id="53" value="" style="edgeStyle=none;html=1;" edge="1" parent="1" source="50" target="52">
                    <mxGeometry relative="1" as="geometry"/>
                </mxCell>
                <mxCell id="50" value="covariance协方差，相关性" style="whiteSpace=wrap;html=1;rounded=1;" vertex="1" parent="1">
                    <mxGeometry x="260" y="430" width="130" height="30" as="geometry"/>
                </mxCell>
                <mxCell id="60" value="" style="edgeStyle=none;html=1;" edge="1" parent="1" source="52" target="59">
                    <mxGeometry relative="1" as="geometry"/>
                </mxCell>
                <mxCell id="52" value="correlation coefficient相关系数&amp;nbsp;&lt;div&gt;the measure of covariance&lt;/div&gt;" style="whiteSpace=wrap;html=1;rounded=1;" vertex="1" parent="1">
                    <mxGeometry x="235" y="480" width="180" height="30" as="geometry"/>
                </mxCell>
                <mxCell id="57" value="" style="group" vertex="1" connectable="0" parent="1">
                    <mxGeometry x="-340" y="550" width="480" height="610" as="geometry"/>
                </mxCell>
                <mxCell id="54" value="协方差，两个变量的相关性，可分为正相关，负相关，covariance, the correlation of two variables x, y, could be positively or negatively correlated, if x goes up, y goes up, it&#39;s positively correlated, vice versa.&amp;nbsp; or the gradient(斜率) the bigger, the correlation is more strong.&lt;div&gt;well, here&#39;s how to do this: calculate it&#39;s mean point and compare the new point with the mean point.&lt;/div&gt;&lt;div&gt;&lt;br&gt;&lt;/div&gt;&lt;div&gt;there is a magic, if we move the mean point to the coordinate origin,&amp;nbsp; like the snapshot&amp;nbsp;&lt;span style=&quot;background-color: transparent;&quot;&gt;the area of red minus green is the result of covariance.&lt;/span&gt;&lt;/div&gt;&lt;div&gt;we can easily findout the in the first and third quadrant, it&#39;s positively correlated and vice versa&lt;/div&gt;&lt;div&gt;&lt;br&gt;&lt;/div&gt;&lt;div&gt;有个别点，数量少，但是面积很大，会严重影响到结果，所以要加上加上权重，即概率。&lt;/div&gt;" style="rounded=1;whiteSpace=wrap;html=1;align=left;shadow=0;" vertex="1" parent="57">
                    <mxGeometry width="480" height="260" as="geometry"/>
                </mxCell>
                <mxCell id="56" value="" style="shape=image;verticalLabelPosition=bottom;labelBackgroundColor=default;verticalAlign=top;aspect=fixed;imageAspect=0;image=data:image/png,iVBORw0KGgoAAAANSUhEUgAABR4AAAOUCAYAAADEpC/DAAAACXBIWXMAABYlAAAWJQFJUiTwAAAgAElEQVR4nOy9V5McOZOu+QChUmdWsShazM6ZWTuzf3N+4dzs2rE5x76x+UR3k0WyKnXoAPYCoTOyFItsCrxmWSIyBAJwOBwv3B1Ca62xsLCwsLCwsLCwsLCwsLCwsLCwsHhGyD+7ABYWFhYWFhYWFhYWFhYWFhYWFhbfHyzxaGFhYWFhYWFhYWFhYWFhYWFhYfHssMSjhYWFhYWFhYWFhYWFhYWFhYWFxbPDEo8WFhYWFhYWFhYWFhYWFhYWFhYWzw5LPFpYWFhYWFhYWFhYWFhYWFhYWFg8OyzxaGFhYWFhYWFhYWFhYWFhYWFhYfHssMSjhYWFhYWFhYWFhYWFhYWFhYWFxbPDEo8WFhYWFhYWFhYWFhYWFhYWFhYWzw5LPFpYWFhYWFhYWFhYWFhYWFhYWFg8OyzxaGFhYWFhYWFhYWFhYWFhYWFhYfHssMSjhYWFhYWFhYWFhYWFhYWFhYWFxbPDEo8WFhYWFhYWFhYWFhYWFhYWFhYWzw5LPFpYWFhYWFhYWFhYWFhYWFhYWFg8OyzxaGFhYWFhYWFhYWFhYWFhYWFhYfHssMSjhYWFhYWFhYWFhYWFhYWFhYWFxbPDEo8WFhYWFhYWFhYWFhYWFhYWFhYWzw5LPFpYWFhYWFhYWFhYWFhYWFhYWFg8OyzxaGFhYWFhYWFhYWFhYWFhYWFhYfHssMSjhYWFhYWFhYWFhYWFhYWFhYWFxbPDEo8WFhYWFhYWFhYWFhYWFhYWFhYWzw73zy7AtwDd+1/8KaWw+FbRl58KVo4szuGhOkff8Z2FxbeAStb/DDl+bP85p8vbsP3xe4aVAAuL7wFam74sxHB/ve97i+8fbW1vpcDC4nkgdKVdLTrQvd/QVTyi+tJqo68Tj2T7TprykSPOOVF4kBw94n4W3zN0R076hExfHp53QeQbl7ZPrIw/k/z6UfEYw+NztMtjReaxhpKVpa8Vz2HyPmU5sfnOLmY/EdYw+mbxlF530tRDA/VnZIe01pZ4/MbxOQgOKxEWFk+H9XgcQJssUq0jslQ3oj6iERqoBiY7e/06cNdIM2C4npzeP/BAY7d/2qkcmdwG94lJ+7oTssmu0n6nGCYdFUZmBBqtK1Uj7pSRHw5D/f0Rurhf7z98fX5hPKSpntIud00a+wtCD733QycxlY3woImzxTeEcxJQHu+v498xDmvdiMGD5ep7G9cf1aHKMfLMNd9d3XxHeCr509GhuvX/ORvdDuAWLXwq6fgoTtu6R1pYPAiWeDyDrsIyWkSVo5osj4hKuzyRqLL4k9BqnwcPTHe06V1eahXpWF3eJiA/8bGDsMb3tw8jM/pENkXbAqeRtU9TN21J/Q5l5zt9rW8dQ57gD1mQeQ5dOPTszwUNCG2F8OvBkMR9yj0GDp+ETvTpRbtw9GjDqzy/WfS3+FGgNfWi69m+0l/xf4ZOZYMBv208pPWGnEXO6Zg7xcpyABYWD4YlHs+gUj59gkjwAH1iFc7XDdH98znIx+55Xa9DSUM49m/XK84J+t+JwaMW3xMElcwYgTunc/ok9g9r69zXie/paN859fpV4ks7pwxNItvE5EPKcS667+x5WpdeOtocs4tC3zfE2X+60LpZtP4R8Rg+xzD3pu9oSzp+q3gqYSwApRtH4nZw2YNIyCfAEo7fB+73Ju9FLLb+b8trFXVU3WvQdukL+A+s3i0s7oPN8TiAc6F3JwvZfVhl83XgxFXsYZf0HMqGcY/Xo6hjgUS9UP+Q252EVPePDblS9i+0zMmfjoco03N+WLr1u00wi9Y5FRRdT9rGC/uxEGf+/kYx1AeG+s538KrfC+5rjk8daodFomExnuol3tftJz1JtwTvLr1t8QXRarEh01cMnjl4j/NNODSq96TwHhLtXJ/4LiIadP+fgf7RP14dvWO68l3UjcWjUKcrKImfut9YUbC4D2XqhiG9UY3tbYeRthPSWVvbju8WFvfCejw+EGdJKTuJ/brxwLZ50Gn3nVSF1IluaBDcT0j1x6vhobD1TelNg+xNbvRd8SgWnwt3hW+e48G65wgE2pCJWiOEpLvuenpVZRhVHrXOUwr+veE+BsuSj18d7muGIR36kOa7U+dqGs+zh8pBj2Vs986TiYjundj617ptfQU4aYOuRD1kwfBxDi6nsQuC03Qa7aJ9lyrqMfbzd/fyPzgeq/cG2r/Jc33+lvcuZNk86BYlHqN62p6PcEbOrEhZWNwLSzwO4OzcQINWCqEUCNmQPi3/a/3I8C2Lz4OOB+JzNER/5R1QqjCEkRDUAbFt5rC1aH+OQnpw8YQwVldelISjZHhTI0s+fmm027VvnLS/h/PNUk1BBZTyZI5mWUqe5fieh+O6rZuIzpU/enMPLjSXMVrNd6Kpux+9wr4F3OM98BS510CSJGilGPkBOA+8w1PJQq3QqhK7tmeXlcE/BwPW3YCctcPsqv+rr4fyM+vWX1orCqVQRYHjOLiOxwk1Xeqhesiu/d1P7/tdiknLPjph7IU5qApFlqUIKRFSIIVEyodmx7b4ptHuiwqKQps+pQo8z8d1u4sDAqNS0ff3l0EPt4GNyIqiQCmF4zhW7r5H9No7T1PyPMctbW1918ZgfKd62cLiC8ASj2dQ80caKh9+rTUiy9F5jnBd8Lzm5JLvsQrpK4Aw7fZkx5KHNGBRoNIMKQVSOi0i+vyEcshz56yHY7/wSoNS6CI3Mul5ZtJcyado05tWCr8kmqmsRp6p98e1RiMpaZKQxAnOeIwjSrJZCqTo5g49mb/9QDjXz7XWiEKVm3tQEj8CnCow3eLrRtluJUn3GGfVc5xlkeckUYRQmrHjGlloq8xHel+Zvj+cs08rjSgKVFEgpUQ4TiODz7YiZvF4VAZCm6kQ/TOA4Rzfp2c3R7Q2hGOeZqRJwsjzcScS5B2mdvX8Wk+1FrC+R+/YduX1I9BbHm1pnnEMQ1zXxfM8XNe1BNC3jDvdEM9/XyhNkqbkWUaaZ0yn4Lp+vdArWraQ4IRPuhda6xPisSgK0jRFKUUQBFbufgDEaUocx4xGI3xAOo5x8CjxZ0mA9dC1+N5gicdz6MxcBMQJ0eFAkWVkec58vsDzfUpG8vGjncXnwxnSUZWeJ+I5RpBCkScpSRgShSGL6ZzpagGuC67TEIIDRGR7sZ/W727OqXIiUhSoNGW/3ZEkKdPphPFkgqxIb7Cy95VgiHzoH+nLpWj9VfkuiuobrYnjmON2RxZGjIOA+WyGGI+pyOZzROfw074M2nm4vqixpLv9TWhQmek7eZ4zmUwYjceIIADX9pmvEoM53PTw4Q6adr/TUVJrsjghjWN0kjIdj3HHY7OQc4+H5dkndxZ/SqQZ8fFIGsckacpkOmG2WEBFPlr8iWj5qA/Gbrb0F3S+F2d1arn0pDQ6y4kPR7abDZMg4CK/wBuNIAjubvuh70Tn17eNehG/6qvGO1QoUU/whRTEScLxeGS337Hb7bm8vOTy6gVCiLNd1E7Kvz5oXdkCgnt5uzuaT2tNURRsNhs+3tzw4uUVr169wvE8nDK/TJXvWnM3QTRE4ggh6v+TJOHm5obj8Yjv+4zHY+O17Nqp8reAx2xZ0dcZWZZxOB5ZbzYIKXnx8iXL+bz+vrtBqHEy6Oujz6WFrH6z+J5gteldaGmVLIrZ3awp8hylNUEQ4JVf1rtWYnaibWdns+riC6NHOtZtoKs57dN2lDSXNquiQinIcsLNjpsPH5BXORPfR4xHaNmig87PJbp/VwNmu/BKo9OM6HBk/f4jURQhf3rNeDTu3uB79Ir4xvBQibpLL/S1hkaTZzlRGJLqkMT18KXDyPPNRE3SeFDV+HOFoTL8hkKXPvuzwXg3VjlWi4I0Ttis12RphgDjOeP7X7RcFufRCZVr/X32RD6NtxNAkWUkxxAVxhClLC8dcNzujR/zDN3q0eWvIkk4bLdEYUScJAhgNptRz5StZfAnoRpnNR02uxZA3Q3XFLTat/FI7F1EpbdFGWKdxjHHzZbCDxjh4imMjPWJ5wExUKeHvk9oUEqbYJEWAXyMI67fv2e733M47AnGI16Il5166yzc2kn5VwutdMkEPr2NNMaeOByPvLu+RkmBPx4xm82Zjf1OOoTq99DT2qTUkH2S5znH45F3796xXq958eIFUkqKonhy2S2+LIQQjQ36kPPL3xrIVUGcJNysb8my3MjYfIZAdHa1rn6q1hNMDM35hRELC4sGzr//+7//+59diK8ObY0VJ+S7A5ubWza3t4yCgIvLSybTCXhe6drfTDrMYm6d8c/iS+BcWHXlAFU2hpRmRf2pEK1NY0DgOS4iy1FJilSaKAzxpIM7GQOiloXy9NP73fEfAFnO/uMt25tb0JrJeMJivsCfjs0kRvbv3X5hi68Vd7dO17vGKYnGLE1JD0ek1rhK4zoSHK9s8XKtv3PjhxKQgzT4J6PtRfAlUIdLVRuGpBmbjx/Z3qwpioJJMGK1XOFNJsYjWZzvlxZfBkPev6IORe5+ROsz9H27He8ae6UQeFLiCkF6jMijBFeApzFy4chu4e6RD7OoVZJVGshydBizu92w/niDKx0uVxfMFwuc8bghnqzc/bmo2qBeuCnTWAh55tP6rpaw/sfAFRJPSHzXRRYQ7veIXBG4XrlgJKkjaVpqqE2ctMXvu7El6/puDgi0CWMVgrwoiJKEt++u+ftv/8APfF6/fs3F5SWz2QwhxUlq1I79bfFVQQhMKqIntE+bPJSOwHV9kyXFdUizjOsPHxCea7zIRXNNxS3KnpwYXluUxJQ5uy03Simur695+/YtYRjieR6vXr3i8vIFo5ENtf6WIHr2wtlP+xpAei6O5xLHMWEYUaiCNEnwfJ9ROdc3557O3KpYpc9jTTfvBRVp/jmeYGHxZWA9Hs+hnMiqY8j65obdbkd4PHKxWjG5WJXhtKrjcSSodpbVLZXQNimfAqtc7sPQBLZOl3Q2/kI1sdf1BKCadJYX9B0TSstGa23ydXkO4+mU8XxGtNuz36yRvsfVatGdxCJOw0DPvoWoQ6yJE3abDZvbNZeXFywWc4LxqPTO4SRe2xhX7YPP6f1m5fBBqDxp7jNU27PL9pSzyhNaHhtPp4yDgPhw4JCt2e12FHnOS8fB8YNabLUQTZrPP7mpvvREUFR1rjVCadA5WRSy+XDD/rBnuVwymU7wJiMIqhQFZT+xbul/Gh5U7Uo/nahTpS9Muy9KSTCf42o43G6IwhBZeklMfA/tOk3ZtG71J1GLi/mv0bGN/IGKIg67PbvthuN+zzgIWK1WMBmXhPcT3uNODI1+Fg9Dh5oof52GTAxy0KIyMFoLfapc9HA9gumUwPNZ5x9Yf/gAeUEwCggEJfksT5rqUy3Fbw6ChtQFwiRhvV7z8eaGDze3LFcXvPn5F0ajEU5ZWUPeoD1/1HsfafHnYaiN+m2iaHKcVjS/68LFxQXSdfnLf/83f/v73/HGI168eEEQBASOMLKhzbWFNuZ3JRc989sMKzTfh1HM9fv3vH37jslkzMXqguVyyWw2ffY6sPhzcJ/sjT0f5+KC9WbDZrPl5uaWw+HAaDxmPp4A7bzqw3Os/uzr0/WNbslwM2lopy0/hdVyFl83LPF4DlmGSFP261s+vntHMBrx608/mUmEa7zNdGVztsJEaoKq7vs9K3ZIYXXO7yuN9vVWoQxBDFRpfaxQ5FlGlqbkWQJ5Blrh6MKExLeMEYFAa4lS4AiJdhyk5yA8D8f3wfepvG+qi5zpmCuu+KAV2+OB4/GAd/2exXKBWC44mdxoTkeLfsiX0qS3GzbrW9IwZOS5LKYzs7o78svl3O49dHVtvyLq/x9CRt4lXzaIYBC6/mHaJMso0oQszcjTDNBI1Ri55iMQleErBEpAoTWF0IymY5zRyExOK+JaShaLBSrP2d9uuL25Md6v4xG4HkiHesfm75R0HAzdLgmfKrRGCgG6INrtOay3pEmM6zjMZlOmizl41XDXXpWg1T2sbP+paKsYDcXhSHg8IivuUXd1dXuBT7c+ChCuJBiPcQK/Sw6V93eCgMvLSw5Cst/uSNOEX0YBjlt6pEmBlqUPg4bTzWDaiwWYma5SRIcD79+9QyvFarlguVhAUKZGqAupT11yBivhIZX11Ot/YLQXfLRpN7KcLIlRSYYuCqTSZhflMsqhQ2yVVasFKGHkRAaekbXKq9Ezenk6nTKfz1F5zocP77koCqaBj5b+SfRFnzyrZFl2H/vto6V2EcLsmyfg480tf/mvv6C05vXrN1y+uGIymSCAKti1s058est7rZunxAEMPeex+G7a7g4URUGW5SRJQhRFJkRZSOPAoZUhbCoPdvo2rMB1TS7FIBgxGgW4susv4HoOi8Wc+WLObDFjfzjwf/7yF375+Wd+uroEjBxV8iKqaVlPdQspcFpLR5vtlg8fPnJ7uybNUn5e/cSbn35iVJJNMLBG3BT7RK4es+z/I8jF50KWFSRpShxFRFF0skBp5K2ZG+nWBpxCCHw/YBz4jEdjAinL9hKsVhfkecFvv//O7XrDh483+H7AbD5jJFsLk72/KjzfWnYjQQ090HdoGJIyu5pu8XXDEo+D0OgsI97tOWy3bNe3/PTzz7x89RKmZahe5enQuobas63698xEpX2sozfao2R/ZcMqknsxtNSkFVkSEx32HPc7iiRBqhxPgiudendgoTVaC/NREiEM8eOMArzxmNF8ZjZ06YdqjwJk4DMJjzieSxRF5Pl7PNdhvJyXhrJoJpzV30PNWclCnnPYrLm5fo8jJdPJhNl0ip7PMJPtxwx2Z+RusPLspPVJaOcAyzOSMCI6HDjuDqA1jjZ5X10h61wwoiS9HSEpBOQolBCIYslESkNWVPngpGAyn4JW7G7X7Pd7osOBxWQKM9ki1L48lFKfPaz6IQnD69yOecFhvWFzc0uR5YzGI6bTGc50Unq+VQq1/4xzq8cWnx395lWgtSIOj+xubk34fEUut50Qy//BTDhr4lGA43nIF+Cc6xu+x+RihcgKbq/fEx4PrFZLFr4HowA8t+aluytbA/SQALSCNOF4OLC++chiNufi6srkdXSbtBgmHYAyrNWdu5w9bvKgS1uiCcGyk49htNpPY0jHPKdIEqLtnvQYorIMqTSukDhCdnJ2V+1dyZmWEuVIgumEyWJhdq92yraVDv5kzGI+Z7Nec3tzi+O4TFcrhOu2IiK6pauKNkSufdMt2jJFVKlwhYSs0KRZxsebW/77r3/n9U9v+B//8ivLy0sCIOfuvJdV2+g7zqs0/0Pr71z9PxXffNs9AEopkiRmu92xXq9J0wwhJUprclWYBSEpEEKW9kKjEwutGQcB4/GE1WqJH/gouls5SQGB5zBfzFksV+yPR97ffCQYjXh5dVkTTQpwdEnaDw/3jecjsF5v+P3tW3b7PUIIFssVV1dXyEpnl+fqoXtpo8qfih9BLj4X0jTjsD+w3m7YrDeGBC7HVIU27VJWrhLCLPQI4xnrCMF8PmcxmyMcFzcIah0yXyxQQvD2/XuOUcTH21t838f1PEaTScvrsUF17PkC8nvOKNCaZzz0eitZFl8nLPF4BlF45Pb6miyKWM5mzGczGI/MJKIdgiXoEg/A/cxSC6JPPva+/rTX+DHRrjSl0EVOkWeoNENlCVJrtAQhS9KkmthqgdASXQb2qEIhHBfhF0ileo4vmnb8RjCdcPXqJdv1hvXtLcvZjElyCZ4DouxmUnRFpPNHGcKdpOj9kcNmS3w88vr1a66urmAUGHK0enZr2f9+g7jDxNLx0qvv0zvHSt790P1/RD2RVWmGShOq0D1ZGttCt4I0lVmF1Y7xntaOgDyHrABXmY8oFzNcj/F4zGw+J4sTwsOBDZKVdGA0om7XRzXbp7VxURQURWF2IN3tmM1mXF5efrlFksrLXMrSaykjOuy5/fiR43bH1YsXXLx4QTAtc+u1PVMBQ9fok3w/n07A614ojO1Ld6I/dFJ6qxQa8qIkHbUZKjX1dFS0z61Vq6490aTStEM5mweUA7fvMZ6MGU+nqOOe7WaNFJrZy5fge63yNPIgRLugzXEVR2w/3BIe9viOw2w6YbFcGpsBmpDx+oUf4hdznx3Rv7Z9vpW5s6jaoQqrVkbOVJZRpKnJ01moUmc4tHN2G40BSmgKrdCOA75rZK1alFStFDy+x3K1JIkjPn78SBgeSQ4HAtdcV5ejpycEn68FlVLsdjviOMZxHHzfZzqdfv6de1uiKVrJGveHI9fv33O73qClZL5Y8ObNT0ymUzKaSX6n15xZKOpr7ur/6h4S2zM+J5QyO1CnaUqSJAjpoNHkte0qQEpDEInmGlXa11oIxvnURIGU9xSYFFZVu03nc3799Rf+8te/cvPbP/hwc8Pl7RXT6ZxZ4NR77oFp/zYZ1NaYCjhEMe/ev+fd9TXL5ZKrFy+YzeYnpCM0ppjFn4NOYJiAolAkaUaaZiRpZvKJSkmBWbhUaLMBjCjtayFMJANmwX9UFKWt0B3NHcdhMpnw6tUrVG7s27//9pvZzGhivGDbJovgc24IVi2SabTS5HlCmqY4rovneUjH6ZD4p9dabWfx9eE7Jx71w6eQVR9VGpQiPRy5+fCBseMwn8/MZjK+j3baOxb37lqNTPVo1ydzHjmhrRWt+JN0yFNG2a9L0alyEqqkRLsOQvmmKoVGlUnNVemFohWAY7wdESZcw5E4jqSQos7faX5p2uyCPxlzcfWC4+HAcb8nOh4hDGEcmF2uO4PDAFGttdkRM4w4brfEhwNFmjAej/AvVjDy0aLXHuZFepOU+/wkxOmoWf/RzAyqnqNb133+Ke2fadU9tk/2/hdQxYJqR6NcjXJE7amlBOSVx6NuPJRyoJAaLQU4kkJqCqFw2nKGANdFjMZM53PSMCI+HLhNElarBei5yfHYKc/Q+5x7x8e3qNa6DK3KuLm54W9/+xs///wzy+Xy809g22iTOVFKvDtwXG+Iw5DpL78wXy3LUNdq1tD0h7ax2J5m6HpBQXdqRjPkbaxbdxSt68tvK6LsXjK2ojVOj34ePOedH9pvm1o+ebpofVFOUrUjwJXGU0brus8orc1EtCTxhS71PFCUdSgdx5BC/Vyr7f7qOjAZMZ7PiLOE/W6PA8yWS5OTcaDsdexeb+EoD2O2Hz+SRjEj32c6mcJ8hvZ8RJVrkjIp/NmclUP1qM9829bM/T+q78+38dCTzp59p1De1/Zf0h54nBy2F4+VNDJUlHoYISikg5aCvKYejQbQApRWZAqEA44j0Y4010kzdpoICkwu6PmMYDMCrc1u17sdge/DZNLopVaqHklDukj0PeP746GUYr1ec3NzQxAEzOczPM/7onq7WSiA/eHA3377B7v9Hj8ImM8XXC5m9YRe0RBPNXHYqoZKqytOLe4TfIId/XVZtk/FcB8533OG4mta13WGtmrjDomUEikdhDQS7GL6F1B/X3kKKqFQouLtNaL2dRQUSuP09OVsMkG+fs3vf7wlOoRsbre8f/+Rn994rIK7czK2Le84K9jt93y4ueF2vebNTz/x+s1PjKfde3TI7t697ntW53oaldNez+pvmPSjo0P29r9ryZuul4EEwpFIx8FxHYQyof0mssBcIErysV6AEBJXOjjSoZrRV23jANL3ubp8QZqm/OUv/8Xt7Zqff/mFy5dXOFKWc8Hhcp7Ok55hXqM0QuWkoVnkH4/HePOF6Se13j5HPn469MD973+/h0n1cHt/arltj/qa8d0Sj80UriFQTrtNOQRUK9RIKHKIY8LDgcNuy3i1ZLlcMBqNOkTTifFdEUuVW0b9DN0577Q0uuSC+h2l1q4G/RDfu2IDn4WkvL/jD09eWg9/qu54Rp0hXLMBjO/7LBYLhFI4gFNmoq5bQakybNQYTGAMI+k6JpTVdcoJRauAdZsDnoc/EYzHY0ajgDSOub1+z+WLS4Tvl+Imu9doaPLMachzor3ZpMbRmvl0yngyNnkdHYk4qdABM0gpc7ySF10+qJXfpPMK9fXdCbpS5cBeem60/MXO1/U9398NfebvL4F75LXVjQ13dXpi3Ta+x7TcBGh1sTLNXnlftQxXUeY50rpclZUC5Qgc1ytD+qUhYKAMIzayM5vP0WnG9f7A4bAnPuwJojliPDZyqlVT2EFzqK3Gnt5iQgiyNGW72/G3v/2N//iP/yBNU/7pn/6J6XT6bF6Pw2HWPVNFA2lGst8TbXe4GubjMYvp1HicCQEq71yiEBRl/29I3ub+ulpAEuZdO0ZuS3crrdFluLmUDr0bNbttC2E8Mzvo9t9zb3pnTd7VVR504ae200ABzrJazdvcRz4KYDKf4XguotwZVSuFLicTUmEmDUKC0g3xIKAQIKWDV+0i3SmaaOX/BaRkdrFCqZyP19eExwP54YDr+2W6g56PVP/dCgV5QXw8sF9vCByXy8sXzKZTwCw81LkiawZJD9xM944Py8bQZLbrMHdqup9M3gae3qr68+/aPt5fBDuLe+TsUweV9gz+rvM7cZKtGhCA6+CNRyzlJYvF0mxqobvXVvKFAOFIFJqsyBFC4Hoeru+jA6+OoEArRKHMo6QgGAUsV0uKLGf98QNjz2d8saKOhuiNxCZsr086Pg+KouCPP/7gv//7v5nNZrx69YrlcsVkMrn/4meCxnQ/Dez2O377/Xcmkwk///wzi9WyPq8iAmpCoHefiphUqulBbROrjeHRsBGhdsjs55q2PsWyeVCffNDFT3m+rq3ku7pWNcZNJhM812M+n1PkRZ3XUQmB0gKlCwQSx2l2F9ba6HVReqwFvl/2wXLcbBFGCmPaToKA2WzGxWpFlmVcv33HarHCXU0p6C4qtr1dK+TAerPh3fU1cZISjEYsFkuWyyWO45ApTnJMivJdK5OjbZq0ZadaZ3JEmyRr9rKsNrWvTHN0q10+kwx+stx9wWe39lDpkLKVE7nG+Af5QcYCx6sAACAASURBVMDFxQXj6ZTLqxc4rovrusZS05q8jMgxziMOSuv6Axrf8/A9H9cxOlhhblzl3p2MJ8znC4SUHMOQm9tb5sslq+WSie+f1E9lKXSPP+bth+Z3lQApdJYRbte8//13XlxdsZqOQTt0GfFhu2F4+eC+srXHbmMDK8QZr/E+79Hc4dTOa2zAhz3/gehMbJ+FBLH4TPhuiUeDhujrGtZ9s6Ml4HlOejDhMGl4xLlclZt6mHBGoTm1ftoCXx0YsOKNsWVGJdm6Sbd7lMqmV6wH41k4m0+9Sc+Ke8rjH3P5mfM1GiEdnMDBCYI7byGUMuHUQhqCYMhwLbrkRee5rgOuw3g8ZjqZUKQp6w/vmY0C/ItlM4YI2SQcatezVpBnhIc9h80WXwhGsymjMt9Yl/m6ox4q0avLJprfmJ7QeFNURwaGEQ0FjeUkOtecf/ynq/qnCv5zQAyP/R3S0fzuhO/UL61NaL03wR0L3E5tGH+s5soq26PGMT5d5SpqUT5DlsZta6AXEm8yZZHl3EhJGEeEhz2jw9GEhnpVeKimvSjRbpdGfMQn5zXM8pzj8cj19TX/+Z//ydXVFWmaMh6PcZz+mvDjcUI61gZWy8DRGgqFTlOi7Z5ot8MXgvFkYoinwDc7xKui3PlbmHyaCHRpRJn6qUYKfaaLDcmloSO0VmVuoWFCqfm+fd35in8wJfgQu/FBN7mDWLsLQx7Y9z6mebt2jda10yYfJyNGk3GrfNUVJcsgGvOlIibgvFGjdZOHyTxGI1yHyWpOkaV8uH5nEtUfj8xHo9KDzSvJo/Ip/XfMCwgjksOBeL9jsrhgtVjgTiY1AyLa+qE2jO+qqPa7VlA1+WUkTXZuYe7cH5QayR4iH9sT8uqck2bqF2vwywfgqSr9nAyfu99g52lNwLTunihEuZGXgxOUixRVX62jGowHo1NtCiQlEo2rc0CCaG84UF5TaDOml2OoN/JZrVZsb27Z3q65mM4Zp1m9kVEfclDftAajTxhplSr4+PEjf/3rX1mtVkgpSdP0yfd7CjQVZ1+w3e+5fv+ef/7nf+b169fM5/POue3djYegtNmcrbl36QktejVWNXnv+vqcIZn6Cuaun2RXtS6+Tz2fw33PNjy72YzJ9R1832M6OyWxKwsIhknkqgwFUChlSLo2oUejil0Bi9mcl1eviKKEd++u+eWXf6LgivbS69A7aCBXcLPZ8Pb6miTLGE2mTOYzJtMxqjCh32e95cs6rTNstYdPXeYvBRDGvnDKa3Tv+op87G8V0CYrn0P8nlv1fs5ntwPJoGVi9Al0Db7vEgQuUyYowOudlmNkyaNZzKkWOwqM3tBK4VVRjOV26AIBEsajEYvZHM/zSPOcm9s149kcLxgxKsnxIV3yeD3SE4DOyaV20gpdZCT7A5v375n6vrE9vAJ0afmc3VOiP270n3d3uRqrS3RskOa1mnGyXe5qof5EjgYmHmeGbfPjKUJ4H//wFej1HxnPlwv1K4Ru/YRzsibKHSbLqogTDus1WRwTeB6z8RgxnRqvs0qrKNVox+r2ShlDUxVmwlwU9Q7K1XMEEhcHp1aDCnRhzulpXK2UuUehzOFqNK3795meI85/9XjoJ3ye8dEPxRnS8cE3quqzSno9WH+6mSRUSrNPgiAYT8ZcrFYIrVl//EgSHoyFrZo2bpM/jXWs0VlOdAyJ9ntcIY3XjOua0VecqW+tuvJTbfQhWsVqvdBQbWitUEWOVs23jhQ4jmjSVtGdrH4ePKP8PBfaRhCmuWQpA5U3qBCiJRd9kqQAMiCFIgOdYkyi8hhZeU5efnQpimb133EcE65Xecu6JhH2aDLGH/nEUUi4uUGnCbWBUskEmmE/um9v1NWl11FXzZTyn2WIY8h+s+G42zMZjXh5cQFBULaTuUDQ5Jkyslyt4bZ0hTb6XWiNrHJRUWnvapuJCsJMtlwHWU9Smj4ptEYKE4ppvB37huFp2+jyuKrbrvn9vJ+hSj5b/fec/7hntt+qmgyoTkdrG8dVHypax8q+pg2h/NByn0xqHGHI+tGIYDzC933QmuhwQB33kGWl+4puPUM0HyEgS4i3a5LDEakUY9/Hm89hPIYynLDyCKo+TSV0DfUuvaLN+5XfCYzHe+UFZyTRQWJ2Xpaifb8huTr3TaPTz1ajHvj7wW0/dJPnRP8ZQ5/Gu6oeb9u/SzKRMvVKZcehCzPuSgGOQEtNoQuUNksXWpR6uf+8isz0PUNea4XjBawuVoxGAUkZUcNuD3FczoDb91B1fxienn27qN5AAnlesN3tOYYheZHj+T7z1RJ/NKp7e79XDN5LYDzoyjHYkeALswDRzg3Y3myij2roPpHeZ6zyT77Vs9zgGcaJFkTVdRxp6v+eS6omqDxV+9+BaW9HljvK90pSyQPA5eqCf/2Xf2U0GnF7s2Z9u2YTKRLV0dL1PSooICsKNtst7z98RDoOy4sLfN84J1S211krqUfkOhhZq9amhBTlJjqt81oqpn9j0S7suYc+f9N9lahVdOvTrxdBMxWrrS7dbEJVfYaqoN1mngDfkfXChiPBdaTRJ0AgYTabsVpdMJvN2B0OvH1/TRhFg/c+Szo+0xgptEaicLTGrYyZ+kPPnoD2HLh50kOeNyxA/aMdUa3bSd9VEeW5HYv7fIkeHFXRL+Xnw0M2urS4H9+5x+MQxMDvZjTI05TNdk2SRHi+a0KsxwHadREtA7HyOKhDt8rwGsqJAaokm1QB0kELXYcf1npUV5ZORR4BwjFkRhmaiZAIlMkTWJX5WcnFHu7rVw99bnvu+FxlefA7a0RfnZWK2ewqSun9ZCYN5lh5vlKQ6+Z51ejXJhz7yqdF7gVBwGK5INps2O92RFHIPEuNJ1y5q67QZXKo2rQGioI8TYnjI3F0xH1xyXw6LjczuufdKwtZQe1lUYhyAx3ZulbXg6ypk/JTyqpAmV05hTQcV3ld3iqp7D60/quR7E9BJTRfmhi7p0Pp4VPqf6vcrkKDzk19VvJSTSiLwnycXvxO+/rqb1FNl3rWFmWjlJtixEFAHMdsNlsmV1ewWNTybco85M16OpX92mnI7mCvT74TaUYcRRz3O+LwyOjlFZPlAgLjASowqtZsDKKQJX0jUDi66dZVnlVRlH2ojI2qNyCuPexaZlNF+oNpt/IeYAhPwbBHU2UEtvtNddc2yd8P9TpTDcO4s2EHhPqhglALjemvpi51c/0dVrnuHqjz2en+KrjSjSHb6Tuy0cnVgo5QJpy5T+SVY2l9RCscIbp9Qpofvu8T+B45iig8cDz6zFarVsvozq1rpAn73ZYoPCLQ+L4Lk1G5OY3oethps6lZo+fKT0V26dZUXJcbHznN+d2Si+59tDIbdrTaQfTkqv+7UwV9tMfvE7kQj58U3Dt+PRL9+50t67kLVW/cbKZlTU5OKlarfIY2URFaI6REyKFIBFE2TZVWpTCyHHi47hzXD8iyjCgMzSYzvme8srVsFa+5l65/PujlvmpoTFU45WskacrNes0hjNDCYTyeslpUOxobOHT1YFtHDoXBZoVCiTJNDt0aq3TqEGqdK5qeJXXz9zdd86W+Fpwm66lw3/vd+33bNK5UGmXK/NYN2pqvKM+v2qr6vrFRu8tNQCe33mw25+efXX77/Q+2ux2b7Y7NdstqtSIYNSVuy0z1O00zNtsdt+s1v/76K6vVCq/c2bgmvNrQza9K1pQqFzJbG9Ho1rv2nytbx1uZXE4qd3Da86cL4GOV9NMLPFT3tXdpC7X3ooK8ULiumev0S1pac/XSflvG2reUQCdwBQh8l+VyyXy+4OP6lvxaEf6PqJN39u6XOf/V0Hjc6BpxclRogdSnFn3nPN0dm/v3vi9tQvvM5j/B3Uk/TstqTIS+t6PotI9Z9u/eQ56c/wi5O2cT3HfeA2FJx+fDD0g8Vmh3iUYS4zhit91QJAm+7xllVklwe45WTgxqT0lZqrNKa5Yei+oQkaSJIYAcge/5SN8Dt/zkBWQ5JJnZ0VZIcFzjreO1d9YsMeD9/0XGpHrEbR7YVU/t01onPPVZQwcflIW5NaGrUO54myUpeZqSpSkuJpeMMw4Qo5G5b1FAEkEYGY9TAcJ1zcTA9yEY1VZDTfC0vWUBPIfRyMdzXaTUZGkCx51JJO/7Tbkqoqoks4s0IY4iVJYhBIwDHzkZg1d5x7bevSO6pXwWRo50lJDnOVprpOvgVqHabkN8NmVQZtTWJUGlNWQpUE7wy4T5jujTFM0krZ3MQNQkxFPw6VL8mGHh5GmPIXKGzi0KyFPy5EgSRviug+d7ps2rHXJb1nmTL7S8ceURKx3zEWXe2baFWi3/Og5+EOAFAfF+R7ZTqChCpmnj1VOVs84hWrZRNfB/F2OoMK+XZ+RJQpaloBS+75WpMTALP2hEy4Ax4e2mLmtOsKrnwuTSydKMLEkAcD2To02PxwjhNAtKWhuvuDQrbyzNTrWuT0Xea6kQdeZ8UwbVMrhkL2S2WakX9f+ge6EtZ6ujQVsFiu7h6nXry0oxuy/sXvT+aBvOHf1wx32GutCJSVslbCujCIroSBqGOFIaj4QgAD9o+kOWIIqs3o1YADilDHh+U7jaC2WggMIsGqWeR5LExFHEvFpAqNF7Y6HReUZ4OJClxl7wPKfxYBOYBS7de1BHl5uoBqKQ+HDE9zyE7yJ8H+EF5l6UnncCk89SK4TUIByTk1rrOo3AqU3TDBb9Lt+Ku2gcFZ7VmOhPSB5w2nM86gS6+3db+AsFSQJJhi4KU4ejwNhmspzIlUSkQKClRFah1EVSikKpc0sPV6FLdk2YXL3adcrxtUCWmyDkRUF4POJPJwg9azxr61DuprznbLwqr97XjHbNl/s2oh0zad8fDvz+9i2HMGS+WDJfrZiOfMCEwiIakrJC9W8lu9UzNHCMUo7hgaL0eJtMx0zGY3wHfMq4AgVhGBEniSG8HJfpdELgyo6XpUNDiPW4iE45vgjaJNUz4pSC+HSjQAjIck0cJ0RpQpLkCMfF90cEk4Cpb+q2AKIcDoeYPM/QWuF5Et/3GAcjJk43yGso8tlxYDQa4bguSmniOGa3OzCezhAjrysfrevjTLE/HjkcDxzjGD8IWC5XtcdjhToxTmtKURGLSkGSZaRZSpbnCCFxAx/fdXEcB1mONSeh4qX6KQqNynOE4xB4spPHskJb7p51KvVF7nJ3yZt82XfcQbc/usyjbfRIriCKY45hbIZTAdPpjOnY7cxLqzrMKInHAqqspY4UtdekpiG129drDMF9eXHJ+48f2W63HMMjaVrg+E59zdnFuztqpiIBVa9+G0KzN37KZowXuvddx4pqvqvuLVvPa183tFniUOEH03ENlrP1vzjfvg3peEostCN8Hi737XL3bKxngslH+11MnP50/ODEo6azlloUJEnM4XDAFzAbz/A81xAz1Yr4kDCfzLjMhLQIQ+IwJImichASKM8zhNd0BiMBcWLCbZIUsgKlytX0ydSEa/me2dG2XdTyEQqF0pShVp/BFGrrhDPEX1tJ9y97Mk5u+tDOXlkHpckiBLoo0GlCFpvJZBrH5HGC0OB7LsvZDEdcmJEriSEKSY9HVJ6h0EjHRXoe/mxWTiYqeaCc8DmtaZ0AR+L5Aa5r/KqyNKE47HE8t3kvrY03VEUMqYIsiUnCA0We4Uhhdr0cmc0RzKBbVcxA5WptyOsoJj6GZElSJ1UORgHjcQCzaUNki/IapcymG1VIf6ZRucJxPBgHIEpPXacdYqo7v7XWzSLbHQPNw3FuIDx/5Cny1r3mE0utFKQpeXQgOpYfKXAdyXI+RyzmnVxeDemojSWUF83CQzCCcekVWU18q9xiVR93BP4oIBiN2K9vyUrSepJlpo0rC7u3TNxXEadD/reCVmm1RmUZaZqg8xwhtCEeg8CcVuTG87e8rDHNem+vlan/2OiKNI5I4hShC3JHIsYj/KwoN/DBEBZFYdq97G+5UozGY5zp1BBjntv08bJ/mO5fbtqE2aSiUuuVv/yQtqtW2M07n6+O+pSqj5fni5PwFl16DYn6tLvSKLTzALaLYQLVq/Dfs8W5r7jUCx+I0oUhM6RalpMeDyRhaMKhBExGI0QQNItzUQhxjMpzijynKBRSOvjTGYxLvec5NDVY+UC0SuJIRiOf2HM4HHaEoV+TenVYbv3W5W+lyLOUqNTb48Bn5Hp1zQy4Np++fZpCHBMfj8SHA7l0cBzJeDKFWWEI1GrRSAqgMER2kYMy12ZZjjcegR+gHW088TrJsXTdVhUqr3cJtTFtar9V5jsbsq05dJN+dfCaYZl+qN45P3kZ/n7QWtBVKXTDRBQFpBnZISSLYoosQQjBaDzGHU3MxlS+V3rflvq3HL/JU/I4QecFQgtcz4fxCOFITIi2W+5gJxCyZNqUsSd830crRXg8Mk0W+JV37x1TueZdzTnf0gSoNh8rAkEJCgmHw5G3b6+JsozFwngVjSmTkJRV0t/wpV8vCrPuk2Q5+8OB/eFAlhcopRhHMZNJzHK5ZBZI0hziOGG/33MIQwqlwJVM0xnTyYTReIQn63iQe/NQPTZP1VPG2E4v1k+7R7ur3m2hDQ0kw4cHoSHNC8IoYnc4EkUxSZqjhcR1fabzJfpiVq8FHSLNzXZvxm5VIKXAcyQXqyXiYo4nmqLXTsltE1iC5wvckuyL04ztfs/q6hKNNzieaSCOU/b7PbvDkSTJ8IKA+WKJ5/sn51cjBVAv0BU5pFlKGIaEUUQYRSgNru8yHk+Zz6cEQYDndH2VNcbUi+OYJElIksTkw17OTwj26tl90rs//n7taKyDBpU+uHcDkNY8UGlNtb1mnGqiOOJwOLI/HshLL/TLS4VwL/FcE0bd0FdlwqMCkiwljCPSOGE6HjMZjfE9F7/tcF6iCiCbTqcslku0hv3xSHiIiZKEwB/YjGvAoB4e+0TzjN5Zg7VSRkKdRj1U0Tt97VjlWGzepTo+mNO5c8+noHr+3W3atj1B995dlzaKro81bzfENFTPbRbyh8YIi68PPxTxWJpsDKgXM+lMUpIkJs8yxuMRs/kMPwioySxhci2ZCUBDN3WQJag44bhec9ztGLkuvuOg85w8T9mu1xRpxptXr3AXSziGFFGCIx3Qkvh4JEoStOvgj0Ys3ryBi5XxPmszB1qjtConqqWZ9OzkYzXK6+6L9qqwqwgfV4Zzg+rjMKCQyjybeRxy2G6J4whdFEilcSXkScJ6c0O62/IiCnGlpMhSVFGgVYHKU7JccYwjjmHIi5evuJQCxhPwgnoy2q3ykiDyPRzHqPcsS4miI7P5FI2ZpKAwYd517IUmDSOOhz0oxcgPGI3KXVWlLHfJbL9riwTMM0gy8sORJI5RWUaepKRJQpYnbFXBdDbl6s0bWMyMJ4du5ZwUUBxDPr7/QJ7kSAQvVi/wJ6/RjoNQRTm+tXbsrQkNfVKi4WnTJ6CaefTk7S65adXOID6pdJUVXIl6XkCWEO52HDa3iCJDaM1+s2W/3fL65RUv37xBTqcwmzYTKacMA90fOaw37NZr4v2RX3/+Bf+1A8EILZ1Sxirio3kjLwgYT8Zms5Q0I01SJklW5gQdGKRFt29+C0brMLrGFUqRpSlpEgEKz/NMrj6/HNrKHae7Rm7b7Cr/z3Pyw4FwfyA+HBFaEfgeRVEQHfYkuy2+5zEajRiNxqA1eWa8pJTSHPZ7bjdrxtMpy4sL5heXcHlRerBWpp4xq4QQZaZfyWkWzjpw+fHV0Xq79u9236yOVV5u5zpD//mNh+Zp/2s/5dST4e43qQhLQ1qVV6Up2eFIHB5JoggptOFt8ow8y0jWGxCay8sXpk/t98RRhOOaRZr9dkeSJEwmU+bzJd7VK1jNm1qtN/1oBfW5DkEQ4DoOcRzjui6ksZlllrte6qovUu5kniekSUwSR0hgMpkQTEanO2GD2bSsemRZLVoX5Nsttx8/EEiXwHU5bLZsNhum0ynT6ZTly5fw8qqZp1WkYpSg9wfe/fEHt5sNb375hRevXhnvfc+hcWFs2kGXNd5JUVyZ/tWs/km7QZYSIdr/d//uBw13fuvTq7ol730vhr+/a1peL9xVr1cokv2eZHcgj2NUklFkKVmWkWUZ0+mUV7/+E6yWhvgt212ULjjqEPLx+pokipFCslpeMP/pNbgBdUqGojANXn0csxPrZDpFFIowPJImCT4akxZAD9pwTYtUdFgpg9+AxyNQc71g+o8qjx3CkA8fb/AnY95cvWA0Gg/m/oNhCh9MFX/4cMP1hw9ULmaiDI3/7Y8/CMOQX375hZcvLglLJwCAVOWEiSGNjnHMaDTi//m3f+Onl1edqW813A8+m67EtReQhsr+lJ5VoT9iPfkmNIU4W5b+Qx5Y8GMY8fHjDYfj0ZC/QuC4PsdjyMf1W/xgzIurK8bTKX4QEEYx290OpXIcIdhuN3y8+cAvP/3Ev/3rv3KxWjL3zYOlbAgkQTfk2vN9ptMpSil2+wNRGJNeTqF1npQtT8s4ZrPdEsaRyS3q+YwmYxzHHQyh1aLJJ1hoOBxD9vsj+8OOMIpIs5xjFLLd71jMl/zP//k/uboaGXGkkSMJHKOI33//g+1mTRiGvH71hvF4ynjUEN5tFJiQ/+q4FE+XoT8D53zW7uMda2u1bHchZe39uNvt+OPtOzMeOw6361s+frzh9evXhFHE1dUVL+aB2VxGN3WWFYpjFPKX//ovfv/7b/zLP/8L/9evv7JaLZgEw1SIECYSYjwegxCkSUYUh0RRzGQ0wvPuyAXKOdLRoO3RW71ztwZOa0SWERRmOtCaiw2VHYFE37mg/BhUJWqnQgB6+uFu0rH9X5tuVIUqPVplPdZpzKZhjqgsyrtnfhVRP7yd3iOgW5RoWb91mrxPGG9VFTlRR6f8uPihiMdhlJ03z8nTlDRNyYscx3GYTKZleCxNB68TQRg0RIsJC0uiiHC3JT4cSKOI8WLBZDymSFNSpdjuj+xu1/iF5iJMKPIcrWE0niAEHI8HbjdbUlUQTCaMF3O81XKg2BqhdDm4CTouB4/n/7r1Uf02s+ThGeygGTSsQu/CyZl3aWrBwCOGFJGAQqFS4wF4PBzIs4zAcfE8M8GLspTkeCDd71FRSOC5OFLi+T6jUUCRQxKHbG7XXH/4gEawfHGF43kN8VhPXlvlkCbcUrgm7CrNEo7HI7Ms7ZW3Rd4pRZokRMcjWhnCA9833lVCtBxNdUvJC6qNNfI44nA4mPQArocnJVlRkB6O7Pc7suOE1Wxmwq6rRPq1x6MmPYbcvHtHFiUE/oiZP8KnVLKdwU03YZCiRRqUs8eGPHi8HAziZGAVp38NPaI/ka2LdG7QEp3rHjNuqTwziwVhSBLHBI5k5Pts4oSbd+8IgHEwYuG6MJ81RREScMjihM3NDbfv3nPYbLiYzPBfvAS/DFpvb15Qh2+C4/sEI7MLa5rnZlfSNDGbYHne3cxs63h7QvPkSVFFQOvW5hmfE7X+AbQmSzPSJEMAnufheq4hduv8i+WEvkfEUOlNpdBpQng8EIVHsjQl8FxGwYhCpCSHA2F4ZJeYHbtXyyW+5yOkQCtFURTsd1ve/f47k8UCpTXBaIwvLsv2a5ts1U/Te0S9uY2uvYa7irbfMvreBhO0hoOeHFTHnNK4Ei3PvDbvcdJdaIaDhmMym+fcJTs9+mfwnE7aQ6AovZLSOCJLYqbjEaMgIFMFmSrYrTeE4RGd5lysViSZ8Th1RIBSBbvtms16y3gyJUlSflrMQSyo+1BFsrVncY6D7/s4rkuWZcRxjEozRFHUREZbn4hW+o4sTRm5vskH7fmD5JHo3ADIc0QaczwcOGy2uIsF4+mMbfKe2+v3RJMx4WTCfDJBvnzZeM4izP2TlGi74+Pvf/D2+prZeMyL1cosPLg+tRku+tmZdHfiUt22CtfuRDXcpxGq73Xnft2X1a1fTSKOp08Omln4SZ12n3hSyuYEDVlOtD8S7g94umrPnPQYcXt7SzQZc3lxiTufgVsu6mpN5SmZHUO21+85Ho54nkcgJfOrKxPFIsrFYKVMigcHowekwPN9JtMp6SEkDCPSJC3D6enYEn3r6iHq/OEoe29LX38uvd02HaAxJ5WGJEm53ay5CjxmkxlBmduxniiXL3rOszDL4XCM2e22rEuyfjyd4I8CJIJ/HA789vvvZFnGbrctQ+k189kC6Toc90fefbjm7fv3BEHAm9eveFMSj3e+U+//9vlq4Jz2os2QZXTOhDlnXT8GHX3OKeEz+K5Dpv0dMKow43A4cHN7Q5ykeEHAaDRlNJkQJhn745Fos+H95pb5YsnFxQXCcVBaUyhFlmdcv7/mf//n/yaPY16slowCj4U/rfN8Vl6Psi0XAkZBwHQ+N8TjbkcURZ1cfr3Rs/R6PZImGVJKfD9gHIyQbvP6fRK5GiXzAra7A5vtmiwryIuCQmsOYcRf//Y3ZrMFL1+/YrlamLRaVZ2X9zmEEb/99g8+frwhjhNcz+Ofi/+BsbhP20PTyjuqu8cf2kQPked+HYnO3+Lk/Ic8Z0h/1ZZNLZfN0+4wU5ECEgVpUrDbH7jdrI0n4sWKOE74/Y8/SLOMLM/wg4CXc5OvMy/MGrQD5HnGYX/g73//O//r//tfjIMxr66uUMW8++zWP0KA748Yj0Y4UlIUOUmSEMexSWnl+aflbvW5u+qqyvLfhEObumgo6NadyxzQjta4ApzKlgGzGCaq+UF7TDafZlSp7mk+jxlH2n3iVB9rHp4GzfyWrdoxactUvY+bwORHrzzk6wKclKj1ny4DEtvfDVX+HfPF7vuUAd+txb1PJQv7JOZjv2+f960Tlz8o8difjZmOWBRF6fGmcRyH0agM5WrnbRSqWX7TuhPWqJKE3W7L9uaGeTDm6tUrprMZTKbINMOLQuLbLbvsAx/fvuN4s+bly5fMLq9MDkClybKc3W5HjkYJvuWNjwAAIABJREFUQZYXePWEiU6fchDGk6I+2Or8j7Hr+7PM9mSd6j4Df1cT95ObDQ1lD8FQgdvKV3fer7lruyOW7Znl7Lc7ojBCIJjNpqzmc1zfBykYSUG03bC7ueXtzQeW0ykvX71ierGEyxdMNhvW6zVRZDxvotjk6pzkhZmgVe0ueu9ZeTy6DkhBmqbGkzHPzKodqiSUqiuM0i1KT0WtFdIpw2XL8Lr25hcdKE2epkRhSBgecTXMlyuQEl9psuOe9eFIlGek+z3uZGy0cyXTSkMUk+z3HNcbVF4wXro4qgw7dY3HnWlNVectrTdAKVduRDUh09Dko6ys109QkFUOStG63zkLoT/RbdeX7v1fnV/LcntAbt2mJVKdv0uLQSvjtbK5ucEDVvMF01GADALCzQZXC4o44bjbsVgsqEnEivwQiiJOiHcH0jCkSFIcpY2HVe0pV5ZPaQo0Do6RPc9Fei5IiVKKPMtM2Gaag1t6qbb7RPlriFB6CqpJqyrDXKpj7f/bUKXn4bMPmFqT5yYno5QSr5JtDf02bsy6pkG1KtCxIf3jKMFxHFYvXxKMJzAZQxQRSMGHNOPtu/ckuz0izXn16hXumzcmJ+pmQ5qk7LY7cBzyPDdlc6r0CmXu3tPtEFoVVJIflSds57z6ZZvrzlVjbafpprE1rTopv6vurI3p2zyp9XNIhXeaVg8XpefK0Hpa97T+gFaYtA9hGHI4mN3JF7MXTCYTCAKCKITDnvBmzXGz4TpNOG42vH79mvGLS0CThSFRGHJ785FpmprwuSIvU1sUDclT+bW0vBNd18V1XaMalSIvcvy8AE/XRazrVSkocwarokC6Atcp+2y1sVy9el+Nk00dZOGRw/qWLEmYjMesZnNYrpgGH/ARkBXkYQxptbN11Z7mHXQYcthsSPZ7ijBC5i3/K11NkxXNJietCY1WxmOz3kSlKmXVLyTUG9U8rL/WoqYVsn4mA/YBLZX72PGhrc/77El/utz6qn29LgnGJCFNUqSGi8US13HJDweEUmwKRR6lFEmCm2WN9zSU+TgTsuORaLMlSRJG84VpMyHqXJum/8jGPivHMNf1GI0n5KEJt0zT1IypyinPHSz4YOD+J0HrQR1uvnrYAHHvBKlz8ulwmhcZURSjcoUf+EjXqa9p74nXldLm3uv1jvcfPqCBN69fM1/Mmc7nuL6HUpoPNzd8+PCB3377jb///e/8+usv/PrzG15cXeJ4Lr+9/Y3r6w/c3NwynU6Jw4RCaaQUHcKqPfwPkSlwmnNSKV2OeSCFNJ6e4rzn5rl6a4f6tuvwzhvcca+q65S9/CG3uBdZlrFZr9lst+R5znQy4fWbn5jPl7gjh8l8Qarh//z1r/y///mfLOYL/u9//Vd++eUXfv71F/bbDX/84x/c3tzy9u1bLpcLDvs98cUF2XJat0W1z1Y1w6hG1PFkwsVySZikbDYbs2hUqq52/tpqL880jUniGNdxmE6nBIGP63Y9uTr5IctKTIFjGHL9/j1RFPH65zdMJlOSLCFROXGWkW7XrNe3XF5eMhr7tZdlVcfH8MA//njLbrthNBqXfbDJ8idoJuUnstZqqAKzK7x0nHoTyAptoru69qy50DIPehZJ/X/lofwQWbtPlhpL24z+qrY/yl52xw2OYcSHDzcco4jJZMKLly/56ec3rDcbNLDZbknSlKuXL1E/mwUEKUx9+pjw+PV2w3a743AIAUUw8pFSni27wGTbGI1G+L6PlA6FKsjztPZgu09bntPdoqwFocq4Fw2yyt1c3bkSwCKHvEBojSsljqgUZCcTqnlSNX83RhV1hkdNd07xyJ4vh970CXMJUV+oy/uaTf/MYdNZTZClMvPjjn/zOehy0bSlrdud6qS8Lcq7L/SI2qmg8sLsPOmBBGF1bvW5i8CsxuH7SM7qPMe5v076BOXXRFj+oMRjH6Zj5kVGnudm4igEnucbD4JK8Do+y7pjVOs8J4qi+nMxnzNdrQyh6I3Qfo5AEjgOpBlhnJBKyU8vrmA2M7ndigLPc5FS4joC1/OQlUtJ9fn/2XuzH0mW5Lz35x77kpm1dPVyNg1nJGpGEDAgIEGAXnQfeB/0VwvQfREggYAAAcRAAIfimbP06a4tl9jD/T6Ye0RkVlYvZ0hpQNGB6uzKyvTw1dzs88/MJl1bMbFprJWrHQCtsYFGncmk+rFyetAdi+Nz4MzCGj3d5Pa0Nj4g55ZC5wQseUay+YN4qUhNxblfVvuKvm/J85RVWRKu11Ocw7CqScIQ0zZs378jGUfiV68kIcGqhLYhCAOiMCLNM2E4TUcmZwwyN0EOMFRhgA61KNfVHtt3KGVnuegknnKMK9P3dG1LhCWM1MxM9J99cvNjwYx0fUfTN4zjQByGEpdKhyTBFt2PmKZhNCO26QRMHEcIQ8kCa0ZoWtrDgXa3I1AB8YUmUQprjbtJ889yoKMHVfQowEoYzhMxGZLnJP4z5ej8O55rfxN2xBo7OiQsM9h+sk7OAOJ20a4nMf6WRT3z/9N2DyNtK4zWy6JgtVoJGzYOSXQA/YjqBmzXi8G6rNSHAqgb6t2OsekILUQ6mGXOFFNMWu9j8imlIAzQ3q3aAY9j2xEMwwR6TNMyV+KaLp36Y4xZDyJqrcU9YgEqnlXg/j5Bx6XGYC1dJzEeFZpoGrvpwS679Ins8lUNAnQ1dYOxI2mSkVxsIC8EBNQa3bTEStPu9vRaUyQpIQpWK2ha4sOByIFWSRSTxIkAoD5emAGlHYBurUs+YuYkJAtQyio9651PR5FP1/Tks5PYWMrWaVsv5Pf0Fb+fPrTw1fGv55q4oGc85+ozd1M+a4eevpbYV30/EK9j8s2FZImOYgEJhwFtrcThbVvoer56/Vrmou+I+o4okDiJYajF/TpQwjzz475kZftxUQobBoShnL/WMWnjvpNkI75LvvvucmYcBswoZ294BBqfHNj+iRaUMdR1w+PDA1moWa9WBJkkH4t1IJ4Mg7jpar82vDFh5Kzvq4r6cYupGsLRkCjlsi8rpuzYViFJkMQ4sViJlbU8L5cgIRrJrryQ3x8R5UutwGKdW6Cdh/hIXqv5Wepk7X3E6DyS536dHukdvgXPVuBsM0vfSExcOxrZt0UBYUTYdoRWoUcDjNhBjD1J/KLdeSOhNcaqodvtsaMh2QQkYTh3yx3yx3JHgQYdRpI9V2vaVjxs6EeIjOhsCxn5Obv9c4rWWuKIPyOPP8eg+tTP+08YBcqJvmEwEt9PQRzHhEF4NJ3LnbQEb7wa8vi45f3799y8fMnVixeU6xVFLGdaj4AFSine396y3W559eol5XrN+uKC0Ol2YIjjkDyN5Q5iyihy0l98cgqDGSWGpEbGMo6iKYTKclUb69jGi+FZxu071T7OzfXEBv8jyxxL7hPrO118H8Apuq7l/uGBw35PGIas12uuLi+JI/nCxUXBxfYC+7/g777/nstNxZsv3hBGEZeXGcqMvA0CwiAgixOiMEQpDWaUe2d9DKItmxMASZyQ5zmHumG329H23RQUeXEFA7hYf/1A07boUJMXBZFjrZ1qCE5cyPgZ6PpR4gpWB4wZKVclm80l2/2WIAjphgFjDIe2oelbBiO5IS3u2Af2hwM/vfuJtukoioIgEiLE0bpx7RytANiS6FIkSRhqQp6KVnh6zn6qfrfs9+mr//9pboPnwgl86BlwBuPxcnlhyy2znC+fV1U1796/J4hiys2a9cWGVQRBHNENA/040PY9TdfN3w/mupq64e72gepQY60limJhMgaKkeezVAf4S8kIrTVDb+hbuXD0rvlHMbgXfV0yZmWczkVjVC5ZLTwhDzlgWrl4/ApLoBXh6R22V+q8kuLJIKcb2ZoT/e5zhMtCX3W6q9Va9uoHdcbjOubVLhegU6JW91cZIRfR0yqUmp2onxbp39EdpjGyeXz4uee+eto3PzNLee3A5VPw8ecUM45ylo3jkd00N8GBoX8i4OA/ZPkn4NEVawx9O9B2Ha1LFqC1nphHYks5dySYdV6HIldVxXa3k6DWWUaapJCmsjExqGGQhDOdxKkKtSZPM9KihHIl7LJh5PLlK0wcYbQmzjLSspgEiw/MPWszjm3W9ZhDhR4tpAkqjSGJPr3zTmhMwk+JMFwKQGPtnMDGwsxw8285JfTMeyz/drqn7FIweqPEKeBmYbyduEoeKW1qAbCMI2NdC5DQDURBxHq9IS4dkOCLGRn7Fjv0aCCJQonj4TONhxGry2vCrODFl1+xWl+QrtcSd/FZweBbpAmiQMAHKyDoMPREg3cAEcqcdUYogxE3/7ZxYHPAMv7j0at3x7IWRsPQSwbrPE9ZJZm0rx2odztqx+BIw5AsiefEI8oJN2OwbSMxrpqWLC8k2U6RO+YVc1898Nj1mK6l7QbSPEetVovxOFUvPlGAeo1jqU55Q9tn1172+6n28rR4y3fS8BcZbRcxWj/azlNNF8CA6XtJHGRGgkCTJAkUpWQ53u2o9sJi1BcbVlkhYK9dRLxx2eybqqLeH4i0JilXsgZjyYo8g5UWlBaMwNegNVoH6EBc+kfXnsBYliyn6ecZw+FDR/rHSpIk002wZHLUk1F7Wv4hmI7AFKagqxsiIAhD0P6yyE66hyjuS7ajrI9hGNju95i+ZZUVrMpSkpb4cATDAOOAGUbsMBIlIWUmDDxA4unlOS9evWQAys2Gm9evUKv1tAaVUlhjUUYyYBsXWL5tezEssKRZTpblaKsg9vLuROD5rnP27afFAZ0COi4uqVwl9qS2ORGO4klc36On+fpOGnRktdln2qzcvyeVK2jalv32kRFDXuRkRQ5FJrFmsS6hjxh3WEiimCLP0Wnq5sNCmvL6qy/JNxuysmR1cYHarGVN4Kw/pRHG9kKuBAEqiAjDkCiKMcZQ1zVF00BRzPJkIZ+ssZjRYAdx6Q/QkgwmCKXeheeAdQejMRY1DvS96BmbfENxfSPV7g80lSQ6iYqCLE4giOSSaLJeBXXp65p2vydSinWRUyYuEYp2c2wFMDNVzb6pqNuGpu8JtCaLYi7KFUGWOv8kvy7MUf+miTlFSJ7Mqfuk0LuOTSsvc59Y9Z8pD07lh2+TWa6zOTrqcdsWv42jeAgcKqIoYhXHAmqPhm67Zf+4xYwjSRQReuHhjS3tgOVxhL7H9j1xGHKxKsnyTOr37Tm6aJl1Fx0EaJcwTgB2l0TJxLNueVL8rIisXuyknylTPbM3iqIpMcenMChOi2dQPMekWNqivtUa6Iyl6zr6vnXsDUmCF0bh9Jnlcpu2kRbNqe4MOxf+ous6oihkvV4RxzPI1BtJ4lE3DeM4EsURl5eXvHz5kiITl+7XL1/S/otfY8woLL2rF0RaCXi+UDcHPOi0p6oq6rrGmJEwDMmzlM1qLee/VoRaS7JHLU6OCvn/Ustdgo/TWC4HSXkt8mS8T14/t5xu4yUw9XNWkhyPI1VV8/j4iLWWNzc3XFxeCWHClbaztH0nDD2tyIuc6+trylLiMKZxzOubG0IML68uefP6Fd98+Yb1anaB9e0cj5sg2nQgF6DDOFC3DWYYceGxCRCR6EElZYWh2XQtWmmiOJgYb17bWvDN5BlKjp7Hx0e2ux1ZJnGei0Jidt8/PnL7cEvbt6RJIkmKkvgIMPfrcbc7sD9UxFHE5dUVm4sL4iQRN24kW7Nxl6G7w56+7xnHkTiUpFSrsmS1EhZoEs579pyLv+LD4ONSvT99//T/R6KbpyDb6WeeK7PYdjYh6ghdn9S6xXcMYn40bcPucODFi1w8TsKQu8bw+LjlUB1Yr9dsNmu5cGB2ZbbIRcTj9pH3tz8BcH19yXq9IstzwnB2/D3XBzl6LWEYEEYB/dBSObny3Nie7m3Zz173WY6Wcrqmnu2TabAWY+R0+hiIrCVcLk5vz5x63xnjlHsHjfpElWYZe/j5WTtW62SErBnlUnQYRCZHMYSu3snmsDNi7y/T1GmCGPedoZdF776vgtB5fCE2m7/0C05H9UwxQs9QbQ9VKySQLHVjvPjcZA+4Kn3m3lP9xp3RwyA2dpZlJEnyWeeuJ1xYaznUNV3XubUUkue5xBL3n13YTc9d6imlCJz+4GXDOI5TbPsPte1PCdD8J+ARAKGvGjMyOsajtRYd6Il5NOnPJ5vbOsNuHEf6vicIApKyJM4yiCL5vDWOKt3R9B3dMJClKXGZgzOuUMBoCG8ueVFm2ECjwxBb5LIglTc+3HWxsZMCPBwqtvf3aGtZXVwQqJUYIZ+7zpQ6ZsZ4cWwt2lis6eX2zRnhgdfOloDKQj1S/oYEELevc6fc0jpVwtaMYgEAvWD8aERlEWjGGsZhoO8HRmNRUUSUxMR5CUnGFCnGsc26bpEBNU6E5RQnUl+Skl9dk1lQQYCKE2FDhvFsxC+NNM9OU3LEBFrYM7bvMMPoNAr3OfdV5Y09OzIMA33fY6NIMmNOwJnF2lFAE/+ee5Zx6lKoNFmeEicCGNqx4VAdqOuaQGvSNEVnqQO0FnWMhrYVt5NxHAnCkKJ02dRdchzGUYT/OEJT01Q11eHA4VBzcX3NKstml1I/FU+szOeKXQzjvNYwozx3HGXf6PDYAPxkzfvMBydAx71qBxZ41/aPNdsZuyIvzDS+kgwogbbF7Hd0VS0GbBhSFrnIAmNmw9xlUG6rimp/4GK1olyv5KD0IKU1zhi1KKUJlo1T4g6glZZIgeMo68z38US9+WCXrBx049DTdZ2EnDgJhKxcvd7IVEqx3W65u7ub4irtdjtub29FUT45BJff86xyf1jGcSwg/WcXWQ/DMDA4EED77L/u2Xb+L+fWpbGG0YwSnqBMUUUmshPlWG1Oxg5yyGsf+zdxciIMoSgoA8vrIpeMuJu1MNh9GwHVtdC0k4tn30kSi7Ef6YaRoW4Z0poiywlTd4EQRwvFctEFWEjZk54dWfsWNbo+2J4p5qW7rZ6YsMsR1f72WYM+t9H0vIe875rfS4Fn687y2l84PzWMfFI0f05AP440Q08cBiRpQpQLmKbAMfcGcHEeByBIE/KV2zNRPNW+fv2a/MVIlGWSDCwrXLvd2tABx451uL9pgiAkCEOsSzJiu/7oMk3WnMgiYwzWCAAJShjI3t1a4eS9nZlvShRji5MDUUiUplAWsK/gsBPZWlcU6xXFegVpuFixPtzFQN3U1NWBMNCk+Yo8TeXyEiVj1UnohbaqaWoBS+pB4gz3OkS3Leu8kAzsaTonr/Moj5/X6eLvzFJYFm+dj6OwDUYzA4ML40OMLNePI3D6U4S6+/A0xs674yj18dK4WX5vfs84RmiapsRpKjEcm4b9fsd+t0MhlyphGs/JuvytqbXQtfRdgx0lm3hZlrLOFkDApA/4rqn5/VBplLGYXi405qYt9a6PjIQTasbFmG2ahqZpPvgd7c6q3W7HdrvlcDigtebx8ZG7O3E3HsfxWVdrz3L0IS08cPk5jEfXaLq+ZxiM4Lk6II6iD4KfSzk3joau7VBKk2UZWZaTOdDRs4/GEdq2pa4qtNaURSnAxConQgChl1fXxDogDkLSNGWz3sidDzNg0Q6Gynkx+TFuW4nNDlBVFYdDRZ7nFEUp7Yllz/pECUeq0TSW83vTMvEArpOFw9DLcKGcyi+Oh8vl/jkgpHzbnYuOOBCGEvM8DBQhH9jmZ/4gavTo1gzEUcx6vRFAUc3Lvus62rrBjANpGHJRFry4vmBV5oQW0iTi5vqSdZHw9esbynLF5cWGKAyOrgqf66tSChVoIY90HcYncXumP2KriSwM3YUpzHN+sl0dQGFo+57BGFarNWUpMUnbruf+/p77+3uwljTNyfNCwC891zUYy35fsT8caNuOLMvZXFyyWq2IHTOzbkaauqZta9HLHfN/HAd2Rphvm9WKutmwWpWsHBP/9Gw9BR+fK8vPGTuHBzDGuMuOOUqgQezP57wXljX60VQY8VhytYVaO4+C2VbSSx0RntxHeZN3HEVWBEFAlmdsLnKqeuTh4YHHrQCP1y+ueXFzQ55n07gr9/QB2G73vH9/h1KK66trVqsV2TPJYZbrzSB7M3Cs3L4XTyevI398RHyNi3+t08tGx6g/XXTOE2567RpoGqgawqaDqobdXupI+1nv8xepZpjDYvmz3ZM4tA8fZ5kT7cHpalF4OSH6CuOI2u9oq4q+btHWkq82or+EETYQqHe6JEUdOzGejmzXU+92dFWD7XvyKCYpV5AlECXu8kcxp1v8wGq2QNthqpZ2d6Dd7blcXwCXkETYKDjXxaO5OS3v37/np59+YrfbMY4jX331Fa9evRJ7+jMZkHVd891333F7e0vTNKxWK77++msuLi6cC//n1ffw8MD3339PXdf0fc+LFy94/fo1WZZNYOafEtB4Wv4JeASOFW0XD8EbUoHfoCfKtwJl51h/cRyTpjFRIG43UZ45A8fObLG+p+17unGgSGKy1cq5kYVinIQaghXBqlgo6sEEilhrxXWzaenqmr5u6JqGw+OW27dviYOAN998zUUUigH9c+jBR6Cj67oDV5v9gf12y1i3DF1HiCjR2hmxYqAZtL+jt9aBY4sD6ciGlj76m57BGIwOSTYXJOs1oXM/O9bHpS57sqksTLGKdBCQpBlhGBFFoYCYftKMhXFg7PoJcJO5yyDNBFAIQwGKknRqI3phVB5dnyzAxwl4BOViOyk0SgVotYzZ55RAa6eT1tg5xkPgDEhhuI4Sm0x7tdEdp0qjA0UcR8Qol9ggATOi6prD4UDfdyRZymqzFnf+NJniqBEEYETR6boWpZC6ilxADxDjtakYu5a27TjsdmwfH9lvxUDDWFYvbkAJQ/OjXppPZsy9KmZNHCsGc9NQbx9pqmoyKJQVLMSzPpT1bD15sDmu1Y3yuaKcq5kmyTLi1cUM+AUByh/e5/phYXTuCkEYkGYZsVbEeS6Hc9eye3xkGHqyNKXIC9SqlERB4+jGSjsgt6GpG5qmRl9eUq7chYELtOzX0RFY6hvhb8S0JnBt1srHGNOzoTyBrMddOlI6ncJ+d/uev/u7v+Px8ZGmaSYj0/8sDU+tNbvdjru7O373u9/x7bffstlsuL6+piiKCUhc3tx5I9nHKbm4uODy8pI3b97w+vXrZ1fKx8qMXczjMt2y6iW4djqGBhUEFKsVSlmi3Mkbv7+VgOB9OxubYRiSl/4iA9lHZY4qY1aXm3nMtWUCioaRcXfg4f4en9ApiWOKoqSuGhhq9u9vebs/sFlv2GzWXFy/gOvL2e3+qG/nDYBTyYSxmK6jrSqafUXftpOiKyNhUcrO+2l6faosKjemk36LlmPNgFYhKghIVyXR5UbWsGdMn5mrWaEXGWiNU24DTeISyaRx5OSQB8LkM8YaOjMyYEjynPLiUi6LlBL5F4WoMidCFG0bBC45jJXRmdx29NOG+TXj9swyNo8kXlkYCNYwjgbjGMaBDiWepH/WArxRXsahppv8NM+5fvGCNM9kTbQN/eHA/rBnv9/x1Tdf8+L1K7kMM6OsJW8EDB543HNVlmwuNpDFU7voBri/42G3x4YhsdbERUFuMuqqojsc+O7dT7wLQr784guKmxsJLxIKS0dYBjJTRyy8M7q/nVcHZhxpdnu6Q81QNahhRBuJ3xRocRFUSgBnM+kGvhawyix+XcivhTVqlUKFEUEUkW0uYLOaXbVO9LMnE6wsBAF5URBHMXkUy6XZMEJdSVy5piZJElbrFZRrKHLRzbwcHQfaw4662qO1IU1ikjJ3wGO4OOPV2fU/9c+tew3z5fYJS/hTym675e7+nh9++IGffvrpg59VShFFEYfDgf/+3/87f/M3f0NZltzf3zMMA3/zN3/zbIzeZdlsNnz11Ve8ePFCYhd/RlFIptK+7ye2Y6ADtA5mMJVjo/9Uiw0d8Hl9fcXF5QWbzebJuaaUAI/7/YE8y7i8uqQohCnmWXOX6wvWaUG0YOuHRqZxBA5Nz93DAz+8/ZG27dhsLsjznPVmQ99JPMHb2ztub28py5Jf/epX3NzcEMflEYj3EZN5HpuF0N0+PvDu3Tv6vqcbzeR+a44V6A+WeeyUREtzZzfAMAxo4GKz4WK94WK1Jk+j49iWXlh/5DlpkvLq1SuiKCLPcwI9SW1xbe46msMBOwyUecblxZqby0s2ZUSoIdaKLCzRJpczWWlCrQi0OspmrRGDdXQ/7oQVBpGWi1i1lFeLccAsc0Q5gM0er/XT76nFaxhqiiyVEOmO1ag1VHXNu3fveXh4II5jLi83XGw2EpfYtTFEXPQf91v2VQWhJs0zVqs1WZ6jgX1n+fHtW3bbLVVVsSpzrq6uUCrA2JG3P/7IH/7wHd86Qswvf/ln/PN//iviKCLiPOj4sWIRxmrbtty+f8/Dw6OA29a6PagZVYBoCHrWpu1zz5nf1Q54DBjRGDSWoii4urqiLEsBbz7S5tM+lWXBl19+yeXVFTGwHSQfwm63Y7+vyNKMr7/6inW5cntFyoAkotrtt9zd3XJ1dc3N9QvKoiBmXkv+WUsdxReFu5TUgcR/HoY5XPS5hj/ZM8uTUvJBVI87+qpm7DoYjbOhLcoYAmUJEZ0jGA2q7zB9y/79O/rtI5UOKLUm9N4eSjGi6LWTE1bOWBSMCsI4JkhiivUaVi7R3pJ7/cR487qgJ+soGFoef3rLT9//wP7+nsDC119/w+XrN3B5iQpz0ZkUKOcd8NQedLqRNdT7PT/+3R94eH9Ls91xvdnw1TffUFxfwypCucCrH8bPvOel4nD3wE9/+I797QOH+0d++cU3vPylgvUKtS7msNXzpC5mevEQY3ncbvmrv/or/ut//a/84Q9/oO97/t+//Ev+zb/9t7x584bVanVkD32odF3Ht9/+Hf/5P/9//I//8T/44Ycf+Oabb/iP//E/8q/+1b/i5uZmcrt+junonzWOQlL63e9+x3/6T/+J77//noeHB/7dv/t3/D9oDCWkAAAgAElEQVT/4T/wxZdfcnV19cH2/CmU/8uBx3mTPYEotJ4D/Rs7eZ89d50UxzFFXhKFWmLtRfHx58YB07e0fUdnRqI0Jd84193Agyd6Zi1MZXF3M4ohPPQ9fdPSVw1j29LtD2zf3RIHmuvrK0zfi8vl30txANlo6NuW6mHLUDcMTUuEEqPCinEVGAtWxPgksKY+uKFYSnUHOnpx3I+GIQqxWhNECWGcPh0LK8YQXsAt/q6UElemSKEDyShHoMS4QOEzUtL14urYtFhrSdNMXFyTREBKHQgLLjp1zTwel6OuTbc8U2umf7UC7QPNH33GMqWSdfaV9ZR0hQMm3Y2YgukKFdz1fijU7yAUIEQpaDpMfaA6HBiGns1mxXq1kr4FodyEeeHf91TVgbZt0dq5C6epuOkr5LNdR9e29F1H1zS0VcXh8ZH7uzte3rwSoy2Sg2sJpH6eAbUYRGsZzUDfNVSHPfvHB7SV2GGBAx4DBD9QzC40dgHGTPGWjD36fTk3Smt0EKD6FXGUTHtd+SvuU/BxUYcGrFZoFRDoBBUGckgag6lrHh8fGPqeIkvJc8e6Ck8Yff0AjVwc9E1LHIWs1muIIwGl/bAs27J4a+qJ4qmy7U77Y13i6Rr2tQ7Wyq36bs/333/P27dvORwOUxDjZSwSY4wYaGHIfr/n/v6e7777jru7O3788Ud+//vfk2XZxF5ZHqRT/Fz3+6tXr+j7ns1mczpBx7O1OJCP+mhnoMjfnB997mNr0MoNelLkcjGcxLOLtlQGQ8ehqqY9EieJsNSTZN7cYQhEbkRHGLqZpTj0UDcctlsebm/JkoQiLyiSBJWviFVIjKbbHej3kjm7e9iSExIXhWTJDRb7fm762f8fzbK1jP1AXzVUj1uawwFthIUgnzPOQGBSenG/H6tSc4KrGRzQLoeKRmlJdBRoTVSWDsBnAZ4fsx6X7RYWj9vLUUiSiztLnMRuDJ3ZqRzTr2tpx4EBiLKMbLMGf04E7szWIbPJ7Z/kG/NMJCenvC7Z0Eppp1Qu95dfG8qxHUVwK6WdK+4CJF4eHd5typ1ZaZYQBxvCQD4/Ng0Pjw/UtcSfSrMMrq5knXlmPFYujjrJqtk2NfHlJZtNKYC5tVDX4BLPVFVNubkgy1PCKMKgqMKQ7Tiy++knqrom05pQKZIoOgbdZ4z7eHE9MarmN+xo6JqWeren3e6hG9DGECpFrLVzz1sGYJF+nYZkOa13+cBRBwRxTJCkZFl+wkadLYtzxqNfI7ELDyHnoZUkQS5B29D3XFxeCKCWyrmg7CLBT9dxOOzpmgNRoGamexIdyemjsuyKB1Ud81hEs193nH7wqIpzpWlbHh8f+f777/n973//zKdczUrctOq65ttvv+Xt27fs93u6riMMQx4eHj4IPPq9/+rVK8qy/GzQ8ag/Lt7qfLbYyT3PA03BYln44bGAcqFN8jAnCEOieA7c4EGpcTQ0VUW137PZrHlx/YKiyCS7LbLKizQgTBeRZsdZZgVAtT/w07t3/O3f/i9GA3lRkBfXFEUpOvgw8O79Ld/98JY4viPLc6I4Ic8LwvBJMAkZQzhZs8d/8zPdNA13t7fUTUPTDxgFI4rhE1ks9mQ5+TkVFqZi6Ho5k414/KRpRpZGT4FexTlpKX9SjkWbpeKyH4Zy0c+8/ywSA3K33dK3Las847IsWeUZqXNBDxWEoUIkhMzHpPLCRML23pD+LPHrZPKmcONnTySKJ42N7r53HA12dFlzOdYtzmn6GlELsiwXL400IQwDjIHDvuL29j27/Z6iWHF9+YJyVZIoWWe+zmEcedzt2dc1WodkeUG5WgnhATgcDnz//Q9sHx9pu5Yo+oKiWBHHMRbJ1m2Bt+9+4qd371BacX19zXq9JnDMR9/fTy5W2J9t03J3d8+Pb3+cgEex4EJGFczg4xFQ43vmirORwZk0GEIMIQOakUDBxcUFWZpK0laS6fvnZPW5fmRZzoswJMsKFMIie3d7y6E+oDSUZcnLlzdkWTaNPcjlaNXU7HcHHh8fubm+cW3Jp/XkgUovDZZt0q5T2tno/gLdg1jP7Y9TfWfJ2rP9IAkNH3f0dY0a3SWUMahxIFCWGI3GEpoRNfTYrmN43MKhZtBbmigiSRJ0mjAoTYe4lI9YjAKnmjACUZYSZxlFmromGCSes5nsz+Neu02nRE6DgqGn2z6y++lH7n58R2gtN3kJm40DM53NinrGS3GeVWstpunYPzxy//Ytu/d3BFXDy8srinINhSPaLI/D5+pzpJ+mqrj/6R3bn27Z/3THy0TWA0k6O1w+N2ELauZoRppGzsj/9t/+G3/9139N27b88pe/5M//5b/k+vr6qB9PqzoOPdJ1Hff3D/zP//k/+S//5b/w13/91/z2t7/lt7/9Lb/4xS+e1PEhpuI4jnRdx48//shf/dVf8bvf/Y7vvvuOsiz57W9/y/WLF89+90+p/KMGHk8Fmnry10Wxsmk0TkHzbEMHck0KolcaT+rQUSS3Cd6dTSnw2bqUFpZCXVO3Lf04EuUp5cVmZkI9cfNcir3FH5zyGMcxCYowzwnNyF0cwTgQWCYF/+cXe/xfF+DYOPcpr8DqheDVKMnIZUEpl7l5imRzri0iSTzbEWsXN5aLmBtPTqXzm1Ji6YTztejRxDvhORhh8dXCNGvbFtDkZUnmAsz7eBvWWJQdBCx0bl1P18yxoXQqG8X2FIXKj4dV5ljxVEJ/1+7WfzLQJ0PYRUdWXkH3RkoAgUalmZysQSBgVl1x2O+oqwPWGMqyIFq5OKF2cOvMghmxbcN+u6WtaqIoJEmTBVvJPSfQxElMHEcEQKQUY9vweH8nBpln4cxqopvPZ6dqMY9nQCIHvE4uvlrAWuVYLT5DoSeV+d/97ZqPpeYVVQwuNuu8FJjWmVq2eGH8Mb97RgtVU4hoi7VaGFVmhLbhsN/xcHeH6iUGZpolYtDHnjGr8LFN2qaha1pxE44T4ou1M/5Px+m02OMfB3So0c6XIw7gOGU8Lmv0/fbrSms1xf8SFqWaXmE+ZP3cBMFxMo7JTWfhguJBQ39bd6TkK/U0wPIzZXb3Zl42avE3X4dR+GQaogw70EaLXJrNKhkoHSgSHbu15plxLnOwtdiu4/HxkbZpyfJc2I6pc8eeko6NC3docxST1LYt+4cH7u/vebi/p3jzBZvrG2HYxglkGdl6zddhSB5FvPv+B97++C0XRcHN5Vrm1lM1JovQG+jH47aYeveGuGeNo4SgGMeRQCvJiGitxJO0J2sJ5suRhdY3E5Ln+dMIE9+HhpAYf89fUct2tItdJyUINAHhBGjHUcgUl2gR1WvoWnb7HW3XAhBnKbYsUd5N347zx/UU1WtuwClreP7DdG5P2QVBGIwuS7pzcmTaS8pOa9cYCfPh/NWc1ayejoNyoG6gwcVF9QBUVVe8f/+eYegp1yV5WUgIliVz1MLQdrT7PV1TY8aBJI5Ii0LWozFwd8fD+1vacSAII1Zlgbq6FL1BKVaXG1arFaqpef/9D9y9fUvfd/yyKCDPUYFyF2TukWe6wdycs4w06ZKMl5wMEhLCAwPY44ves9Ur9awKo5Se3XK9K7c+nedlvctzRouHiUXO9a6HvqN27o0oWG82JBeOFdJ3E/BvTY9qGupqz9h3xFFEmsSiwyklckC5cDFHg+SNMRkca6wzhNQ8YPaEXbooXos697fPTdq1zLIJTPJ6+d6HvguILrj43gfjSvFEXDu5L/JWzgeJVT2Os3+MMXJWB8svur+FIWRZeqSSDXZeMp2BfVWJS/l+zz8LIy4uNmRZxsL35Ynxs6xvHMWd7Yfv3/KH774jShJ+o39NWa7I4gCbhMBrdrs9URSz2+35/d9+SxjFXF+9IA1jRq+feJGx6MP0qFMVw4teFmceliceV88WO0dLWNA7rbIufK8kftJhQKA0xtgptNTnFqUgjgRstD6yiJqsnqkfbdvx/vY91WFPnmXkRTbFvfTrY7Ag8JbTlJ1IHgfjdDf5tJc5fqgsyAWQX9fGYEcziQVvQ2jtPFa7cQqbYq2dajTIelhSDXzx/UnTCGsjgkCGtak7trtH7h8km/LXX11x8+oFaZZNZoivrx8H7h8eOVQVURxRuGSEcRIyAA+PW7799g9U1YEoCjEG0iwjiwACXr16g7WKh8dH/vZv/xcXV5d88cUXWCBLb87GGjztx9kP+H2v3L60HI0xiO5ttNcN3Ben5eiesLwbVWIPTro6x7F3rRFdUAXhUfsUM6h8JDeUANxJrAnjCK0lw/jDwwPfffcdTd1ysblgcyFnWxgoejf+AdD2I4dDxeFwoD40hIFmVZbE8efBH8YYzDgAxsndWQM7Bev9e+Pi77N0d0FuhhHjLuOVtcRBcAS0WYyzq/Vk30y6vhIvAiEGhJP3iIyfmsYNNTOB5/lR7hi2s/19tGOXEtspAIvnaq0JXHu0u+y1CpcAx+k+Rp8BH33d/lI3INSBMN6DwHmPTkq9669/6+zpx+RpaI1TTSeJOfcVp5edJG972l83V46Ucspk9LGQ/fufevZOeIln1S/sq9Nz92P1Le2so/ZOa+HD7Ms/lfKPFng8t7yeXbwIY0aj0MqKknwWhHi6cKfMu54hiYtLB2IIuRSltu8mf3xrLUmaolxsBIxxjEq92ChuMU5JRpBYRjpAxxGxxWVoVmRNRRBoxtEQLMGIJ+VzlQuvMSmsVoRJTLIqMIkEY9cODNK4GPUTMDG78j197jG3dKmMqdGgg4CwLNBpchwzaamRHdXoBNlJs5+8seDdm1bYe13bEStNXqyJipWLKylGhPKMBGVmANSzoSwLg923Yfm7e9e9ZVBM8SqnrKGuQUqMJn84nF25ygn26T7OC2gt18XaGQDDiDkcqB53jH1HFGhWzqCcAC8fOmAcaNuGw37P2PeSECl37mI+JkgYQBwRIFmwcyyYgTgO0biYa/SAjyd6Tm37UDm3x4BQWC1xWZAh68qD3Nouem+f1mAULhaNnV6BE0NaDj6lNSotUEksSUIC7ZJBMVsL58qUnMa7+GloJWZjcziwfXikzDJWa5etNolkLAPtzkqL6jqqwwHT9QSBxN6S7PYeRPHjMzfi2ECxeNDXOy2aoys93/5zh+1cnyxrRRgGFEXBzc0NURRNzKvlQbZ0LQiCgMPhQFmW7Pd7/vCHP3B1dcUXX3whCT9OAMtT41YpubG/uroStvG59qkTpqOXjVN3pG9zHEovHOxEmfBqiJBxzfEYOlmvjxKl2Cm2jhqNhLLY7Rj7gTwvyAvHLgv8RdEc53fWlOYyDD1VXbM7HHjcbnn58pWAjkki8juOwIIee64Zeff2Bx4f79ht77na7wjiEEyycOEUoWKP1sXp6TafVyoICNJYQigEAXEgSiP+3PIxb933/Hh9VAHCu/SHKBVgtHZhQ9yFyLQM1VSvN7j9GHmdMXCmSagDwtibH8u1L3PSNQ31bi9JfjzbO3XPBNncPoOzNe7CiLl/T2+xphGc4il549VC4JPLqeOPyqvGOkByNKO4XVthkC4fMQF36vjr+PjRfQ9moDocuH3/jhTN5vKStMxdrFHXfzmAsG1Hs98zdC0KJKSBT4oG9Iea2/t7rNYkRYEKA1lv0iHQCQSK1cWa/e073r+9pRt6vvrmG8ngrebwMfOZ9vxaOHJx1powjonLXL41jGgLkdaEgXYAmnVHqAMfF2vv6ExcDuBi8LVSBHFMlKTiLaI5NnDOqjjLeVcClvvnmhHTHKidh4AONcWqgFWBDTXKjGJUG4Pqe8a2odlVDF1HEscit31c02fKKXj7nBb2nHYKz2dcTZKE1WrFzc2NGLALY2g6xxZFa81+v+f9+/dUlcQmvLm54YsvvuDVq1dP45bZp+FKLi4uKMtSYlh/BHg820/lPFM8udZaRmuwdgF3ePVXz2LErxCtZ4civ0KXYFRd92y3Ow51zTCOJFnKxXpDGqcTuOE/O7X8ZJn7OwRrLYEKScKYJI5I4oDEPS8vEpIsB62pu46H7ZbtvmJw2Uv9JaBv/7RNlmNhT6bInXlJkrBeS6KM3DMelcQ7e6rszmV5Xk5QzwLB0YtzUmuJkVkkKXEQHLG9PrnMJsLRuHkgygB103B7f0/dtVzf3FCUJXqRwdxftFvrwEelpuPOmpn5tCAlPW2j09c9CKkcfW3WccQcG8x8+ellgLXK6QfHVfprSA+EhQvG5WBgtzvw+LClrg4EBFxsLri8uCSO4iNWpgHatmG329K2LUmSUBQFSZYTBh43kYUShCFJkpIkKXEkfhQKKIqMy6sLwijkYbdlt9tzqCq6vp/W/pIa8TEtfBbZkgRzVa6mRJXW7fkRhSXAKO8X4b67mIQFNH5kc/rIkJqRwLWwLCX2ZXBk183t8d8+5x2hlKjZgRKQuh9gu93yww8/Yqzh+vqaVVmSxtKe0a0VjTBuJQ55xWgG8U4sc8Lw9JJ/LkuZIm8oBzyOKAPBtJc+XNTJ6/R+EBDmKfE4oiIBYOMgFH1+GAmxBEoRKYhRmL7FNDVq6BirParMCS8vp8R6EYCVvRNYK7JCOZtAK/FIiSLnHRIs2nRiMxy95zS26RCKCMs12fUNnQ3Q1hJdXEKWiceXn6TT6p6MiEyOShKyzYZV16GjmGyzQZelMBR9WLNJrz4dRd+++TVIE7LLCwF7o5joxQW2zFBxeKxSnnb15IDzIUlevnzJr3/9a9I0pe97vvzyS9brtXhLLD77sRKGIavVij/7sz9jt9vx8uVLvvnmG168eCGxYBd1fOw89WSPq6sr/vzP/5wsy/j666/5xS9+wXq1Omrbn3L5Rws8+vJ0Cp+IAACnCAkbJMSdcsYxuvyVmV6ofw5VMkY+F2CnazURwo6K7ZTWrhXgcRgGd3sTzwHJveH6BCx07UC0LquUxB4MQlF2XXDaINAo7eJ1KR9fcSE2jzYvPK/6PjNOoUaHCWUQSCZjd8gLO/S5r55aAh96poshgQEViBHlXZ4nwSD/Oa1FRscyB85WRzbG/CEtdQYtdhgZ2p6+6YjynKwsJXPpku0HSDIAV42Vm1T39uR2cNTVRT/FlWiyZY/6IHUsJJ5yDmfWCITkNRa7rPxUWnL0vhpHbNOye3ik2m0JgTxLJTNslorbuEIMJINj3LVUhwPaWBcUvJwBFa1kPEJ/PFlU3zlCk2ciDWAHJHGFBRXJ/H2eHcLpWlFRTKo1YZKwvrjG3+Ep786NU94nGuPHHniqxug5U6yL5ymZ1ILnsYkPFius076nrRvq/YEyy4QBnWcz6OjAX2XB1A3b+wcwhiIvBPR1cSaPxuWs3W/BjljkZzZsvFrsYz2eG5tl5+RvgZIYoTcvX1KW5RR/yz/8uYNxu91ye3uLVop3797xm9/8hn//7/89q9XqSYzH01d/uMfeeH+mPHWzXiocTO07Ah59QpXQMUyVRikxbhXGuWUHHLvdLkxYpaQOFwe22VcExlCWJXnhZPbyctYzB10MQIvIYk8fsBa6vudQVeybGtrGuQUvlLokQJcZcRqhtGXoW9rDjnydi8BhZI734YvnhyxnfjE6WhFlGVEUUZQl1owT9/rpWvjsRY+nCFkHxKswFGbvpOQda3cfVtPt0WfnPRsCvcvk3NAeKkJjyb27bHziHu8sXuUSu0jVzhgNTlnri7PJzZ91AfbtKK8+JufMAnWHOjjQ0dAPg4ANH2UNzcyPCXUdx8l99+79e758+YqbVy9lnU2AIzPw3A+0VQWDZDqNQhfD2J1bPZa272mGgWgcuW4a8tEzcq2MpR1JkogkS7BmpGsq2roibhp5XoST4769p+jIPFMwB5APophisyErSuz16GI/L7wajsYcd7n6KWvw5NmBk6dhdLyHLJ92Flgj+pkBmprdbst+v8MiF8JpnokxFTn5gU+wNtC1LdV+i2071uWKNMtde4J5zNxQGxyDK1i0ybNN8Kqd1y3dZd9yf7uNPJ/8T/tWliVxHLPZbPjVr351xKaYH3n8/4f7e8ZxnAyiL7/8kr/4i7/g66+/fuJqfbqmrbVEUUSapp+U4fN0dr2cWrIzrJuW06Id0HAqoVm8t5R3MlNQNRW3d7f0/UDmkv+U6xVBFC53/BQ3EDsvRaXc3ayGzcUF33z1lXgBRCFFXoARMo8FlwPPMIxyZsRpIknVfFIZNatSy2Ga2m7t2XlVSgkbLo6nRB8GNTP/TsZcnci087tInXxW9qYONFEQEvskXme/9enF67vWuCN0gENV8bDdMgaa9WZNuVoTOIDIM6YFr1BHQKzgGHqeeDfRS1acl+hmNBMTV7yf5rb7VGJGy4kZBAK2DcY75MpFk0Hi4Tnt4EjjXrI4Abqu5+7uPXd3d1hrKfKMzXpNWZQSwpvZfRegqmr2VcU4jmR5TpZJRlvt2ra5uOBXv/rn9F1HEGgur64m4HNEYnJ2XYdViqzIyPKMxLl+n86Rb/+H5tCvkTgOCUKRITcvb05sJzUlmXm6Rs9UeuYpCiGooCAMJDP3qXw6bTtwBNz649mXcYB+GNnv9vz0/ieuX7zg1cuXFHkxuUtHSjSHCGj7jvuHO/p+kBANeU6RlwThnM18CWFx8ip/NxgzYEeLRhOowJGVjtt92pfz/DNLkCZcvHgBl5dyqYXse29bz/OgRIA0NdQHxlBz1zZkN6+IvvkKUheTXwVEWkls61Nh4wlTEzlqcZsDH5jMxQ5SQJKzfv2GqFjz4osKrGW92cBqJd47gYuvc9buOKnXWqIs4+arr1lfv6BrW/I4ZX25EY+iMHRC4Zw0O9HhlIYAVleXBHEsuS/qlquLS/H2CAO5NfCL6XS2zpDJkiThX//rf82LFy+4u7uj73t+85vf8ObNGwlJ9qHendQXRRFffvklf/mXf8lf/MVfcHd3R5Zl/OIXv+Dy8nKylcZR+LHnvMD87z6p269//WuyLOPh4YHD4cBXX33F6zdvniVx/KmVf/TA49OyXHiL/ysBHSMVCNPB4lLG23njnixaO2mPzMxHF0Nr2jDGoAbJOlhVFdZa4iQhSVOJIeQX2MS0EaNHOYbDpNBapzRM9ELn6tdbR6Zz+ce8a6EPhL9k5h2t5Q8ZSSdGgvdBiWLC6P8Aoj41Z3k0MAmS+dDwsfHUKTbBpLBZ6NuOrpGMcUprkrIQENhnT/bXq9YIoDeMktk6nBko022p8uakmbN5Kc/wAqUDp8guVRmf6dRObmI+gYFnhx1FWFfisL2gER0PjuuX6noO2x3t4UAUaAoPZjm3UKtBaSUaYdvSNDVd25LpiLIoSItMBLRY7jLv2vfZQKCwygGODFj3Kj/ORe9ZbsaHJne5DxHX5SBELiQ/pa7PVY+fqFE/r7pJG1IwjJi6Zqgb+q5DhwH52iX00cu5k3XVNg2H7Q6NEmZDvmTOeHDjuYYI8GjMIMoQo2MhRtP3nho0p/v9SMMUvSKO5ULkE0tZlkRRxNX1NWVZcn19zRdffPHRmI1/fDlWrLwLBKNzQZi6uszjqXhqPshnpvesvwBBgIle5ER9OJDrkDTNJAvugu0IyF7uB2GvBRoVhNhAAoNLoquUvCgpNhviJF0oOr6hRvabttMFEkg2+0kQeIvOfVf6JWq2cgDHk35pJW6gUUiQfaDfT5bZp4CQavG/RX+OsiSer/fIUHay1k5uS/68WjjxmhGGga6uaXZ7AhRFXki8Te+KvKTD9C6Dd5zMF3sTNW9xhkxbwLXbGAlB4S6YtAeEZshj0W6LXbiV+4QpwfIxrup5qE/NGQVjD21D67LlhmFAebGedYNpqGT+hXG3h2EgjkKSxMUYdAZFlKRkqzWqb1FRJIxHzEKJH8GOKGVF1CN9Nj4L5pRtemntT/DAh0WlVqg4IpiYmv+by4l68NE/2hGGnsNhT33Yo7UiyVJUlkDqs7O7WNLuzOzrmq5uiI0hSzOSfJFURjudzcp6sJanlqcVhixAGIXoKUP3Ulk51XH8n54aTUEQuMzOn25wrFYrXr16xdu3b1mv17x8+ZIvv/ySm5ubT65DurLQfc8Ymqeg41RccpggiJzau3DbhhlQclUugabnTjEW3zscKm5v7+iHnjTPKIqCMs+JguAI3+xGGPoBMwoEGScRUejq1FAUBS9fviROUzSKIktRBqyGdoTtbs/+cMBgyPKMF9c3XFxeokMBOK162o8zo3jSAylJknzUwP0/Ws43W35Vs/l0OBzY7Q/sm4a0LChWa9KyQOvZH8ogS3scDEPXk0YhaSxyXavp6uNInT/ixBvL0A8oII0ioiDw9+XT5wLXrjAMSNOEoshoh266MFKKJ4zHZfdOWXj9MPD4uGO7e0QpRVEWrFcleZYfx6C0MPSGqqqo9gestWw2F6w2a0IHOBhkrX399deMzltuVZbADF5Wdc39wwMAr25e8eLlCy4vL0hO9v3U1/NdefJZgFArwiwhz/4E15ub+GV/hmGkrioO1YH97sCrl6+4vrqiKIqjpE7+tXLyYBxHVusVZVlKAkS/TxeP8ifdkvshZp1l6EfGYZAEsnFM6EJjPSvnnrRlsYp1gE4DPrk4O05tHxnzTDJJrzfizRYnH7EXPrEsdagnPQB0iC43FGlBeins2DCKFknV+CDz/+hRKFSckF1EJOu1I1AFqFhA1LPPf1KO9dcgzymTFGtGzGiI4mT2hvGfe04/WKqwCMD35s0brq+vaVwS2svLyyfn7KcwHrXWrFay7r766isOhwMAeZ4fMRQ/dnG9fNbNzQ2r1Yq2bem6jjSVC7Z/crX+kyznRMRs4Ijxrl06csvQ9YSDuNpMMQKDUAAqBz5JzINgrtLYKWuwDbTclHu2xv5ApDSbsiRLU7mx98xEBzx2TUXXCisyDCLiNBO22iQBF8qwu64dMRhtZ9njDbGJ9fgphuT5sZqd+s7t2nPAxh8p/D5U1KId9uRt/zqBkQp1GmQHoOtpDnu6wwE79JPiLhlUxYwf9usAACAASURBVAhDBxMTpakbqroW14gLF5jXBRa2ng2rfHsc4Ku0YzxawiAk8wxOb+86VoTFCRMf4yIIGEdD1/UCDk7nlJqYW8fFn8quf2agriURRp4kwpqJwgkomWZmHBmrA21dY/qBMEuFdeYp7ko5fxnj1pOa1tTo4+l4w9TH01OL6flZE3tu/ZyqEP9Q5alB90nf8UxirWHo2O8PdG2HUoo4Scg9i9Y6a0WBTwXcNQ3VbkcRpxSrkiw+Zf15IPdM86zUI3H7egZjCMKQcEqOwkf6M6taUvXPG99xHKcfnzhmHMcpAc3/luKM2CiOBfg1/TwnFpG/WmSAVp4h6JWRRQQeK2C/sBWVHAv9wNA0VLs9kWMXiJv1cjM5l+Ou4uH+kSRLyFYruUhAE8Qpq8tLCCOK1ZqLi0tRFkMHEivXhq5jrCr6oUdpRRSHJBMD9qn8VoufcyrnUnR4mXh2b52d+s9bD55j4yP3ySWYf/DxuTEr4AvD0bvJuTNVMoJrJrOrH6Dt6Q4V9W7PRV6Qr0oByX0ICWNEdhnLcKioh45yvUaFOZML0PREceucL3OY6hjHEWssOgyI40R8Oj1LTS/a72L1hFE0uRmZid4+9WzuuwwMs3njSj9QVRWjGQmTiCiJBXCIfIIeV6cBxpG2qjlst4zjKK6+eS7JjkKR29HlJW/imMHKeGTr9TGjDqmn63pad/EWRPHCgPCMf7VwEz+/Vj6kx//pFrcWBLHAYqjriqqpSaJQXNwjDzrKj9LuPKxr2rpmHAaCQEJTkGdi3CwvE6a19nR0zDDQ9z3KQjIluVl+n3njTnrFXPXfy1Ho3SkXwOHnxPj7rHiAdlZdFaK+BgGkSSyGv5U9N5hB9o8r3svOqFnGwTH4MzK79YLf2XCoDtze39IPA2mSkqTiuhqcfG5f11S7PX0veuDNzUsy1HQqJGlEGF5QFKXocmGAtUKm3+9rfvj+B3766R1mhMura/7sV7/kiy+/JIqCo9invlvH8d6WkMdisP7BdZ2/p7JYmr5/dnEohUA1Gu4ft2y3W4ZxJI4iyrIgS7MnEnIYoNrteXx44GK94tWLy3kbqFkN9Z8//m5P2zYEQcB6tSJNkmnsPaPQn/phrFmt1lxcXPG421E3LcbY6Ug/9YE49wrCsKyqirquiYKIMi9ZrVbkeXo0g8ZA27VUVcV2vycOI25evODy8pLQgdwDcnf06uY4WZNLA4k18PCw5dtvv8Vaxa/+xa/4Z//sF7x6/YbEXfI8sczcIH1op/4prbZzlqXXAPRysQB9P7Dd7mjqGqwlTRI2mzWroiBlpkIYJBDUbrfn3bt3WGu4urhks9lQljlRuHQ5nsuRw5l7NaOl6xq6rhVXbQdcLr//Iev4fI8/d/TV1LfO2x/ThfTPqG9pci07+6FqnOegCoIpXv6U9PSTHq/cnp4MYMFPJobjZ9oN/uLX2knH0UqYxGdZl88Ahediz0dRRBiGU4b6MPzj4DKl1JP6luGoTsNa+e+cK17/KIrij2rT/6nyfxnw6Mv5IyUIAoIwkhgUFoa+Jxwnh4zZwGGc9vq0geqK/lChTY81EKwKVJ6LllIPDIcD7XZPqgPSvCAKXfQO72JsmQyLum5FUXI3ItZTsBe7e16OEuHNKgUaTMDMpjsVLJ8sl5Yffu4Yfm5Mj1v391WOm++Ucli4LNtpDG3bYZqOoW2JAo0uHQCkFXQ19e6Rpj4QKEsahejYZbBWC0He9TSHitrFgkwnppISw9h4dpQ30qy3ZSbWzDgagjiUOEChd/OZpbxkUA6w2hDGsbBgR8vgk7ZMHX7GmF2OihIOYjP2tONAGRdEnu3oYzZ6Gn/bUe/2dFVFiCKNYrIkFSPbsT5lfStpxxRnVGGsizM0ObAsDfo/dt6XJ+AfW9fnmMQ/47ke2HdakR1H2q6hMz1GWcI4ROXOZcAFPlZWi59I29FVNc1+z/pFznq9RqX+1lLG3ceifDLl/vdBgMdhGCT7dBjKbaFeWFcf6Mrc489Tl5ZlmUzm9OfvE3g8m9V6/iNhLIBNXVUMvVPX1UKuegABmM1BuVgYm5ahaiQndZyg3D6w/YA6VPT7GjsMaJRk7FwqSApZA91AVzU0VYUONBmyrwEII8IgZB3GZMWKJEmwcSqJbDywYAeoG3b3D4z9IIZylhMWhYvju/Abw7mvAkrSu/DROTuSI4vimeFPPve55WPmzfFv6vSN0cA40tcVbV2TBJo4DCGLRX51HdQ1/b6ir2qi1YZ1uVrc9Ds+lKurqVvqtiHNCqKlcnx8gpy0RIGP1WhcfKUocsll/L5ctF8rgigiiGPCOMZqTT8MJOO42HtL0NGDqWZugFIMjNR9x2CNxGFya5lgeevv0I6mo6kq6v2BSCGgY5o4VyvXl1UpzHUPsIXBQqFXIn+agd2+pmo6oiQnXW2Is3LhLiXfUcvvqadZev/oU/7nopYfNIw+tQL5oDGGzrnKF1kmGVcDr3ct7JRhoDkcaA4VylqiKBa2UTzL7WUDvCfEUXssjOPA0HcAJElMHEVPfXFPm/qJ4/SxbNTLz5378eVJnMdFHZ+TgVM+wJOzS7t/wiggiWKUksyfwzhM+8urHMYwuc2OrqpDbdgdDvR9Rz8MrFYripXEyxuAx/2e9/cPdGYgzlOyIiPJU38XNQOU+4r7h0eUGUnT3DEu1bRLo0B+kiQUJ5FmpKkr2r7j/f093//wI7vDgdVmzZvXr3n96jWbi5JAzc9RzMDcNP7Yk+k+hdJOB/D8Xz51+yxF0ZP3f+4m1sJQbJqWqmmo6wYVBJSrDXmekASSUOXu/p6H7Q4FZGlKmQvpwmuOGmhGYanud3v2+x1ZEmOsu99T50dkCQz1XU9d12itKMuCOI7PusAqJHJQmiTkuejzbdtMLo5LlWnB8Z5+P6rPGLquo+96CZ0VxaRxTOxNRVyMSAtV1bDfHzgcKqL1mvV6w6ooCVx8R9wa91wqC1QW9vtWEhB2HW/fvuX29p6syPjlq1/KWnPxwOf0a59fnltDT5fFzxHWz6/dE7F4tiyl0HJ32HGkbVuGYUQpRRonFEUpGZ4Xn5UMzxIS6O7hjkAFwnjMc7IsIVTnn/GkWDB2ZBylpVEUkcYxOvhj4ZMPjemZGVCW0Zlwwgsx7he3G54EjP2cZixsyg8lsnJ6iyY4bv5nPVZ2sFL6ZzX3bI2uos+NN3z6fWBi8H8oJMDPLcs6zyXt/JTyc+Iq/6mV/0uBR18m1QC0IoxjdBQRBMIyGYdBjCKveAehxI7qOjEcdTDFZHh4+463f/iWRCviMOSLL7+U+AvtCHVF97inedhSXF2yzvOZVWdmQ8SOI/2hoTlUZP8/e+/ZJDmSnWs+7tAiECpVie6Z7hleksu7X/j/f8La7potl8a993JEixIpQiGghe8HBxCIyMgSXdU9Xc05ZpmhAIfL4+e8foR1OA0XQmhri7HvRmdRBzrSWysBY8wzDpkjf8phyNBDjwSkd30+Q++75APqdcrfdHN6wE0NPBeAoiC+e2C/WrNfr/E9l5dfv9Bm6bYBWcp+taZI9ziOhe/ZXYIWur7tEhPkJfvNjqZttYIptTXNoMRK3cNHcTKkMcSXq6uGumqRodklbbFP4joelBUhBK7vEkYRdZLqk/8hGc1hnB932kgEE9o6oEZRdy6WRp+V1eiixXSuhGQp++22c8k28V1XB+vvMrjq3jW6TIiHevbxXhQGSkjUECNP/2n9un2k5H88nd77sRP4p2q0H0PHoEKjdLy3VmmXMcM0u5iNhg630M+TsoI0JUt0QgPjUugEQLaNMo7nxLF01s+bDtRqdSbQuqqhVZimpY/NzwTufurQ4KCQjJOVHK75kAxr71NiP8Q65kMzw50lKbEsG8t2SISgaWq9Zhn11xDmoI+8JKCqyPYJ8d0D9z/8iI3gxdUN3mIJsykiK0keNuT7PbZh4jmOPiwyzEOMOSEgL1C7mCxNabvkDhh6zQ3AQ6swXBPD9Ucumeh6CAPVtjT7hPvbW5qqZjKJCCYTnbHZ1grSAGR0952GBz9H7101HyL9fyS9u0aHRx1d0TSQF2xe33L3+hWB4+J7NlfPn6GuLhF5hdrFFGlKU5S4lsU0nHTWiHKwbqVuoNBxOYs8p65rrEf+rt3Tj3hXz2sFjeoyVAvRWQH2PJGTPCcGwrawHEe7fAtJXhSEVXkot+Pd2kmhgzvEqA4IWqEPmpQAaUoMS8eTQ2hX/UHDLirIUoo0pchTvMmEcDI5JFjp3aQcu5vvo8PSPnYyem8q05yH1YbtLiWazFheXWNNppp/CAPVZRseWyB09u/AQSH/Jbjs56UxAqZb0HQHfNI2sLx+LAGlOgiqG8eiJN1uyfYJhtThE4TdWSQr0SFko2wW8HgZKJ3NtaoqQOHY2qICKY7ktgNQzXEnv4dNfqgy0ip19rBIV/HDrB8/iGeP3py72rIsgkmIYRjkWU5VaEB2vIOdQqAKePX2Df/5n38iSVPyIucf//Ef+f2332LYJnVTs4t3bLYbhJREQYAb+HgmA+Ao6dyA45jdZo3vBfi+PE6MPqq/AupKg2Pr9Zq393fcr1Y8bDbILn7XixcvmEQRtjjc37/pHY8kPQ85SLHvX0XnubhSH7n+3nHxT9Vhq7rm7v6eV69f8/2rV7iuxx//4R949uwl9sSmrGvuHx7Y7raY0iD0A6IgwLOd4djaAKqyZfWwoszSLjnMwYAdhuV41A19zzVoi8IkTXAcB8/3sWzzqIdPmy+65Hht21JVOsN1o0ZgN8OuMDwDdXB06MvU3h51h8Ucd2LfNhTs93s2ux1JkhKFE7wueUy/AymlXbJzoZ/XtrBeayu99XrNerMm3u3I84LL62t+9/vfsbhYnk3C8rnouLt/KqfXpXzM3Ufj1O19Cl2ZfivsQzJIITA7yzTPcRCGPAKI8xrSNGG73bDdxMyiCa7t6OQ9Jzzp3BLo55AG+loMKTFNC8s0kObnB6XeSQpE24fi6nNLHHCA3vnq/PnF6MOpZb16dDHvBR+HW8b76cfSL9h3H0m9ocPp+Pb75KdaPp4aZXxMVusPvebXTn8HHgG9qiXCNrFsE9vRfvdVnms3L7QQLnqX654TStkBTTXJZsvt9z8QuY6OrTe/0IpQksEmRpQVrpA4wsBGaoZRNx3j0GWIIoOqwhQS2zIRlo0yjM7V4GTX6+tNx386ttx0mW6HFg5C7KdO1p9yZvUZHvtEkWdZnlK0Rcl+9cD29Wv26zVyGsHVQluGVAqyFNGUGEIhTIlp9OJoZ2BfV4iqIU9T8izHsm18x8WyrG7DOyiNvSXVIExKoce0rHTsoLrBMCw8Pxyyjh5qfczYTcvB9wO2aUaeF9RVgVnXeux6d0JxrtVqqHufedxwLCqlrR/9AdxWGnQsSupdTLxaUyQpjmkSeF7nMnZqvdE9q9O4G0SX6a4Xq3rLrxHQ+L4N6730lDD+S6i576j46UY+bLzajVq7x1ra8tCQGpRuOstV1b1vGtjFlPcPpPGOti6xe1d/y0IIHY9Ondall7gG/5kWqoq6LDsTfUODJANwrB7fj3pn8057/efe3D5X+UoKLNvGdh2QUDfaCtRoupik8rwjeVPXJHHM9u6ehx9fEwiDSzvA8wJwPMhL6ixHVA2eaWObXRD3XkhoWx2fL0nZ7WKqtsG2HRzT0pnRx2tCqg4MOkNFhUhi0nivD5w8n/l8SbRcIPxAW0r3LvcjyfJD3eOfWjXH9//UNfsYyFYfM64dyCGqmjbLSVdrHn74ERXNsGYTmOc6dmbaxXZsWnzHxjLMLkEQBw28bSHNqNJUu7HaDrY0OZ9A6LzKUVYFVdUgpYll2UjTGlyYH1VdSoRlY9kuluuCgjQraKtK161LNAd03grtmXIalCEwHBPZZQNvhY4BaLYdv+i18GRPsVqRbGOqosRcmPiTUFuEDmteaUB8yIUqQHSHTa2CqiJf79isN5RVi+MGLC6uWVw/A38Chg10yaQ64HG0Mx6N9vho6RcVgz/5YSdz1pAYjo1hW7SqpaorbRXaNIfxKkuI98SrDXmSYJqdF4PnHVzxT2isAI/5RtPUFHmOidIgydhadQAdz1b1s9H7DoueoicTQnzEmu+bJwHX8ZjNZlimRZplFGU5JIfoE2sMIXfpXCdbeHhY8b/+9CeyIqeqGy5vbnjeVNT7nCTPyPIC1YFL0jDQKS401QrqoiFJYvI8Q7XaAi7wXeQIZIeRqzRaxJFdRlHLcnBdjyBsBtmnyEvieI8QE1x7BJ52YlvLwW386Z6Bd11xtEeLkTj4IfTEsz+KXcOgkAugqituH+7583ff8ee//IXpdMHls2dERY50bHbJniTPaJoWyzCxDFPvO10HV0CBBua22y2mgMD3zmZmPe2dg9QLRVGwj2M8z2M6nR7Fxuzv6+cVgGUZ2jpOSlqlqOuGulYY1jFINnaXPyUptKeQbTmkddaFvWlou/OfBiiB9WbD69dveHjQSWhs18X3g6GOimORrVWH1AJS6vnm2A6V61F3sWHj/R4vCAg971ESnN8EneJkJ42zOndVx3EwDH1wW1UVbV3TYFGj+z/e7ri9v2O1WpMmKReLBfPpFM91OJXGngJwW6AoSvI8R0jwXAfX60M3fI5eP7eI38EllKRtx/x61EFnQcVHHz4TnexVvzL6VKvAz7HX/Zx0atzxVDK5Xyv9FwQenxgUKcE0sRwX2/NACNI0ZVaVI4WvUygsU1u+CNEFXKhI05TNZoMZTXBsm7osMYsKdjHbhxUIQTSfI02DrCqZV7UGqeh2mt2WbZoiTYvJxMf2PR1MdpyeXnXya2cBp+MDdolJ6E+xD2DHkAAFRoDZz9GHY7Dj80/6D2WbCu2ys16v2Tw80BYFbRjoEppaW4zkBbbn4ZYBSZLQ9P3ZKg0i5xV1nJAkBW3TdBlhJ9oapD/+GrxZD6rXYB3RKlRZUlVaEDEtS8f6s04C7gsOEkcLpmPjeC5105Dv9yRJwjTLdJZYy+xikvUi+7jF7RCPUZom3mRCmaXkVcFuH7PIUyg6S7iyhHjLdrVic/9AleSEboDn+zrunNsJQ93cEd0zWkC2Pfapx1ibyYsR6PipY/8knPwz0emzPuSZavTaAXlKoVSNYRr4YYjre5imSVVVqHiLEFMdF7CqoCjJ7+94890PJNutPrE1Td3vw/F+70h7ZsYrBtCxLAqKokQIA8txdEIH0zi4Wh+ZRLzvYODjwKyepJRP/g3F/+wApuzWjocwDOqqpKornKoCaes2DWELeh5lopRiH8ds1muyJMG2Xc07q0ZnECxzFEq7v7oOwjQomxqr6TK4lzns9+x2MbvdFtcPmC4ibN/XoPNg+ftuUrsd+9vX7LcxAIuLJctnzyCaoVyHYVTEaJ4qMXxUo/8fQz+XzPixZQql+WWWZiRxTLzZMHV87N56PC0gSUmSFNO2mSyWNFISpxmTqouF2x2oJOs1SZrihSHRZIIRBnqfVt3hyxGLOuFZSpEmGXmeY7k2bhAerB07V1htFKlQdBbMhjGE0qjzjCRLKMoSr4+p2B427SEh+fB8zUNM0yQIQ6wuQ3Bd12RZzsQrtVzQ6hiX+WrFmx9esV9vqKsKy7Twgw54fETH80GDuwV5HPP6x1fsHh6wHYdovuDm+XOMxYW2zu61vO61V+6fGl9x+sWvmk54Nxo0siwbP/ApXJe8yIl3Oy6LQve9ENrUbRsT3z+wW63Js5SJ5+EFwWHP7DOO914KjNdXL7QBCNpGx2EODZNoEurYyuPFfB4T/7w9MQTle8w3+vhW5+in8HJ18r5RB8sxz3O5XC4p6oY0TSjy/PjwC4YkIQ3dmW6t2O52vH37FmEY2I6NUtoSZbPbsVqvaNuW2WxGVZY0SpHnOfuywUSg6obV/R27zYa6rgnDkPlizmw2RxoaDOufPe4F24Jp5OP7PheXV8RpysN2y5vbW7774Qdu7x+I93tevHjOi5trbLuLT6dGot5xb3Keb59+94QC/PRPT1//CdSDjk3bIKWBIQRlXXF3f8fr1694WK2wbAehFEWRk7xOuV+tEULguF08z7ohTzOKPMdzXeoSdruY9cMD6X7PfBoxn88JgmBwsR52ve5Ne1In0MDjdrvj5tkzlssFnusOvOtUWgaduCcMAh3Dl1GMSOEhTR6BUv1IjQFpaRiE0YTJZMI+SchyHVu9qBSmLSjKls12y1//+h3/3//8n7x9e4tt28yjKWEYYFniyJ3bkPq4SApQBkwmIb7ncXNzTVPX3N7d8ur1a+7Xa77/P37gD//wLVIIomBC6H3+hJ/i0aefAlyJ4f/pun6q9H5eH409x2PgeQ5LoeeJISV5kbNer4miCBV52gq2aHl7d8d//ul/cXd3S1nm+H7A1dXNEGPvQ6hpYb9P2e12APhBSBhMCDwXw/x84YTeT7qHWqBRgnYw+uj1sTMrXDz54eTr0W8fooINukU3SuLkt5Oijh53JuzHu37/NdHnCh/VexcIIYa/j6Evqc+eov+CwOMpdYKhFCjbwvJcvDBAlSW7NOEqz3WcR6NTYNHZhwclXQqwDEzXwQ1DTM8HyyJtSqIkpmgKKlPiL+Z4s4giz2mUomoqrCzWikXdsC9y6rbBdyd4k4lO9HE60TvuKzpF5vAlh8APZ3wwPovB43vpZwYY3vlZMz+hAFNi2g6mH9BaNq1tkxUFniEp85zKMAgvrhCeD9sNOB5VWmHJPdgVqqpJ0xylBJ7va9DQ93SyINU+bmXPgPtOrmvKLNcWj0JbIA4xJp8Ck2ixLQvP9zENk7ptKKsSihwMHx04pt+Ne6ihj+PZfRYGlmMzXywwmpr9dkPdtORJgmsaGtiqKqp4TxEn1HkBSul4cq6nlWwpRnqnGOaSzqYu6JxHh4QHstfhvhztc0RP1PlJ+eqcQtAJVkqBbeFNJszmcy6urzBMg+1mx7Q/AKhrnUhiuyPebKnrGttxsFync5HuDjKOMi+rkcaiO1u1ClHpmEZ5lmOaNrZj4fYJkrqAWDpRx0kzz/KBnz52Y0uZn7qJfjJJgXBtLM9FWCZtriiKgjDPwZQoy0C06HUzDJmO5WVaFrbvY0ch0rAoJOR1jptp4cCeTogAbAvLNCkAs8hw4i1N2xAnCWVVYtg2nu9hBwF0ANJxt/YL5fClKipUlrLfrNnvthiGZHFxwexiCctFd+h0KnqfvtfwkPrJisHfkAbBFYRhYDgWtuvi+AGm66Ask6IsceIdFWCFIRPLxpvOAEjaGjfLsOIY6oqiqiiqAqTE8TzMMOgS8/TPGwFP4oz1aVWTpanOEOh5BJNAr6fO4rGP4TuMolBgaNDbCwLSptaKZ17iddnNh3YK9IHNmaVhmJrvL2Yz9tfXWI5DkqVYiY1rmp18oK1zs/2euii1RafjYk1CsFyGOJfqdLGjwzxUFeluR7xak6cJUggW8xnL2RxjNgNfyxpKtfqgUzHwnXOi9vEM/BJp2LjAtphNZ1CUxA8r6qYmTRLtumeaOsHUZkuy25ElCW2jsGwXp7eMNrWVaJ8wri9eiO7wrp/nXTyuqiwpixyCCX4YIF1ntLSfRKn6Cz5vN4yeI0fvP5s1+unnXlwZgEefi4sLbtdrdtuYJEupOIB+YvTX74qGFASex2I+B6FjZqm6Id7syJI9VVmxXCyIJiGr1Yos02EX7t7eYkoD0bbE8Y6iqpgEIZNwwmQS4jhiOH/um1+Puwptb2CZIFwTfxLhhyFVW/Pn779j/bChqSqUUszCCe7MxxKj8LIcluen9O7fat0JOMQx75iaEALXsQnDgOk0wvEcqqoijmPyvKCpa64vL3AsC89yCIKALN6zeXiAZk5dVcTxjrrSAHAUaVDHc6wj1ae3DRjeiy7xSKMd0qqqom5qHMdhNp09ygbez8MeOLQsLS95roNpGOR5wX63wzQtPNMc5lxfBdl1wBj0tG2H68sL8lxb6pqGyW63w7m/xXQcqqpmu4tZrVbc3d+RZRmTSch0NtUWj+YBTOtB1mr02bHBcAx0UBUHKW8QUrCJd7x6/RrTtfA8j6+evyD0rj55bH9uet8z3gdOjsm0wJc2l5eXfPvtt/iez2az6ZL7+JR1TVWVbDYbNpstaZrTqpYg8LlYznEc75FV81PUtrBPYrbbGJCEXUIPz/Mx5KlU91PoA+/u9hEldFx5JdHM5SOiWr1PQvygw4yjQk4kgVPc4eSrLxEg+3moc41/oj8+xVrzS+nj/4LA4zGraFGoRmcpFNLGDnz8yYT9ek0c79inKbOqGmE+HeTYZz82JZg+i6tLXmS/x0ZnJ0rrinZ1jyElwXKmrcpsi/Thgc12S9yU2KsH6qahaRWGZelYNNEEosmx0jQi0UXmFkfu1ArVgY5iQI765qozHOULVFSfpA5x7IbVcl2WN9c4jkOeJEgU93GMk+cYhsTzPOaXl0RlibteUZYld5sd5j7FtGyUYaKkxPZDgnCCEQRa2oSjeIcAg1usUp0uK2iKkjRNtLunoWNBMQlH43kKQrQoIbC6LMiu52FZNm3TagtFX2csHdzfujLazn3O6K1xpADfY351iW+Z3BuSqsjZJwlVVWBKgWpa6qKk6dz5DcfC9wOswZqzRZnabbhPhNDWDVIKEAaGlAPwKNp2sKjV4P1nGsuhj35p6ttwRnk/R8Oa6vrKtsEwWV5do1RLkWdsNiuyIiWMd1iGiS1Niiyn6bKp+0Gg43967jDHdIa4cT+IgzLaKkTbQFWSJjqjouu6+OEUOwzBcQZr1aE975ImPlFqarsswOeSEQyP+Ezxwt5xN9g2tudi2A5KCLI8p97HmLalE+70wYJ0hQCFYRgsLy5whIFrW6iiopKwLTLSpsL3ffzrS/zLC+ZJQpZm7POUbB9jlDm1gKZt8T2f5cUcxw9QnocwTiTBIWFVZwHZagvldLtid3dLnSQ0ZcHVfIo/X0CfrwtbOAAAIABJREFUCV0ATdXF2zN6ze9Q9tHYfhm8/Fix6D4Jzbdc22J5c01ZFISugzIM4iwjK0uCMGD6fEYfsmCzXrPb71nt95hVSVU3KASu7xNFgQaAe0vAVmfGHvj0+JBoqJXQ1shpRl1XhGHAZDrt1qUFbXOor1IdyKTH2XBsgiikLnJ2e70mZ2mmlQJDPt52T8fLtECaXF9f4whJkSSkaQpCEHSJo0TTkCUZolWYnZW063kQRPrQoreufLTWFbQNdZGxuX9gt1phSYPZcsnN9RUimnYWodpqVMeQPrj2K4wD+zk/iF8QjYF7dXi1LMLlBZ5hYLQ6U20cx5R1hW2YqKbV2dSThKbSiSRsx8V2vYHna4+DcS9pwHHISA7a46LUlupVXSFMief7iMFi9UNMTT4PnQazF0IgjSdCQfyM5HkuFxcXbOI96+2GeBdTlgpha7jF5Lg3zC7Zy1cvXlBVFfturTR1zdvXrxGmQeC6XF5dMgkn/Pkvf+HVq1eUec73332vXbilxLUtgiDk8vKC+WyqzxZgmBKq1ZaZXc4RDPM4Z5sB2MAskCyXS2ZRxHa94a8//IAQghfPbgg9F9uTGHB2SAV8EWx7DBQLtJzZb9e2bfHi5QuEYTCdzwBBmqfU65a2hUk05ebmmU6OcnXLPt6z224p8px4u0NKg7atmYYBi+srgsDFdy0MYxRfsY9s1QPCI6ylqhT7RMvatmXj+z6TaIJt24M1YV/OSALAMIwuwYyP5/okScLdwwNhFGFjPkrW0g9fv0IU4DqSFy9eYnaJcLa7DQ8PK+I0xXE8hKldYrOioMgLpJTMZjPmsxle4GB35fQu+I0OTzw41J2eXYYTD9N+yfevXlFVJbe3t0jAsz1e3Fx9Waz4CTonyZxK44pu/A14+eIFQgju7u+5u7/HMAyKIcayIo7jwbBDIPB9n9l8jm2bVLwf/BCAUi3Jfs9ut9MJgPyQIAhwXWOYWx9HHyJ0n/ldtdSqpUF2mIMxeGKcnmmeszc49/7o21PQ8CmZvJdDz/08yKiHCry3pT8TUPZrBuDGSXXOgYwfWvdfcxvfR79p4PFpUe6wNFuAEahjOjbhbEqeJmQPBWmRMy3zzrVKd5fqYpyM3ekm8xnP2q8QTaWzunauqrbraPDJ1xZJvoTGsQcvW9m2SCFwHE9nSRzcLt8xqU44dO8eo1RfL3X4O7rpzM2/YvqgE5rhg/5k2DbhcoHtupR5TlPViLbFNCSOY+P6PmISYNYNM9vRrh9ZjkQiTRNpWcgOBDYCXysXTz5fcBTzESiLkn28BxThJOwyX9rvlDQFgGniuC6e7+G4LlVdkez3BGHAID6NrITkcGNHbVe26+BEEcu2ocwzpABTKkwhaalRotJYSN1gei7RdIqchJ2FTg9anYtuo9uoozsKjGGu9Ze3iNZ47Kfyk+iXYKgj0HS8No6YxjvWSgcmKdpDEggA3+fi6oo83ZMkMYahY03Zhok0TYRS1EWJaVrYno3re9q6eVD8el50pO4f6qQUqq7IMx0LdDGbMZ3NwPV0yM32YAPXN0eMGzXSuR81/yOp5zvjDbBt2w8CGz8rmSam5+KEHlbqUJQl+/2e2SQE1bvVCD1evcxkGHhhiCklpmlS5rmOWiolhmFiBQFMI5ASY+IT7lPaeEfR1DSAYQgsKQn8AGcSgu0ijLFq0r+2HM2hUmdmLnYbyiTGNQyc2RR/PofFvAOY68FCSmfZ7vaD03H69OP2X5SOVtPYPMzQIQKmiwUSMLt9tbfAs4IQJhNAoFSLLwWN7XSeRkLHDpN6PN0gOFj+dqqK6kEgQCF0grhek1XalbnKtJt1q8D3Q/xw0vHt034fqRtKHxiGUaStEeuKvMggTzXw6blnNAA1OgykC/HRIFx9IFa5Ho4T64RmponsYrgaQmunlmEQuB6uF+g1b5hdcT3fkIdnVLUGMndbqqLANg3mUcR0OkXMZ7p9WaYT4Flm51quuoMnMYzZk1vXFzb/DuPWHhKtNa1OxBaELC8uCfIMwzAwDANTGrR1TWsYmN28MQwDxw8Qvt/JgyM+rdQgS8phf+gUhKqi2sWURd6Blw5WL1+IR5PkXK2Bz9PdQ5y+nzsMBid1F9r1uCfHcZnP5/hv39LUNVmes08ThAjxrGPb/76XJbCYz5FCsItj4jjWRgOWqWOv+T4X8yWhIymun2EKg7ZpaNtG8xYpCAKfSRgRhhOcjmWPj85aBVlW8vDwQJYXuK5L4AeEkwmeyxGo5TkeYRhiWRZJkrDZ7UiTlKqqEZ59BE58GVL3U6R5puiYQYvCsgyWywWmaRJFEWVVIU2dnFNKi2g6Yz6LQIHnuGy3W3abLShwbBvTtDBNg+kkZDadYh2cbh4/ekT9XMjzgtVqRV3XBEHAJAyZTCZYljwS4xSduNaJP4YhsB2HyXTCdDqhqivWmw0viwIVemefNa5K05VnWJIoivjqqxdM44iqrrXnkW3rRCdKYZsmrVJYlslyvmAaTbGtg3Stk+PAZr3j/v4B33NZzOf4vqvPlLrrHANs38R1XQSSJE25vb0nSZOfPKK/RhpJBcPrKQ9o0A5EQeDz9ddf4bgOhmngui5mFxdTmgbCkORFhjQkQRAyCXzCIMCyrKFf3xXHE7Q8m6QpSZLgOB7z+RzPd4fkSOO6fjg3/bCN8+gqoa3qlRgl+TQY4q0OW9BJnU7fPzYROOiTH9yOd13wRckDfxsaZ7P+rVs2PkW/aeDxaToMmkSMlP4GaVlM5jPi9Zq6aXUctSwH00aZOgGEGGv1fTmTkLlrDxYttF1GbMvSQr2UvdTEZBodMlpLqS0nDUuDmAqoa51UZogd9MQk6/QnA4EtDVrDQDaqc7k+ae+YO30yvYtxfro28qEC2uFJnXghBFgW7mSiFVDFQcEQ4uBOjAJbYXkeVlUzKSstlRhS/8nuRMns/SHUyQO7/uwB6xFQVJUl8S7GlpL5YqktU4RgbHV1fGDUzYvOv8L1fTzfpywrttsdwWIx6pRDzwhpDN+ptkXUZZfApAXbxr28wlV9ggI9z1SeY61W7MSGsixx/JDJYgGz+cFCSDXoFOp9HIoO8OwstwwFhgJLaNdrehOBVoBoUEryeeOJ/tz0vnqe/10pnaFUqBajSw5FVWteMp3jRhFu2+j+7EFhJbDN1xRFie34BJMZph+A2wGPSvF0zEzR8QedzTrPc8qixHU9oulM8xk1qvEIMBnnrD5q1idqQrID7QxDW+TqjHvtkQXkeIP8eQDJDrjyXPwoIkszym4Nzi4u0Hy6X3vdQYEUGjQwLSzTZu56mufWja6vZXZ82xl4Co5LFE2grWlUi5BSWwlJY2QS03dqH/JizDe05V2z3xPf3dHkBXbbcLmYIRdLvf4sC8pCayJ1RVW3WJHU7rTn1tSXssRGJMbvhg+axxjzKbMo1KYfddX1rdT9Yur1IdoW++KS5WKpg76pLptwH06ij684gEDwKNlaf7giheaXWU6apORlocGEINCW7uPDAITmiQPGpC2+pWUSzKbs1luqVg3u1o5fj/aGbv612lVqsBQXQme5z3Jd5yDA8gLmN9dQ1aim0bc3Lek2pqprncHd83A9fwBYRe8fejhGh6qkSVN2t7ekuy2eZREtFrgXS4gi3bayhF1MXlbYYYj0TR1Ur3ezPqcFHg/iF0QHsFgnt2+gLnVM10Z7r9hX19jDeHX9kBfYck22TxDCQBomfhiC5+trhgRCHOI/C9ntm9o6FmlAWbHdbCiKDMdx8ANfWze7mscclsKBiT/m2pqTf47uHx8afWhymZ/0nEfP1a8KsG2D+WzGJAyxTYu6LNluNtiGSWC52udC6ShHw5GOgsi3mHiX7KdT0izDsiydDd62Me3Dznk5nzINgiEpoEBvobZhYRoCIbU79RGw1Ikz+33M//gf/4Pb2zsmUcTN9Q3ffvstnhsCo3h/UhD4Pr7vYQpBW9c6tmRTIzgcWqvxPRyfPfya6Vj10P2oZ0qLZRhEkxDP81leXNA0LW2rkNLEtBwMy8LsWIp/EXIxDymL552XhMI0TBxHA4FGB6i0HRLU8x4hB9FzELP7KmVZwps3b6iqilk0IYomRK6k5onYtN2ylgIcy2IWTVkuF6RpRryLybKMmtm5I98jqhsoy4qyqhACXr58iVKKoixpWhCmQV03pHnGarXCNCSubbNYzImiCSYHq826hXiX8Je//JV///d/Z7mY8w9//CPXlxcYiwiziznZg+62aWJZJmVTsU/3VGXxU4f2V0vj7aaPCTvEwkSLB/skxbAsokmA637Nzc31kHTFdmxs2+b+/pZ9HGNKg+ViziSc4LrW0P899eDjOb+dtm3J0pwsy5jPZlxeXOB3SX0+jWO+azPtZdURCYEwDBqpqJqWWmgZVIdWenrGar7z/pq23e3yi+BKvw36rwo6wn8J4HFkAdR9Pv61X7R6dxOmiRtG+OEEz/M149nGeIaDcHyGgBw98DQUJMF2D59VlzxGykO8J9DWK1b3e9t2yk3/Jw6AJbwbwxsBC0JpvVY0HV7Uu+T1dR3KGirOp5+/PnX/L70oTuohJVi9X0zX/i425yDNdNnhkAZYCpym658xoDh+xOnZ+0hx7Jm+aqFpKIuSLE3xJxHRfIbj+13EaAZpU4xFG8EB6DN0IptqNqfYJ9qNJC8xq7pz2xvdQ+fGV1e0WcZ2s6FK9thCEDgO9myqlaM+qzIgiookySmKAtsLCKczZBRB4HfgeNefI6n4EK+uBxgbbYUDGGp0rdRK/4Epfkng4wfQ0KxOoVT6y7wsadOEaren2u+5DEPkfKZBAbtzY2xaSFJIU6qqoVUCL5ywuL7Wlly95YwaP+xoAjLMsTRlv99T14fERSKYaOBljDyOi1BPjMYnDo9p6hP45XLJN998w8XFBbZtvzM5wacruOfuF2CaBNGMMivZ3t2RJBl1lmOWFdiWdlnuAagxuGtI8HQiE9FnsjWN0TVonmLbGhxUCqNt9XW9ZdhQpQ5gUiNrnQ6gIishL0ge7tjfvcWVksC0kE2twcayBJlBmtBkGUoa+qDEqw9ghO7EoclfFj1R4Y5HK6EQlgW2A1algXwp9QFcz2cHftP1e5+t2egAyt6SsX/c4EpqMIDB3UoYvBbqmmy/Z5+mgMTxHLz+MGDsX6ngVF1RgDAspKcTxEyiCGEY7OM9lu8ho8nB8nLgw50KWRZQFGTrDbvVimk0wZ3ONC/2A6grRF1BUUCRUVYVRVExn0zw5zOsMNQ8t9/jDAOkqZ9VlVTrDcl6Tb56QOUZ7nSKKxSUJSpNEI2CLKe4X5GrFsd2wGs78Kzn/ycuxF/cnDtDSmm5Ky/I1iuKfYJQLaHjYlxcQDg5ANVKoaqaIi8oikqHQ5lEhNEUvKADuNExt8S57jnwh6oo2W13tHXLJNLxAXUgN+OQeEi1g4wy5nKfG++VUjKfz3nx4gWe57FYaKu1X4LGwKMlwXMsppMJV8sFKMX9m7f4tsPlxEVwmIE9CKlqzRYBZqGNb9tahB4BNBUasHAMcDzzSJwT4/K6ehzMDujEn5a6KlmtVrx9+xalFIvZTG8NHG2rqLqmyDLqQrvTuo6N4+hkKkfXnQCNX95SOoXBtbWObVrYpk6UovMztkhh6PN7dJ/21mGWAZ4vaDGpuzNaY6xC0YnCp+xmBDiOODy7Xczt27eYlsXLly+ZT6dYHOZAP87je+jqY9kG8+mUbHnBD9kPpPsd+3jHPr/AdSxsccT5BsoqePPmNav1mrzI8cOQb775holrYTuWZp8SdklBcrcnTRINcs6mXF4sicJwmNcG+k1dVST7mNu3bzCloK0rBHp9jOvfAlVVUFUFhm0SBcHZDOC/JRLqMB/KFpK05M2bt/z46hWz5YLr62vCMGQ59Q9zsIG6qSkzHbvz6uqa6+tLFvPZEejb0zlpVSnIq4Z4tyPPE6AlikKWyznuqM+PDhP4Ket6PDPFyevoKqk98lw/JLpY4IU6+Z068Tgaa/YfCjr+nf5OvzT9xoHHfhmeLuRT8BFAn5YI0wTTZhJFTGdzUPDw8MC142LOFwgluhNUcZCG2kYLj4JO+AeEoU3DFAfLxvHWKQSqAySPatMpE2Ko1XETxPjfELVaoeoG6gZD9b/p31UX5FxbaIgDF/+NkBq9E6c8tn2C6cqRP7AUIExtjcIB06Prs550l3fjp8YbRPe+i8lY5AV5lmMtLpjPF+B5OmaWag5Ks5TjgeQQo1IQRhFGA6/zH0jjWGc4zUtwbJSlXXWPTrjqhv1uz1//9Be2d3e4puRyPucPxjdgLzspvduN84K3b2/Zxwmz+ZLl1TWEJ66Jg3LcHz33oJgarEdF2yBpkb0yL2UXl84Y+kQN/0ft/CKpa0OvWSpouuBPUhpkWcHm7T3rV6/Y/PiKP758yTd//Fa76fbx1ySQrYjfvCVOEjBMovmCycuXWtEdHnVuvo7A3UYLQpvVCqUUQRASBBMNVhjmSEM9qDw/5wiYponv+7x48YJ//dd/5auvviLw/V9IiT1RzYXEn0a0Vc3m/oE02ZPuE6I0B9tGGBYMa/BMGUJoTUiM+OoAJPZrrlu3hlZbVdtoUKu/vm1RaCsnhUCKdtgfyu2G+P6e/cMd6d0DfhQRzuaw20K8755rkMc7tsmeYLbEXy6gaUcuGQfg7Fwv/Hrp3H57/MWQyb2zzu5DXGhWZzy+sbd0lIwAwgMfPdrneoC46Q6YpDwc/pQ1u13Mfp9g2hZBGGk3e8cZzYP+4apTNASG6KwqDQnCIIwirm5uaJKU7W6LFfhEFxeHfV810CiE6Mx58oL4/oHXf/0r3//5z3z18iW/+93vcBDgh50VrYBdzP5hxW67Iy8KgucvuHn5EoJw1HkCpIVWZWsoCrZv37J+9QpZVdhSYHsOZBKyRLddSdqiYrfZ0Fo2Yr7Q/dwdLuk9agy8nuEgXyJbV0CraNOMN9/9wN2bN5jAYjbj966n+7W3dK0bRJbz9u0t2/UWxw9YXFwgpnNtrdhZmyghD+tzENjQ80yBahvKvCDe7nAsS2fuDSejkDo9MN3tuaY8u64/11GeaZo8e/YM29aWQWHYZdfun/MJLmCndG7/GUvllgHTyYSXz18Q72N++P57ppMJ4vnlEB9xsDtWQKNQUiA6Vu3YhwcpDsasg9F9z9ZHS7m/buwuCR0Q2W0PSimqMqeuSmzLxOuSkZxyhKoqWT3cs91usKVk4gfMowm+Zw9gUV8XOd5WvihSR6+nACRoSykpdKzQMbBzGqdTX3twPBr/+Ch8EOc1uLqBqmnZbja8efOGP/7xD3z7hz/ohENdOf3KGqbBCJGR6Bid89mMuqx48+Y1yX7PZrNhu1ljzOa4rsUpKSCOt/zHf/wH//nnP5GmKdfPnjGfTgmeX4M6PLvMcr776195++YNnutwtVxyfXHBZOIdzT/6vkDRNg2mFPiei++5uFLXv1T6HK5sKpJEGyRchJfc3Nww6YDM3xKNx3xQlYA4Tnj16g3/9v/+O//X//1/8u0f/sg//8v/xtdff83kZonT3byqam7v7nh4uGO73fJP//jf+O//8i9cXFwMZcnRs+ieN7Z6bBrYbrfc3d1pfc40mU2nLOdzLNN4FAf0fS7bH9bq8evJr52ONZnPeC4FQaCT54lxbILRmevHHlz114zb8VubV3+nXw/9xoHHc3ReCeqdMUS3bXp+yOXVFcVuRxLvyZKUqKyOsv/qAjoFRnBy6i20YjRYWTC8tggaZKdGCiRiEIIUWpA9BrgO5TYNiKpEFTkqL1BFTrqLoWkxlKDKC+ptjCktCEqEqzNzCvNc3MjfAjAEA8ByxIDPWyH0wiAwxOnRO9woZqHqomgMR6/jTWGk/I8Kb9KU+GFNVRQEnk8QhIjJRGenHbvWnTWL758jwQ/wWoG/2pAVJXleEO5ixHyKsG2OrHcVUDVUWUEWJ2RJih362uJMdEfHSkJVQByTrbfkWYFh2swvLoguloeYolLodjejJrYtNDWqrFB5Tr5ek+52NGWOKQRVXsJ6BWWurSs9r4s1aIISAwbwRdK7tDyhhWwhBU3TkCQJeVbQ1A2q6ddtN7vqSicV2O65v3tACIPL62dEyyVEsw6wlWf4xzhcgtLAdlEMSWU8zyfyfUzfPwBmcISFq1F939umn0CGYeA4DpeXl1iWxWw2w+oAo8+pvD6mM5qblAjXxZuE2pqoqMjTAncXY/tdnNUThnAkLEpGv+t1rrrDqKbbGQ4cVKCQXT6Pg0uMBhw1icEqr9BWqqs77n74K812Rx3vKcuctCh0HMdGIRHUCLKypKgbZn6ElDrKvGgVSvaJw7RmfOACX4YW+4Q4DXTdPrbOP3JRfqpA+bjQYQ08oQL0+2of0qSqyLoEXHVdM4mm+rDRdrQlwWlVx2ED6JIsdONsei7zxZJ9qw8qkyQhSlPNV7s4fjopjQBh0BYVyXZHESeUSY6qFZZhguhU9bqFqiTebrm9u6NuFdFsxnSxgOUS5Tk63EZnaa6phf2e/H5FfHtL/OYtrlBIU5LUGcqyUG1N0wgaJagaRdEonOms4w09SAqHhEg9Qzm1E/lCSQF1Q1tUFPuUYp9iuh6WMLv2d9p+VcJuR7xek2Q5hmVxcXnJ5fUzDU72ZneIA5jcH1KMDxiLApFmZGlG2ypc12WxXEIYog+GdRl9PyuNeo1c37rfT5rwKSNhGAaLxQLP83T84Q6ABD6ry/W5ksaSVO/nM5uEvHx2ww+vWrbrNcl+T5KW+J6NPWqoNkbv5+fjgkWr/wyl2aTshlPAcCitRv16yiUkfbQGSeD7PH/2DEOaBL5P29TEux2mMce0JHUD+yzj9u0bkmSP7zg8u7rim6+/IppMsM2RONqfdX3m/fdvQ+NGHBz/e279nuj0A/XOR8OZ3qj0vjyeeB+nGZvNjixLcWyb6XTKzfUlQaCzWUu0YvtUyrv+Gb7nMJ/PuFgsyNOULE15+/Ytru0QuNOz4FRZFjw83HN/d4dlWZijZDtSQFnWxHnO7dvX3N/foZqWl8+e8dXLF0wnE2yjCy1raFHbNCD0PS7mc7568YxJGJBnGXG8wzSnNG1LWdYk6Z5dsidNE2ZRxIubG7753e+ZzWYf0NtfHp0DnKuiYLNZEe+25FmOalscy8TqwO4a3adv377hT3/6E1VZ8uLZM57d3HB9dYXnuu9dgj342DQ1q4cH3t6+xTQNrq8uWcxmBGcA6TH9bEtcCISU2L7PzDCwLEsfTo7CfJ0++CS6+JN1OwdS/p3+Tj8n/RcAHs+xsHNXCcaWLtL3uXj2gvu25fZhwz7LifIcXNFlSh0VbxhP6PZdgBLGfxKJoLON6RRXzTjaoYRxvYfaaV2pLCn2MfvNmmIXQ1FQ7DYUgGkYrNOU/cM9ItljR1PC+QI3CjAM71DmAZE4enn84UuRko7jYShx7mRWQwltr+xyAjyML266WF5jq49DIZ20pI6AjP025vvvvsOWBtPlgnDauTCjOotXDmDgSd2H8zYJynEQQhLMZ2R1RVoW3K9WXPo+hALRjuaFUrRVTVVVKKVwbJv5fMlisexcwTpX3yRj9+YNDw/3VEIQTqdMr66QsxlDUKSBpJ6XSkBdUmYZu92eZPVAsd1SbbdUeUlrWmyzjB9/fIXjuwjXx19e4F1ZtKbUSjE/NwD1M9BRVUdrcbTeDdkrmhpoKqsKy7ZZXl4xmc9135tdzMW8gH3Cw3bD7XrN9eUVl9dXeMsO9B2sZsbgS6vjdrYcwjRUFXVekGUFddWyuLrgYrnQz+oV16MQAQdO1Me3+twosJQSq7Pgmc1mR5aOTdMgpXzS7fqIPlpaO7OGBGAKTNfVY1A3JGVBs17zLJqA62rrbxiENfGojL4iOjxH07ba1U/oQ6K6y44oO54thdFd1ydr0PFNWxSyA2pU3ZLsE+4e1nz/wytkUWI2DWWW83a11YcSLYhWUSMwXQfT81gaBrbvIUzrqIof3ie/JH3Is5+6ZhS17hGWKka7Zv/1U1HuRoc7j74fgUH9X9PQFAXZPiFNUpRSzBcLosUCnP6w6KmDuW5/ESPAz7IIZlOKNKO8vWWfpiTbHYE0dIzKHmDq5kVd1yRJSovmx5PZFDmb64Q0CMgL1H7H3f0Dr9+8ZRFNufrqK7yrS5jOEFKgDK2MDG7oVclmtWb99g1v7++JNxscKbCl4m51j0mLISStkFR1i5QW3nTOYi67mMb6AEPJPvHIO8b1c0y3v8WUVQrqhqKuaZTCsh3mF0sWV1ealwqpM1DvE+5fv2F1f0+lWqLpjOuvv4KLq87CvLMOHUDHrkFCMI4pSlmxfliRJgmWbRFEEdbFxcEann5qaPlTiFPA5FQe+/QYj4ZhMJ1OCTtrKfGhfPojaSzBnqP+iZNJgBDXpMmet68Niizh7vaWq6srbH/kSirowhQBzQFEFMbhdyE6S0bjOBLBkHicx+DY6CgZq5v2s9mUf/7nf+Ly8pLNZkeaprx+/SP7/Q7fDymqgre397y+vaXKCy4vlvzzP/0Tz58/J5r4x9aUI3Tt/Nh9KfLRu3SDj5uX/dzoncGE0M4BVdXoxE7vSFIYxzHfffcXyjLn6mrJxXLOPPKPgOQRZz48r3to24kLNjCPQl6+eA5KsV6v+fHHH7lYLLhYTIeyxtZgbdNSFAVCwLNnN3z18iW+52nLTgFxkfPdd9/x3fffsd9uCSch//CHb3n58isCXycbqjv1Qhl6vk0jhxcvnlFX2ltqvV5RVyVZmqBQ1HXD/eqeN7e3pHnG716+5A+//4b/9odvCYNwANFHENQHT6kPH7Nffo6e8o+mqUnTBMuyeP7shpcvnvHi+QuiSPOxJK/Ybnb85U9/4t/+7f/h4mLJ//7f/4WXL54zCYOuDIUw3t0WCdR1xf39HXdv3nB1c8PL588HV+2enjj/eKIlP4EeycUC07IxbZvRSH9kP0cCAAAgAElEQVQQvevKsdj1pXCiv9OXTb9p4PHDIMcnyLIQUYgbT/GmW8qmZX17y3Q6R86ngPXRGXzHdRnfagwAwZiRqZP/osPCBIZpYFoWjeeCIZGGxPZcDKVwHAdlOTSG0cUlMxGGeYgFcTbT9Sn9bdnP+wTW9109PoXtSYNpIEfgwtlWCjqLVvEYdHx0oYCiRBUF6X5Pnhf48zmL5RIzCsE0Ohf3cUw4OLhsq+OyBJ1JvcCfTpm0DfvdjjjdE8Y7PMcCy9bxGHWjkLaJ63tE04jcNPB8H8PoklTsWlSZk8U7tmmGsmwWL54TTafYvdVFL+EpDUirkZu/PmUzMS0L29eCnW07MJsRVpXOzOm5SMuitW2UZdOLQIfe/bVuZafz5lw9xZmfenBPf2lbFkEQ0AiJLGuk62p4O8+hzCn3e/ZxTCUEk8sLoptropsbVBgiTGOwgjrghXocxFjaVS1VnLDbbmjbFscPCKIIY9pbTJ6Cjof2vUvdOdvWj6A+QYFhPGaEH5o19WOE5KdpNI6WxWQ2Q6iW7XpDUhXEacLEsxGOoxNGDb1yinQdKtJBi51F9OF7iXh090HgF901/XuBMkyk4+HNLlh+9Q2ybbGVwmz1+pcj6+JGge26WL6HfXWB6DI0D7z7fWDQT6JPKe/DOPW7n3AKAZzeII6f8mhD7+Ot9hlXzzxNndzXtKiiYLfdst/HmJaJa9v4kxB879iC+KR52iLisQKuTBMR+LjRhGA+QwnBartFmQZh73UwusuwbbzJhLZpaYTA8Dy99vMCmoZqu2Gz21I3LV4UMbu85OJSg47K0vHjxhaXmmmA4Tg4UcTs+XPcMMASAlMoVFMhmwZDauCxbsGQFn4UESyX4PsoQ3bl9vxkNN/Gg/BrZenvIwV9DFfTdvEmU5pWYQehBvgLbeWoipw0jknTDGGYzK+umM/mMF9A4HXu9V1olkfxXRghXYo0Sdhut6AUs8WccDrV/sF9siQ4MMEBnFIjEGUsp3y+PbXP3P1L0bu4hCV1htr5YsbNzSVCwOs3r7Esk6l/c768421YU/++t3I8003iEf94fDuAbQoWiwWWZeG6LnmeIaVBXdek6Z6yrlFtyyT08b/5mvl8zssXz5hOI+yTbh3iZJ88V9f/S1hMp3V83+enSfX/RvxkPCRSiCe7pAcm492W1eqBMJxw+dVXLGazd7q5HmSr4+/7e5bzBU3TUBQ5+13MbrtlHYaEQYjXDaZCzx3TNJjPZ1RVyXw2w7ZtijxnHUuKsmS1WvNwf0dT1zy7ueLi4pIXz26YTyMNanPs4t9PlWkU8dXLl533TIKUkrquaFVL3TSYhs7+fbGYY7su1zfXzKNIJ/fjML1O++HjdKlfN9m2xXQakec5VV3geS6ohjTZU+SG7vuHB/IsZRqGPL+54euvv2IxX2BKqa25Tzqj/6iUVs9aBXG85+FhRZnnOLbNxXzO5cUFzkk8zQ8B8z6OPuCuRzLg0wytt9780COl/tovgSP9nb5s+k0DjzBeRO+yXhCPPxk6S6Y3nzGvK/abHX/94XueVzVXrgu+OMRVG3wpThPZjGvRWZGNBNUD4Di2Thrd08esGp2YWpaJGQRYpkk7mUDbYiiFaUgkrQ6uqxSVQmd49jyEZXUZssdV+rnYy+cp9+NKOQUQxqQGAf+URZ8fJ45jQD665Fj4r5KUzcMD6T7BMAzCaML02fVg5SL62HBH979L8hVgGBjziJkpSPOcZL1mtVoRKcVkPkeZobaGE4DrMZvPKLKMNI5xTJOyrkl3CXVTEcc7iiKnQRHOZlzf3CCjqQas+hhT3RxTRz0kQJpYriSyLCaTCTQNoq4Rqo87p609hBC0wkQ6FhgW8siy89e8jZ3Mig/F50bTzPVcZssllZ1QpxmtYVCUJVVVURQ5SZpot8so4uX1NdFsBvO5VicH18vRg8fZkPvvq5rdZsvqYYVpGkxnc53gwPdHAMF7W/eOBv10egpc7DOmfuj1H/FEjsJXnPpqGQbuYophGiRFwT5N2CR7lG0SGZ31WV/OuExdGOP5L6XB+3tQIOWBd/eKVW9dKS0Xbyp57gZcPX+JQGG0OjGTGE+ktqVVSmfKNk0dssBxQZyAjh2PeAxG/BT14nOsTXHcjk96zqmaJB79ehhrNfpendTgTH1E932rUE1DlumMo8U+IQwCptMplud1SbbOrSkx7PMH4VwMjxOGzm7uT6csq4rtdsNqvUZIie/7SN89WEELgRGELK5vMG0bZVoo0yTLM1Sb0DQN292O7W6H63k8//prLi8uMRdL6MDBx7q/ANMinM/xQp+LZzdQ1Uj0PJPj+da5mitpaMDNNsF2ToDM8d/Z4fjCSFdeCYmwHJwwJFoskaaFadsUTY3axbSqYZ8k5EVB08JkOufy+hojig5hSbq5JM7xoH7q1TV1UZDEe+J9zDQIuLi+xp1MurAm6rg/RwdH77Id+7mG4OfKav2us72es0rAMgSL+Rz1+9/z5s0bXv34A55js5xNcR0Xyxz1r+KsGKUUT+ZVHF97rqWne6UAfNfGNucEQUBRFOS5TsyXFwVKtcxmU268KyaTCb4f4rnGyDJ7VLY8XkkH1vIhvPvXtOh+mkw3gI39rf0WPipKoZeFtJ6GSfKiJN79/+zd2XPjWJ6e4e8A4K4lpdwqq6q7p9vVUxEdbu8Ttm/sv9z2XPhu7PGE7WhPT3VVakntO0VxB44vsBAEQYlUQiQlvU+EFpIgAIIgCH78nXNuddMMvzD6+PGDfvvb36iR9Hc7vsy4qWm8tuk+/CQl/fRtrDfkuY5ur6816HZ1fXUlx0i//u571cobo3laqVou6/vvvgtHMfc8+cOhrq+vdX1zrWazqWbzVre3TdUbDf3617/W+/cftLm5qXJUZWc16tkovRXrNVeVb95r0H+jfr+vXqejVqet4SAcaObd2219+uajGo2GGmtr8jxXXvRlVvoTRt4zs0p70DwyH31Va9T13adP4QjiUdVps3kj3/c1GAx0eXmpi4sLNRoN/fjXv9d333+nT99+KycKHR2FI9ln97Bw3DcruUY2sDo7PdWXgwNZa/Xh3Tt9ePdO22825TomN8hLb9/Js8XsOc00Oc/S2FXxhogOgBMDDo4vOf7PnePZT3/qfa77DJ6HFx883i9zQDDZUz4jJ2q6N/St2p2uesOhWrdNrbkmPGFPzyoKFXM/qsZ1/tFXtZOHiPz1MsldwwOPcYxMyVPZGNlS2O7EGCN54dmNE1iZwEo2kDGuHM9L9QGVXtxLPLRkD/Lj/4/HA3lBdPzMPbBtjJEGvjQcqtfuhH0rep7evXsXNrGuVqPZxMtIn47ec/IWfziWwqqMek2NNxuy0aAVd3d3qtXq8qpR5VY0mqupVvTm7ZZqlUoYDAbhvmKNI7dSVa1Sllsuq7G+LmdrK1y/9EmvnVx8eIUTzt91w8qs1FfUSXVRNBiNY6IPdUno+Fz2r0esZyqUqFQq2traUq9cUb9yJ1dGvcCGI3A6niqNNZXqda1vbmp9czPc9vGAP9M6OFK0LQMrtTvq3d1p0O/LdVytr29ofWNTJq7MuvcD49c3y3usp21enw5DMq9fx0iVskrrDa2925a99TSwgW7bdyrXqqqWvNHAHVPnayZ+z7Amo8vp47vjypRq8ryqvHo8kJDN/LYyNpBjrZLuGMa6eZjl9bTM11uRy548bc8z9tIxqUNtXtKRvIlKgfXV7XTU7rQlWdVqVW1ubmpjc0OqlMbzNjs+P5udb556VRvv3ypwjfqDofwg0PX1jTaCQN7muqw1MkEglcqqbm6G/Tl7Zbmuo74NjxuBtfJqNW14Ja2trWltrSEvHgV5YhXSGyHsBsYreWGfu3bUBX78tdLomJANtLPbLf3zUoTdIVhPMrWa1t++VblaDb9QC8J+FQPrqFSuqVSuyiuVVG005G5shpWO8UBh8XmClSa7YrHScKhuu6PWbVPdfl+1Wl2N9XVV19alaiWqcteUTTvLUee5mf7lTbzXuZIa9Zoc5636/Z7uWi0NBn0dnRzr7daWtuK+7KJZxcfZ7LymLWnWj//paRwjlUqOHK+qcrmkcrmkQa+ibr8va224f1SrqjfqKjujZcThVlJBlH67yl3qc3i25wsdU7UY0++WPexMEQRWQ9/X9dWVTs9OZYNAnz59o3fv3mpjY0OeN/4azMu6nZzr4n3FlVSrVfX+/XvJhlXKt9c3aq6vq1Ipq1yuyHPDc9xKrapPn77R2lpDvWg/CGwgG1h5nqf19TU1GnWtr6/rm/fvtbGxrrJrkhG+pfzvtVyFp3NeLdzPSiVPbslTEPgKbKCS56lUKqtWqagSfe58uJDiZamWy9rceqOBP5QxRl7Jkw18BYEvGwRq1Osqea7evNnSm6032tjYULUcjjQeFkqMtvvYtjLh7d1uX+27dthCqd/X9ptNbW9ta/vNpiqem7y204fu3PO/CcU/M+P7eP5R76XvD3i+XknwOO0lmPchJ32KEsiUwuZIvh/I9wNZ3+ri+kputaLaeiP17jpZczH9UPDQ4Sr91phzkmWMjOeFA8aMZWU2GiTFaHoXuK/wcPTIEGTim+v0bf5Qnbs7tXod9QYDvdnY0MbbLVUa9VTP2UEmPJgMuscXGJ86x+FjSVtv36pWrurm6krdfl+dXlfrvWqq8sKEla1v3qhar2vY6sjv9RUEvsombHZXKpfkVitR0/tS5pFEZ/FJM/xRuBhf/+CbadxEzI5ffg1cr6zaZkXValW9alX9Tlf9TldOqaxKraZ6oyav3ggrqdKB49SPQVGAEH2L2W7d6uryStZa1dfW9GZrW97Wm7C5X/SVcFJ9Gt39xcv71KnMddWqtj+8V6lW1dnZme46HVW74fNSrsaDLz3V6qVnnCl3mVjb1Gs+HlE+e1aMCSa7je7dTKOkIgisWnd3arfbKlcqapSr4YAtjfpo8rEQM75vXE4VP52ZNCEOKUsleaWSthxHgbXqtNo6v76SdY3erq9FTXN9Wc+VKTVU8zyV6lX1uj0Net2wIqNU0la1qnKtGvYnXS5Hu4dNNYNOLzzzv3GVbVOa99+r27fi9zPrSmWjyvaWKmsNDe86GvZ6sr4v1xjVN0tyy5Wwv81S9MVt/CNpsuwutR2DQP3BQK27O13EFerv3mpzfT1sxu+5Sg1BlbOS00O65yjb/cG0akNJqpY8VUvrGn54L9lA7bu2Dr98kSujjfX1URX9vZsnv+Yoffo1z9Y1klwjuSVXZa8uW6+Pj5ScWp3sY8sLu16LbNg6NV80E6+gCf1BX+12R+fnZ9rf29fHbz7qx7/+67CS0MvWn41MNDU1kjP6nn1sma4x+vjhvaqVsnY+76h5fa2bmxuVy2VtvXmjkhtWhDeqFZU/fNCbjQ01W7fqdLoaDIcyRlpr1FWphOeC5XJFlUpZbjTwSXp58eOdqLyLvjd1XKlUr6hWqyR9lsbVf9basJ9Co+S18NL3rfgV7TlGG/WavG8+an19XZ3ofdxzHJlyWfX371Sv11Wv11WrlMPBZvywmyvHTG73sbdQG/YdenV5qXa7rZLn6uOHD/r06dsk6JUm3laXIDoHiT+uabJ+AVh1Lzh4vPft7p77RH/TzUk9R7W1NUlGw/5Ag8FQTimz6cyowdfYsSlZBTP2Z771mXYTH1InpZ/39Cnhfdtm8raH9pwg6iuqWq/LGEeNtTVV1tejPuTi2T6iw/boxMgYI7munEpVNePIl1W5P5AXV7qNffB1wlDLOPJk5EZ9kRijsC8p15Utl0YDEUwzdgad971xfHHKh9cps57lVfh899zoRKBcUVlGTqkst1aVa4xcx5FXqYQDCYyVuIT741gFUrzN4w9W0UZzymXVGo2ww/VyWV6jPt4vZzKHVGD8Gs5GH2RkyhXVG1Yb/YEGg4G8Unn8NXnPLv41y53vfSf1njNR/mEyfzEyz3YeP16VSmXVGw1V3JJqlUpYhey6skGQmTpznDPZV3BqmtGLWJLkVqpa33wTdgbfbqtUqU4eN40Jg0rHyCmV5FXKMo6RY0zYBLtcjkbIcKS4r+DYxFta3r4y7f0nb3+Kt2f24/ELFW17ua48z5PXr0pDP3zI5ZLklcK+NB0nVb6V3HnK/yFrwvfg+sa6KqWwatWrViYHoZk2yxfsvldtvLeuNRpyPnxUq3Wr29tb1WrVqH+28P3R3DOf+3LJx344T561zNOWXn76f1f5by2v5CnOlX2+TPqKBzZM3Jd0o9HQhw/v9P7dW21vbycjsadNC3+To1tq/wgy01XKZW2sr+vj+3eqVSqq12tyMjuNkVTyXJlaTcYY1SpVDfyhJKNSuaRyqaxyuZT0n5o74I25vy+9JCDLnlqbsH/hwIaD3D2Ywb8AeY+vWirLXXNUKXmqVqvJdNVaVdVqTaVoQEZPUvwlvjX3N0eXCfu9rVQqevt2W9ZavdncHA8dtcyAb+IVFIWPS09CgbkZ+2Sdu6yShx5izsljVD5v4hEerZUNrGx/oH40sIZTGX/jC78HT1Upps9Xpx4b8m64r9ZuYkWjSTj4THrcrp3XS+f4BFbB0JfvD+VEz7FbKuneofhSc0+esvi3UfI82qivRScOqqwNR9n2/dFXW44j67pRkDiab9gWIFqhuDoj+jA9Xq2Rln6sNqmgi6uvJisM4suz7W+PiWBejLiyMfOVZPgchwVU1piwH5Zom4d9sZrRcz4Mm5GYqM9Z6zrhNFHz+6QCKt1p0nLPkJYsfSJmpcDKHwwUBL6k8AOM47mj7Zw2x34933rMMm2Ry35t7jvKjB/f/OFQg8FATmBVLpVkXW/ULUB8rHTjfcNOzCbbYcfUZ8zasIuM/kDDfl+O58mLB4JK5pk6tiZtwNKBX6qkYeyLBU3eTzn3++pk/QXuj3HpUPIlT+YxpkukHvGy9Ie+/OEgPD4HVq7ryHO9ZDnWMeP9bU8NNBcr+zHgabvKyD8LsRpV9RpJ/cFA/V4//NLNc+U4blT1OGWeqS/vZln75PvVnADnoSNK3u3x8SAJtuIvD1/gy2iR4j78BoOhhsOBavW6qpVK7rQPnW9mbw8kmfgL3GjH6na76vf7CnxfxnFUq9VUKZfHjq73Ve7OI3P2PdM0NghkHOclHp0n2NSXDfGhOz5Ny26X+z5JT7xmMxs7sIF63a76/YFc15HreknFavZuy93us+wlwGp7JcHj/GzShDEzOmsQyPd9OXHwE0+vvNN8OwofX20Q8Pzcd1IZnqzaaP8Iwg6LjZkcvGfavFMvt7H9IjlpHp2Ay8afgczo9rHKuPgnZ0UfKwrFlDkZGzfbV62PObC8xFeJTSXN8cB61oy2Tzp4dJLAOAqck9JHd/wTTFyRHVexpsLi1x08avLLmPBsPWx2I8l10/0nRhMUGjpiVQVBoCAI5FqFYb5JH1uj10/yOpv8Ui9b5ZQOGnL5gQJ/GA64Fb22kwHo4tfp1A7/7Oh1PVYJbUfLzw0es2ua55Xu6zbc/uGXe49okTCaTf710f5losEMwsHXnHjB0dP0dN08PNaig8dZ2eRcy04dsGx8+vne+r7mdMmm32ei16XJHCtWYys+b9ba6LgdnnOXSqWZ98/s8VrKO0pG57rRLYG1CqKw08qqXK6olAqgnvJrwtThPVxGzkKSLjdeAZv6HBJ/YW/0+ONT+rNNLJ7XcDgMP9s7TvLzWrYzsEgEjxljB6YZvzmN75f3hvTQ/Ys+4RsLtjJVVkUu56XK+2A5fRqbtI6c+UTo3kBvxA98WT+Q6zij/vviT56pN+CxnqrTZy15bYJyH0zm5Z+930NfFaZnn3lMLy14nOWEL8hcvi8KiKcNxyvIBI9WqaafZnwYxChIC8ciSfVq/9AZ62sRp7uZUhMbBGHG6Cz2g/99b7EchxfPhr3Nj7b91MB+evCYiv6SyG/yi0clr2Njotdw9NpNOKl7B0H4BUN0R+uPBocx8XE+ep0nL3djJvrRm1h/5d3+eve75APsHOd3UupLx+hS/OxPvIZTrRfCXSp1jF7Rzc754XTTztmmHdfZdk/H9/2xKrSHzsni58hKqdfe9Nd9+KVQ2A2OH7Uy8jwvU+1ox+YRRK/zbLPsec362SDvfi91n3vMuVNcFGLMZHCYN7+8z8m5RUcACvGC+3j8CqkT+WmHvSl1YA9OM3Gf6Juc+P+vlZ7fUy7npUt/wJz+vJqoGNFmrv96RiZT0ZgKF8c+MM1R5ZJ9MBOTm3sv3hc6Si/7BEia7XUzkdNG8q6b6Hw+pz+h6dVQRmHqnQpN7Ng9X7ecTZA8f2yeV81kj6lpE/35KfdNIHy5TQaSE3M1UWg4vgI594qvTy0sbz2yKzGz+0LI12lsK6Sf4ylf1CXHYxvHE9NmbMbubs3Y1Xhm8t73qddYDmfGlkWJ1KF0tkrF0WvXdZwpFZM552nK/55+npf8Sz53fmqTnz0ety3jz8k8F8DToeIx5b4NkXfb1ENTql+K6ZMQAq4im/mbNctnwSKe92S6iaWmTp/Grs6eVmWmm3bzQ5L75oSOo7KbsXWJH9tLq3icRfYx37cNksead7ywGj2n6cDMpu4jOwqnMRLvl1MqkdheGJO81vKPrdmK7oeOa7l711g1+iz3tuOVkVNmOd7UOneh9yzjdb4Oct+D01Wv2f5yp7TfneX9LVVvlQQWq7jVqXicXboqSprcVmy7xZklJHrseWg2dHzss/q1e8NrCsIWeRyatiw+mwNPi4rHyCyhY9zjWnw4yhslK1OzMBUHtdU1LWTO+/YzSF02un+0Omn0jdpDTNysbiJznFINk53eZiaIH8C8Z2FTQsexebIrJ8aywQemCyeKTnKmbcd7jxNs+Hzz1KkDMTN1F0m/X2ffC7Jyb0sO2w9985M9EEwLFA35eVFsvEVt8r+UOvRO2dB5+0H2cnbkXN4ynz+qol6+yXN9XrWLsMiWebQCBJaD4DEyy0lkPJ003kwyexsHsecvPbhltj4k/ew60bRG44NhPhQ+zmQiXJxz+thcYWP6k9fDi7N82z+zsT4dYw+lGGm5bXjY3mNmSnuBtLh5dX7wmPt9QP5cpppe65ZXM5/5hmhKwfvsS8d9bCpamFf28J2NlSe60xCHoZcgL7Sg8dhL9bjnNR5E7N5uGWbw2s6pF/l4X9u2BVYBwWPKQxlA3klk9n88X/NkFnnhY950CzfLOdJ9K2nNXJ+Qlv54V1C6quXhuqZoqvvSjextSeUrH3TG3FedC0xT0IePoo+FYVPqvIVw1P1aRko1qc65fY59Iu9IbKZc4pl7GQgZX5PHvWq/Lm7EshBGAk+L4DEjW2+QrVLiW+vXI131OE26Aja7b0wbYfxB93+KuX/ahzy2ahJzuS8WzO5XufvGfQED1Y6T8kJHWkdhBvMcbp962UqqZKbdzi49r2xFYl4B6Vgh6SM+ePKcvB6EjqtjESHR1y6BYwMAjBA83iPbp2P2pBUvj1X+8z42Qdr0bsGKXal52/atgHlq8l7E6yrzCTevN7exbjhFn1+FCdv9a+VfFFgZ91UjS4t6TU7us0kYZmYdjoR9vjAciPFIVEoBAHA/gscp4j77Zql6w8uQrl6Mn/eJU8n058QH+gMr5ET03s4iNd9nziWcF7+qU/EpKWJ8dfZ4QvV0wQgf8WzEkWLcE1j+FA8Hj3xtUSg2JwAAwJMwlnYDudJNcOjP8fXIe95nec7zKtmAvJHQJY4pT2qs2fUiSpLxXC1//HN7b0w+W/D4GK/rRZH+rjAZFET5W++1Vq4xwuvs2FbPzzI+6LJ3AMA4gsd7LLPvJyzPtIBo5vtaywkpxtBX2xLEb228FgFEHjrl5b0bAACgeDS1vgenn6/T1zzvj+2cHi8be8TiJfECXwQAAAAAwNLQfSEA4EWjsB8AAAAAloOKRwDAi0OVIwAAAAAsHxWPAAAAAAAAAApH8AgAAAAAAACgcASPAAAAAAAAAApH8AgAAAAAAACgcASPAAAAAAAAAApH8AgAAAAAAACgcASPAAAAAAAAAArnLXsFAAAAgKdmjFn2KgAAALw6VDwCAAAAAAAAKBzBIwAAAAAAAIDCETwCAAAAAAAAKBzBIwAAAAAAAIDCETwCAAAAAAAAKBzBIwAAAAAAAIDCETwCAAAAAAAAKBzBIwAAAAAAAIDCETwCAAAAAAAAKBzBIwAAAAAAAIDCETwCAAAAAAAAKBzBIwAAAAAAAIDCETwCAAAAAAAAKBzBIwAAAAAAAIDCETwCAAAAAAAAKBzBIwAAAAAAAIDCETwCAAAAAAAAKBzBIwAAAAAAAIDCETwCAAAAAAAAKBzBIwAAAAAAAIDCETwCAAAAAAAAKBzBIwAAAAAAAIDCETwCAAAAAAAAKBzBIwAAAAAAAIDCETwCAAAAAAAAKBzBIwAAAAAAAIDCETwCAAAAAAAAKBzBIwAAAAAAAIDCETwCAAAAAAAAKBzBIwAAAAAAAIDCETwCAAAAAAAAKBzBIwAAAAAAAIDCETwCAAAAAAAAKBzBIwAAAAAAAIDCETwCAAAAAAAAKBzBIwAAAAAAAIDCETwCAAAAAAAAKBzBIwAAAAAAAIDCETwCAAAAAAAAKBzBIwAAAAAAAIDCETwCAAAAAAAAKBzBIwAAAAAAAIDCETwCAAAAAAAAKBzBIwAAAAAAAIDCETwCAAAAAAAAKBzBIwAAAAAAAIDCETwCAAAAAAAAKBzBIwAAAAAAAIDCETwCAAAAAAAAKBzBIwAAAAAAAIDCETwCAAAAAAAAKBzBIwAAAAAAAIDCETwCAAAAAAAAKBzBIwAAAAAAAIDCETwCAAAAAAAAKBzBIwAAAAAAAIDCETwCAAAAAAAAKBzBIwAAAAAAAIDCETwCAAAAAAAAKBzBIwAAAAAAAIDCETwCAAAAAAAAKBzBIwAAAAAAAIDCETwCAAAAAAAAKBzBIwAAAAAAAIDCETwCAAAAAOoXWPoAACAASURBVAAAKBzBIwAAAAAAAIDCecteAQAAAAAAsuwj7mMKXwsAwNeg4hEAAAAAsFIeEzp+zf0AAE+D4BEAAAAAsDK+NjwkfASA1UHwCAAAAABYGV/bXJrm1gCwOggeAQAAAAAr5bHhIaEjAKwWBpcBAAAAAKwcQkQAeP6oeAQAAAAAAABQOIJHAAAAAAAAAIUjeAQAAAAAAABQOIJHAAAAAAAAAIUjeAQAAAAAAABQOIJHAAAAAAAAAIUjeAQAAHgBrLXLXgUAAABgDMEjAADAM0foCAAAgFVE8AgAALCCHhMmEkACAABglXjLXgEAAADcz1qbhIrGGBljcqfJux4AAABYFoJHAACAFRSHiNZaDQYDDYdDua6b/BAyAgAAYNURPAIAAKwwa63u7u7UarVULpdVLpdVr9dVqVTGpqHiEQAAAKuG4BEAAGDFnZ2d6fPnz6rValpbW9P333+vDx8+KAgC+nUEAADAyiJ4BAAAWCHpykVrrfr9vo6Pj/XnP/9Z9Xpdb968UaPR0Nu3byWJKkcAAACsLIJHAACAFWGtVRAEcl1XktTr9XR1daWjoyP9/PPPqlar2tra0qdPn/SrX/1K1WpVjuMk9yWEBAAAwCoheAQAAFgR2WbTrVZLJycnOj4+1uHhocrlslqtls7Pz3V7e6tSqZQEj4SOAAAAWDUEjwAAACsiGx5eXl5qZ2dH5+fn6na7GgwGMsbo7OxMx8fHqlQqevPmjSQqHgEAALB6nGWvAAAAAELGGBlj5Pu+ut2uTk9PtbOzo8vLSw2HQ/X7/eT6L1++6ObmZtmrDAAAAExF8AgAALBCjDHqdrtJ3447OztqNptyHEeu68paq9PTU/3888+6uLjQcDBQEPjLXm0AAABgAsEjAADAimm1Wjo6Okp+7u7ukuDRGKPr62sdHBzo9PRUV9fX6vX6NLMGAADAyiF4BAAAWDHX11f65ZdfdHx8rJubG/V6PTmOI8dxZIxRr9fT9fW1jo6OtL+/r06ns+xVBgAAACYQPAIAAKwI3/fV6/V0enqmz58/6/z8XIPBQJKS0auDIFC/30+qIvf399VsNpe52gAAAEAuRrUGAABYEe12W81mU4eHh0nfjp7nJT/D4VDD4VDW2qSvx/X1df3qV7/St58+yfU8ua677IcBAAAASKLiEQAAYGXEVYwnJyc6OztTt9tVqVSS67pJM+s4dBwMBrq4uNDBwYFOTk6ivh57y34IAAAAQIKKRwAAgBXRbDa1v7+v8/Nz3d3dyXVdeZ6XNLN2HEee58n3fQVBkIx2fXh4qE+fPsl1XdXr9SU/CgAAACBExSMAAMCS+b6vTqeji/Nz7e3t6fLyUsPhUEEQSJKstQqCQNba5D7WWvV6PTWbTR0cHGg3apod3yc9XfwDAMthH/gBALxUBI8AAABL1ut2dX19reOTE+3u7urm5iZpVh0EQVLhmA4fjTGSpH6/r4ODA/30l78kgWUsvn98P8JHAIs3y3GHYxMAvFQEjwAAAEt222olfTVeXFyo0+lM9OmYFx4aYxQEga6vr3V0dKSzszNdXV0lfT0aY8Z+AGBxqGYEANDHIwAAwNJdXV3pL3/5i05OTtRutzUcDpPgMQ4Ms5WO8W1xk+ubmxsdHh7qw4cPKpfLqlQqkpT0DwkAi0PgCAAIcSYKAACwJNZa9ft9nZ2daWdnJxnJOgiCJHicxhgjx3HkOI4Gg4Fub291fHysg4MD3dzc0KwawBJRYQ0ACBE8AgAALEmv19PV1ZVOT0+1t7eni4sL9Xo9BUEg13WTikZJuc2l4+BxOBzq7u5Op6enOjg40OXlpdrttnzfX8bDAgDNHj6aOaYFADw3BI8AAAALlK5EbLVaOjo60unJiS4vL9XpdKZWOeZdHwePxhgNh8NwgJrj46SvyH6/92SPAwAeZmb4AQC8ZASPAAAACxKPUB2Hjzc3N9rd3dXJ6alarZaGw6E8z5PjODONQm2Mkeu68jxPxhi1Wi2dnJzo4OBAx8fH6nYJHgEAALA8BI8AAAALEvbLaOT7vvr9vk5PT/XLL7/o8vJSQRAk/TbmVTfmjWgdcxxHrusmTa6Pj4/15csX3dzcLORxAQAAAHkIHgEAABYkDBbDgLDZbOr4+Fg//fSTLi8vVSqV5LruvcFj+m/8fxxYxn1C9vt9HR8fa2dnR5eXl8lgNQAAAMCiETwCAAAs2O3trfb393V4eKizszN1Op0kdJxHXnPswWCQ9PV4fHysi4sLDQaDIlcfAAAAmAnBIwAAwIJdX1/rp59+0sHBgW5ubtTv95OKRWk8UJw22Ex2OinsQ3IwGKjZbOrs7EyHh4c6Pj5Wr0dfjwAAAFg8gkcAAIAF8YdDdbtdnZ2daXd3VxcXF/J9X77vazgcPtgk+qHBZpLl+L46nU7S1+P19XURqw8AAADMheARAABgQTrdrq6urnR8fKzd3V1dX1/LcRwFQaB+vy/f96fed9bQUQqrJAeDgU5OTrS3t6eLiwu12+3cecRVk+kfAAAAoAgEjwAAAAvSarX05csXnZyc6OrqSoPBQOVyeayZddp9zazzbjfGJAPNWGt1c3Ojk5MTnZ+fJ026AQAAgEUheAQAAFiQm5sb7ezs6Pj4WK1WS77vq1KpqFQqJaFh1rzho+M4SZB5e3urs7MznZ+f6/r6mr4eAQAAsFDeslcAAADgpUg3U04HgsPhUL1eT+fn59rb29Pl5aWstWPTTAseH7MO8Y/v+2q329rf39fm5qbW19e1vr7+4HKy6wYAAAA8BhWPAAAABQqCYKKfxH6/n4w0vbe3l/TtaIxJpn9M0Detb8YgCOT7vowx6vV62tnZ0T/90z/p6urq3n4kp80bAAAAeAyCRwAAgIIYY+Q4jhxn/BTr9vZWe3t7Oj4+1s3NjXq9XhI0Fhns5YWFw+FQNzc3Oj091dHRkc7Ozubq65HKRwAAADwWwSMAAECB8oK6ZrOpn3/+WYeHh7q7u9NgMFhYJWEQBGq327q4uNCXL190eHg41tdjtnl49gcAAAB4LPp4BAAAeCJBEKjf7+vs7ExfvnxJmjovKnSMl2OtVbvd1uHhoba2tvT+/Xutra2NNfEmZAQAAEDRqHgEAAAoSLaZc6/X09XVlc7OznRwcKCrq6ukT8dF9Z8YL6fb7erg4EA7Ozu6vLxUp9NREASSCB0BAADwNAgeAQAACpIN8G5vb7W/v6+joyPd3Nyo2+0uZD3yBp0ZDAa6vLzU0dGRDg8PdX5+rsFg8CR9TQIAAAASTa0BAAAKlQ4fm82mPn/+rMPDQzWbTQ2Hw6VUF1prNRwO1W63VS6XdXBwoI8fP+rNmzeq1WoLXx8AAAC8DlQ8AgAAFCwO+U5PT7W7u6vz83MNh8PCqwrnCTGttfJ9X3d3d/ry5Yv29vZ0c3OTXB83AQcAAACKQvAIAABQsMFgoGazqdPTU33+/Fnn5+dPNqhM3gjUeSNTx8tut9va29vT58+fdX19rV6vl6zbovqdBAAAwOtA8AgAAFCwVquV9O14e3urfr8vx3FkjFlasOc4jkqlkhzH0e3trU5OTnRwcKCzszP5vi/P85J1BAAAAIpA8AgAAFCwVqulnZ2dJHgcDAZjod6iw0djjBzHUblcluu6SfC4v7+vk5MT+b6/0PUBAADA68DgMgAAAAUZDocaDAY6PT3V3t7eWBNr3/cnmkQvizFG3W5XBwcH2t7e1rt371StVuV5nBoCAACgOFQ8AgAAPEJef4j9fl83Nzc6PT3Vzs7OWPC4SoO3pIPHeD3v7u6ofAQAAEChCB4BAAAK0mw2tbOzo4ODAzWbTfX7fbmuK9d1V6L/xDgsNcYoCALd3d3p+vpa5+fnurq6Uq/XW+r6AQAA4GUheAQAAChIs9nU58+f9eXLFzWbTQ0GgyR4jMPHVRAHj+12W1dXVzo7O9Pl5aV6vd7KVGUCAADg+aMjHwAAgEeKKxiHw6E6nY7Ozs60v7+vy8tLSeFI0osM8uYZNTvub7LT6Wh3d1eNRkNv377V2tqaPM8bq86M57nsik0Az0n2WMTxAwBeo9X42h0AAOCZSQd8w+FQzWZTZ2dn2tvb0+XlpYxGweOiw8dpP9lpHMdRp9PRzs6OPn/+rGazqeFwqCAIxh4nVZAA5sMxAwAQIngEAAB4hHjAGClsYr2/v6/j42O1Wi31+335qcFkVqVSMBtC+r6vfr+vu7s7XV1d6fj4WOfn5+r3+0teUwAvg53yPwDgtSB4BAAAeIQ4eAyCQDc3N5PBYzSa9aqEjrF08BgEQRI8Xl5e6vDwUKenpwSPAAAAKATBIwAAwCN4nidrrW5vb3V2dqbd3V2dnZ3J9/1lr9pUec2uY3d3d9rd3dXu7q5ubm6SxxE3yQYAAADmxVkkAADADOK+DtP9H/q+n/TtuL+/r/Pzcw2HwyWu5eyy4WO73dbe3p729vZ0c3ND1SMAAAC+GsEjAADAnOK+G29ubvTly5ekifVgMFjyms0nHT4Oh8OkyXXc16OfClHnGTEbAAAAkAgeAQAA5mKMURAEGg6Hurm50d7eno6OjnR3d5dUO05rzryK0gPNtNvtpK/Hs7MzdbrdiekJHwEAADArgkcAAIAHpEenjiv/ut2uLi8vtbOzo+PjY/V7vbFm2M9JHD5aa9VqtbS3t6f9/X21Wq2xoPE5BaoAAABYPoJHAACAe+RV+Pm+r1arpbOzM+3t7YUjQQ8GST+Qz5W1Vnd3d9rf39f+/r6ur6/p6xEAAACPRvAIAABwj7wKv9vbW+3u7urw8DBpYj0tcJwWRsbXLzuoTK+D4zjJgDmnp6fa39/XyclJ7oA5q7DuAAAAWG0EjwAAAA9IN0WWpGazqZ2dHR0cHDwYPM5iWQHeLNWcJycn6vV6U+9H+AgAAIBpvGWvAAAAwHNgjFG/31e329Xp6WnSt2Ov15O19sG+D6cFdNlQM++2pxYvO65ijMPHL1++6O3bt/r2229VqVTkeV6yXrM8ZgAAALxuVDwCAACk3NeEuN/v6+rqSsfHx/ry5YvOz881iPp2fAnSj73dbuvg4EAHBwe6vLxUp9OZGGgGAAAAuA8VjwAAADnyKvrigVfivh2DIJDneY+u/kvfZxlBXnaZ8WXXdeX7vi4vL3V0dKSjoyNtbGyoXC6rUqlMzIfqRwAAAOSh4hEAAOABcfPjZrOpvb09HR0dqd1uKwgCGWPkuq4cxxlrNn3fYDNFM8YkP4+9v+M4chxHrusmYert7a1OT0+n9vWY9lKqPgEAAFAcKh4BAMCr91D/ikEQ6O7uThcXF8lIz/1eT0EQTEybnW9e8+THhnTZ5aRHo3Ycp9CRpo0xKpfLarVa+tOf/qRqtarvvvtO6+vrUyslaYoNAACANIJHAADwqs0S1MV9O56cnOjg4EAXFxfqDwZJxeO0cDE772yT5PTl+8LPvGrG9Pyzg8N8rXgeruuq3W7rl19+0fb2tq6urrS9va1arfbVywAAAMDLR/AIAABetWwQmOfm+lq//PKLdnZ2dH19rW63K9/3x+5vwgvhPKyVzZlnNqTMLj9vfdLNoONgMQiC5K+iv4PBYGx5RTd9vr6+1u7urhqNhr7//nuVSqWJaahyBAAAQBrBIwAAQCQbDCZ9O97e6uDgQKenp+r3+zLGqFQqTa1InCf0yw4wE69DNrBMT+d54SlcHEBmPUV/i91uV8fHx3r//r3evXuXGzwCAAAAaQSPAAAAU/i+r16vp16vp36/L9d1tbW1pUajIWl8UJe44lGaveowWyEYVzb6vj9W1dhut9XtdmWMked5ajQaqlaryXTxwDbp4LJoa2tr6nQ6arVa6vf7uc3EqXgEAABAGsEjAABARhKgRRWPjuNofX1dHz9+1Pr6unzfHw8dU5WP4d2+PngcDofyfV+DwUBHR0c6PT1VqVRStVrVp0+f9Pbt2ySczAaPT6FarWptbS0Z8ToIArmumzxOQkcAAABkETwCAACkpAM0x3VVLpf18eNHlctltdttDaJBZeJp49Ava9aqw2xT6/i+QRCo2+2q1WrpH/7hH3R7e6tGo6GtrS398Y9/1A8//DDR9+O0dSmC4zgqlUra2NhQvV6XpGRwHcdxnmSZAAAAeN4IHgEAAKaI+3Lc3NzU+vq6giBQ4PvJwDFFhW7Tgsu7uztdX1/r4OBAlUpF9Xpdm5ub+v777/Xjjz+qVCrJdd1wvYJAjjFJc++n4rquPM9LmnRT6QgAAIBpCB4BAACmSFc0xpWFSg2qkm1iXcTy0n+DIFCv11O5XJbrusn1nuepUqnI8zx5npc0uV5ECJhtWk7wCAAAgGkIHgEAADR9gJT0gC2LDtnK5bI8z0tCx3j5cdVhXHkY97UIAAAArBKCRwAAAD1ctbiMyr6478b0DwAAAPBc0BM4AADAioqbUMd/CR4BAADwnBA8AgAArJB0uJhUOkaDxwAAAADPCcEjAADACskNHlP/AwAAAM8FwSMAAAAA4Akw6j0AvHYEjwAAACtilopGKh8BrL68wJEQEgBeI4JHAACAZ4jwEcBqM1P+BwC8JgSPAAAAz0wcOhI+AlhtRoSOAPC6ETwCAAA8A8bw4R0AAADPC8EjAAAAAAAAgMIRPAIAAAAAAAAoHMEjAAAAAAAAgMIRPAIAAAAAAAAoHMEjAAAAAAAAgMIRPAIAAAAAAAAoHMEjAAAAAAAAgMIRPAIAAAAAAAAoHMEjAAAAAAAAgMIRPAIAAAAAAAAoHMEjAAAAAAAAgMIRPAIAAAAAAAAoHMEjAAAAAAAAgMIRPAIAAAAAAAAoHMEjAAAAAAAAgMIRPAIAAAAAAAAoHMEjAAAAAAAAgMIRPAIAAAAAAAAoHMEjAAAAAAAAgMIRPAIAAAAAAAAoHMEjAAAAAAAAgMIRPAIAAAAAAAAoHMEjAAAAAAAAgMIRPAIAAAAAAAAoHMEjAAAAAAAAgMIRPAIAAAAAAAAoHMEjAAAAAAAAgMIRPAIAAAAAAAAoHMEjAAAAAAAAgMIRPAIAAAAAAAAoHMEjAAAAAAAAgMIRPAIAAAAAAAAoHMEjAAAAAAAAgMIRPAIAAAAAAAAoHMEjAAAAAAAAgMIRPAIAAAAAAAAoHMEjAAAAAAAAgMIRPAIAAAAAAAAoHMEjAAAAAAAAgMIRPAIAAAAAAAAoHMEjAAAAAAAAgMIRPAIAAAAAAAAoHMEjAAAAAAAAgMIRPAIAAAAAAAAoHMEjAAAAAAAAgMIRPAIAAAAAAAAoHMEjAAAAAAAAgMIRPAIAAAAAAAAoHMEjAAAAAAAAgMIRPAIAAAAAAAAoHMEjAAAAAAAAgMIRPAIAAAAAAAAoHMEjAAAAAAAAgMIRPAIAAAAAAAAoHMEjAAAAAAAAgMIRPAIAAAAAAAAoHMEjAAAAAAAAgMIRPAIAAAAAAAAoHMEjAAAAAAAAgMIRPAIAAAAAAAAoHMEjAAAAAAAAgMIRPAIAAAAAAAAoHMEjAAAAAAAAgMIRPAIAAAAAAAAoHMEjAAAAAAAAgMIRPAIAAAAAAAAoHMEjAAAAAAAAgMIRPAIAAAAAAAAoHMEjAAAAAAAAgMIRPAIAAAAAAAAoHMEjAADAc2KXvQIAAADAbLxlrwAAAADuZ6IfYHnSiTd7IwAAmA3BIwAAwDPx2uMea59puadZ7DOXXpq1Vmbe5cfbOb6ftRoFj0YyVuyNAABgFjS1BgAAWFFGUcaD5xs6Slp0+/g4Joy32aO3nbWZ0FGirT8AAJgHFY8AAADPii2sgG4ZEdJYNd6cd3wO2ePK1AFmNlZe+BjuR9k1trKyklVUKfkMNjoAAFhZBI8AAAArykqy2VzIpG412amnz+eh5SxOvNJ2/uU+g/JPO/GPJJnFBpJTEtr8oHFiqnA6E4WVNttSnB5HAQDA7AgeAQAAnolRVBf+NTNEd9kplh3dxY8hiC69WFE2d1+/RrPGd1Z6VLlnuovG2ULH5J7Jkq2sjJzUXQkdAQDA7AgeAQAAVtx4L3s283dyiuyU2f+lOPhbnPzYbPF9Hz41k/nf2rBq1YmueVRs98g25nHgGA8uMxwO1Ot11bq7U6fT0dD3ZYNAjuuqUi6r0WioVqupUq7IGGcUVi54cBwAAPByEDwCAAA8C3kxotW00FFK161N1qkteoTBYMnVjdbahdbqpbevEw8SnZlm9i0yPuWDo1Tb9D1G0/a6HZ2enenzzo4ODg91e3sr3/fVWF/T+3fv9Ztf/1ofP37U5samqpWKJIfMEQAAfBWCRwAAgJWWDhaz/2eny5eXHS06TzKymcK9eYLI/LWdKRSz8R+76ALLxKiV8yOaS+c+9rwoeXyBSXeYga9g6Ovmtql/+sd/1P/785/1089/0d6XL7q9u9NwOFS9Xte7d+/0ww8/6Mcffq8ff/xR3376pHq9Mff6AgAApBE8AgAArKz7GkvH191f9bh0YQeFMna8T8qZ+y00Jr8vS2Pmeshm2UNi27C3xLl8TTocpbJ26Kt5c629nV397X/5r/qvf/vf9NPnX7R/eCTfBrKBlQKrynpDf/jxR/3Hf/8fJEn1Wl31el3jdbNFrBgAAHhNCB4BAABWWl5fjvFPoLBR74zB47Kyt5zQz9jZRrUuLDCM5vPUm2AykovLD6cEqDniqUy2sDHaZmEV5H3zGt3e6/X0+ZfP+l9//z/193/3d/r7//E/dNm6U5DZrr1mS//7//xfVUoVffj4UfVaXWtrDW1sbE5ZQ8JHAADwMIJHAACAFWdko58w7jE2jBuNjUMtK9kZhouxSwiLbPJr4uqvChWtlTUP399kHvNit0AYANppg8pMWRlj4/GkNRbahlWj0sPx6WjG/bu2fvrTn/Tf/9vf6u//7u90ftsKpzBG1jHh/INwfn63p//9f/+PNjc3tFZv6K9+85spwSMAAMBsCB4BAABWVBI0RqGjq0COtQqGAw26Xclz5DpOGOA9FOItrdox+mXi0ZEdydj5Q8e8qsl5lj/t8pNIr5kT9fFoxq832enSrPIz1Qf6qXSi7Wut5FvZwNfd5bUOPu/qL3/6R11fXI7mZG0Uyhqla0/bty3t7uxqd2dHJ6en+vjNR1UqFbmue98DBgAAyEXwCAAAsNLCUMhREFU7Wvn9vvrtO/mOI9cxSYjnBKOwMiuulFx8zWM4qIzjOpLjZroMnCMAnGP6sJpytOxRYDd+ebbG3vMySdBoosvhdalxruNRcWYeMvqhgXGiJveuKzmO5IcDyvT7fd1eXOhof197P/1FQ9+XJ2kYzzUIJtfBWh2dHOvg4EAnJye6vvpe29vbcmu1GdcVAABghOARAABgZVk5SbNqK38wUL/bUb/TVq/dluc48qLmssaG004NHqP5aMrtTyUpeHSM5DhyZGRNWHE313zmmN5YKUgldWFFaLgio/zyqaoe47hx9NcxjhzXlayZ+3FL4WOP72etlTFGJie0dKPg0fqB/KEvv9/XsN3RsNPVcNgP76t0D5DKrSS1fiDf92Vt8GRbCQAAvA4EjwAAAM+BNQr6Q/XbbQ3uOuq3OwocR4HjyNhAxobNc11NCRaXUu2YETcvjlZkrhDuayoUx6oeFyFd32jkuZ5KpZKstfL9YBQkTm9pPfZYbWAV2PB+spLjOGEFqTTWb6fjGjnGUxCEwWF/MNCg15UCX6V4xgr3EV/5m8N1HXlu2IS/5JXkeZ4cE0eVS9+DAADAM0PwCAAAsELyKtmkqJ/HQPICybHhX89IbhQ4Gquk4tFdsTK1OESzVrImrMwMc7fZV3Te6SdnMGWAl6JlF2IlWavA98PHb4OHg1CbnZFNKkWlqHW0jUbJNlbWJkmubBQpGiO5rlGlXNb2mw19/PBeneNjNaXJqscUzzV6/25b79+/0+bmhhq1Gv07AgCARyN4BAAAeAYcSZ4x8oyjskzyf8kYSUEYOppR+DirRQx0bcf+2onr553PvIxMqs/FpzMKjUdLsiYaviUIRreYcJ2mPh6TfQ6d8ebhJtWcOxVUJ/M2Ro4xchxP9XpF79691afvPuno9EQ2GsF6WvhY9Yw+vH+vb775qO3tLTUaDRnHoeARAAA8CsEjAADAijAm0wdg3FehtXIkuUYqG1dlx1HZOPKMIzcK1IwjuUHUj+O0ttbRn3RB3dMXR4YVeTY1TLONEq9ZQk+TlPlpbB7mgTunp3WCUSA4NrZNwUwSzhkFYzeMShXTyzdS7vgy4y3Q47Ax+ZWe8fglM36TaxzVqlX97rd/pX/7b/61Wq2mmn/+WR1JA41vAyOpVpJ+/8M/09/8zb/Tv/wXf9T21raM64VTxv1kEj4CAIA5EDwCAACsiGwYZjUaVETGhJVnrpF1HVnXkXFNUo1mgmj0GCuNp14xE7VXttlrn5hJKvzSyVXg2vC63HWNRN0YOjkho3Wl+9c+bJouSXKlICwMVfQnGfW6WKnm0PFaGKOxQsikWjG6Kid5TA8kM/8zZJPtbYxRo1bV7373Ow39oU6Oj3S8v6+zdl8XGt/0VUnfvnuj3//we/37f/c3+hf/8l9pe3t7tOJjq0H6CAAAZkPwCAAA8KTicMtMXJMrU7Zmo+mtJN+RfBOGaIEJ/zeyMrIKTNjXozXKraKLE7f0soMF50ejLZFa8AzdB9q8B/TguhtZJ305DGaD0aXiN4Az5fqxFtjjz77NLSOMmkObxw2oE4e8VuFgMW82N/S7v/or/ef/9J/08eMHfTk81PHxsa6uLjUIAr15/0HffPedfvP73+vHP/xz/fGPf9SH9+/llUpj65MaCntKBSYAAMA4gkcAAIAnYzP/T+/Xz9rJwDDujc/GYaOsfCMNjeQbK0dWxoTBoxsNKxKOepydezhj69hknotlR10UGhNtiQWsQ7o5uTUT1Z6zhJ7FrkvOs/9A5eXjtlIcFFo5jtHm+poatZq2tt7oD3/4gz5/3tHe7q4Oj4/UGw71q9/+Vr/5IQwdv/vtb7S2X6G9mwAAIABJREFU/VbyygqbyQdjVZl27J84ICWABAAA+QgeAQAAntwDoePYVPm3B4rCRycMHYMkfDRR1aPkmGjadLeAqSVYE/cfuJxhr9O1nwtfA6NoKy3LcrZ5OIiMUcl1tFGvyzNGFdfVN2/fqdm6VeA4ev/td3r/zTfa/vhRlY1NKRnFerwXyMdUXwIAgNeN4BEAAGCl2Sg8SsWTZvz2CUtJ9u5nM/GqTUa5eYAprjryNdflGWNULpdVKpe1ubGpX/9GCqyVW6nKe/teWl8blcraQAqGURP317zVAADA1yJ4BAAAWFk287eo+S2eUdTaOVqP+PIs91u5FPVZSY0KbhX9MjIycoyREw1YFD4hcSegYUzsB2Eza0dufr+hAAAADyB4BAAAWAmTDa3HQzerrwvglh/eZbMrsqwFifu6tFY2iPejcBQia61krWwQyMSjaUf9cAaBlTGSiUcgBwAAmBPBIwAAwMqK+m60wYNTzjNPMqTXImpzb+P/lWqGbxVmjlYa+jJBIOs4MsYkk4Qtr6P42y4/uAYAAM8PwSMAAADwUtl0/5rj3X9aWQVBIAW+FFgZ14Rpo436FTXUOQIAgK9D8AgAAAC8RnHxq+OmBpYJY8k4eJSN/qq4QX4AAMDrQfAIAAAAvDLphtPWdWSS4DG6Mh4IKKl6JHQEAADzc5a9AgAAAACWxwRRc+yo78dVGIgIAAC8DASPAAAAwGsSj3KtOGK0Mpm+IAEAAIpA8AgAAAC8EvNGizSwBgAAX4PgEQAAAHilbM5/MUJHAADwtQgeAQAAgFckbmIdTJ3CiNgRAAAUgeARAAAAwEiSOxI+AgCAr0PwCAAAAAAAAKBwBI8AAAAAAAAACkfwCAAAALxWtKYGAABPiOARAAAAABkkAAAoHMEjAAAA8BqZ+0a2BgAA+HoEjwAAAMArZB99IwAAwGwIHgEAAIBXJlvpaGlnDQAAngDBIwAAAAAAAIDCETwCAAAAAAAAKBzBIwAAAAAAAIDCETwCAAA8S4z+AQAAgNVG8AgAALBENvlrxi7H14WXs6dshI4AAABYfQSPAAAASzIWMpr86yWT+TseTQKFMUaj/QwAAODrETwCAAAsWSDJ2PDvBCvlh0GEjpjXDPsMuSMAACiQt+wVAAAAePkm05w4AgokWRtdtlJgwm+GTXR9eLUdXRi7N/AwG/2O9zMb72zJbpQbeQMAAHw1Kh4BAAAW4qFSsvww0UYBkU2mmT10JKrExPNuw33I5O4Q2f0r+z97EQAAmA8VjwAAAE/GKBvWJIWLJl1nZlN/0wHltKBnxiazNidGointUiwtskvvgib6FYePxqSqELL73jTRdLM8oFXa1xb9BKzSYwcAYIkIHgEAAJ7UlATCRpmQSV2RpESz9Olo75k2Z9EUqy3N0jd9EjhKo/0mqqF9MCDLCxpnDCnT91lGELfMDT9rjgsAwAtHU2sAAIAlsJol9Mm9V/Erg1fBmmjg6vFrNV5xm3vPe24DAACYjuARAABgAZLYxoQ/2dDRykSFZekbooklmdT/wGN81Yk/ux4AAHgEmloDAAA8oYfqxMJ+F02S64zlOyZuJWsIflAYmx0kfeqE0d/0zknh41JYG/bJCQDAc0PFIwAAwILMk/VIUZVjKpQEijNTJI4VYKOU2M6UFgMAsFoIHgEAAJ7IxIjSM04LLN20gatJwZ/EtFAxez3hIwDguSF4BAAAWKLcJtY5E1H3iMUyUwaiwVMhZAQAvEQEjwAAAEsw7SRsvI/HeEiZsI9HunjDUzHTQq64X0cGtn5Scf+N1trkJ3t9+jIAAM8Fg8sAAAAsSBwZTMtvstWP6YFlGNUaT8FYiURxNUwLFY0xVD8CAJ4tKh4BAAAWIC9ScFK3mcx14Q0mCiPS5Y7pOeXN1U75AUIP7UGT+wz7z1OZNVA0ybEAAIDnhYpHAACABYtbr0r53wKn4wVrJZsKIG0yRTqIjOfGEDarKP0MLW8drNI1t2P1s2Mrl54ufWN0vY1vn/MRLXsDrCoTb5j7QsU4CJ4leJxlfgAALA7BIwAAwBJMi27G4gIbVkSF2YQT3mpNmP38f/bu9LmRLc3v++85mQC4F/edtbm7Z2Jsa7Gkd3Lolf9uOxyWFNGaUch2WNKoZ7pvq+9S91axbhWLG5Y8j1/kgsRGsqpAECx+PxUsAgkgM5E4AIEfnnPOxPBRE9Z8l8twX2YXPlrtVBkWlktc8uIaLvlQwu3u1XiiurEL9mNqQ/MUwI0eNxtYPrqvWcyKYue7TC817jVgnu4/AOApIngEAAC4J+PCpvqy4cuHI4KyzilWIWO/4rHfQ/OOkZZJYpy4BzWbCGi0Mq7qoVtcZLVrlSGkvCi+Mx+ziqHRSV3DV7hlf4ZWMwsDuds8hG+3fTHganc6al+31W531O601W631e50tLS4qKWlJa2urmpxYWlWOwwAwFQQPAIAANyjcZHHTeHjeF4brTEPH2MtPbKh62KexXtef1C/W7RkeZrYz9+K5jE4YqgX+2WDoWMZMNq4br53bWc+9uTTNH5IBC8qmz/8+qt+evNGb9680U8//aTr62tdt9s6PDzU0eGRXr56qeNDgkcAwONC8AgAADBjN3VgHQkRvZ8UueWBY1bkQ2VX2YHKNenmykaqHmfABn6VYeNs6u6iqvDRhioVxyWPlTJ8TAZvUvbJtrJv9pe0H3+Y0LFe2vkQxm57uMbZ9OnTB707PdU//MM/6L/+1/+qH374i77/4Sddt6/V63Z0cHCkg8ND/S+//jP1ul1tb29rZXnthvUCADA/CB4BAABm5LOjAfeq1tHNq2goSkWolFeyhdokxPVccXi8SMKJWSnGShwzzJ4NnLiHx8NNVfVisX4f6Jpfn7G63776OzhURjtQpHfHcUR9KFyz/tZmxep3YOBJMeMU8tbgM+iXX97oP/zt3+r3v/+9/u2//b/09vSdzj5+VDfLFGPUytKyFpeX9P1f/jednp7qX/6rf6X/6W/+SW0D/Y31z91lTEgAAO4fwSMAAMADGo5ihnu6ei00iVb+WFHt2K8ky88OhUiTNoD7VYWK/fCv7Op872HQ0AbyYRu9mMfahwLIwQpGt7JLtt8S0N1SwTgwlsDsG1x1H8YmvprBg3A3WfdaV9dt/eM//oP+/b/7t/oPf/e3+tv/+H/Le4PXu/jYlvRe/37536nb7Wh1bU0nJydaWFhQq9GSNGnUyLm5qwCAJ4zgEQAAYEbu0lF1sErRa1WPVv0LsjxXKarQzF2hmrHYB+a7DvVgKZbVcLhXLpXdnS0Uj14Z5Fn9SvcVC1UlhmXcqCDPH/+yTbnk5kpGKhmDbk/pbHKgOKbKc/TC+9Ov8xs+3jZ4eg5cnp3ph59+1P/3//4/+j//j/9d//jHfxwJHesvGn//X/5ep6fv9OLFC/3ut7/V3v6+drd3ho7quLE45+P+AgCeJoJHAACABzQ80UxdfUIZKa9cC9FlWZR1Y1VY5zEq8yhzl5krUZQryOT9mNFn2dEVUvHYVjmY9bOv++pmXd9yreu9F4+9uxc9j73asWhBod2RGm1ZCFIIVTf+XJiwjRsC7HHjiLrJZhJ6F/trY8JRu+0+TdEdKj0/np7quz/8Qd/9t/+m7/7+Dzrv1G4uyYqHo5dJcqnXkd58f6rv/vuf9d2fv9PC4oJ2tnc0Oobn8OCWN6bBAADcK4JHAACAGRqOAsplPmHiYC8q1IIHKZPUdambKXZ7ii5lMUrdntwzJSYFk+qhUH2VzsQyM2PDXZWLIMoHFt/H4zFYrWhlRaP3H/+iSeVhZHSlrby7bh46hiokHaydra31xl7YPtK2VduHWfAq4B2zo7Me41GqJgcfdvrTG/3jf/4v+v6Pf9RFETqG4sdMShKp0Qi6bEdlWf92b3/5Rd9990cdHBxo8KAOh47DLypUPwIAZo/gEQAA4AEMBoL9gGY4F8kDomJhFhU7XXk7k7czZZ7JepliryePPXkwJcEVq3K34dhhduHPk1X18O1HzF79n5+fScXjwD4Uk1KXZ4oQMroUskzNi4Ysep5aW1A0U6Z8LNH86oON8kuDx1nm3lYbVHNkf2YYPk66yy7p+uxMFx8/qndxkU8SJWlBUpX3upT14shKLi7P9enTmTqd69oW6l9p3BQ+AgAwWwSPAAAAD+xO8YBLsZcpU0dZu6Os05ZlmdTLZN1uHjwmphjycR6loQ6lXgu+cE9qQV8V2nne1dnrM0jf12MxVO2ofMKYIJMVE8eUzcDdlUWXej2lSUNJFuVmyoIVwWP+ezCrrnUXn7DvecY4rqt18d8smt9NM/nYbGZ7rt/NsR3MTepeXyuJUQ2ZFiX1JC0V1+/lhc3qZlIcOmadTkfdXjZUwXzTKwjhIwDg4RA8AgAAPAImKZUpDYmCS8pclrmCl9OYSIlLIcYqeLTa//3Qh+Dxvln9OIdyVukieCzDonvJgUbH+gvuA8MdVuGje36Zu8yjEndFWZ56hcGqRa+t9rahC8c1sVAsm1nLKyssawe5it6q8uL7Va8/TMZc7i4ttVra3tzS+uqaFiR1lH84i56HkFnxM3zcNjY2tH+wr+Xl5fvafQAApobgEQAA4BEwSY001UKjqYYFhehqmKkZEiWJF+PaFSFTUWNlbrWqR7pdzszQsHouK8Z2HO5mfd9jPJZVrwOdrssIVFEmC4maaSqlDSVmSsyUmpSFfnw9EmPf0lXZa+ljdc1apeXM2GDwWC2ewaaHaxFHLjdpfWVNJweH2tnYUkt55psU14/FT3Xb2ixURweH+s3r/0Hr6+v3tPcAAEwPwSMAAMAjEJR3mU0tDxPLSsdEUiKTlyGj92OmPIQcHvtND1L0+ABzeswPG/o94xDYhh73Mgg15RWz1S6VM29b3s7i4E6XVxqdOGeI1+5b6C/ML5lFQ6jnuibFB2p7Nz3NXNLK4pL2t3f0+tUr/cu/+St9/+c/6e1FJy86HXOb/eN1PT95qb/5m7/RycmJVldX72fHAQCYIoJHAACAR6Ef5uT/R+WzFg+OGZhHQ2W1mVXL+ut4OLMZXW++VI9a9d9wd+j7Zv3jbkVP42KmmdFHox6GukKtpUlFl/4JQycObrJsl7VVBknRqrZ5r4pDW26pDFdnPql7kR5O2uzi4oK2trf0u9/+Tp/+zb/Rf/z9ok7/7j9VNx0+zn/z1/+j/vW//l/1T/7nf6qjoyM1Gq0x1+qn3DayDACA2SN4BAAAeExscJ7ksjqqmAdkJNgZGzncNlDfvTD5g2y3v/2HN+v7X08Jy9RxcDd84mGx/mXDu33jrNb5f27jrjq7++/VNN71CX/6248m2dhZX2YnTVMtLi7q6PhIUa7lpSWtb2zq9PSdfvn4q9pJULeZau1gTzs7e/oX/+Jf6J/+03+mV69ea2lxWaPVqP3T40PHeXgOAACeGoJHAACAR2A4IPLy/9ryIK9VOVrVvdmGb/MgHjp0fLjtj+9UPZvKv3FVpkM9kSca3sNo5ZH0seuV6oHf0FoeIuSrxtMc7uuedzG/z0fAx/WVrjFJSRIUQlP7+/ta39zU/v6+/uqv/1p//u47/f2f/qhsoaWwvKjnf/1X+t3v/kpHx8c6OjrR4sKiTKkGZ0gfO4X3hNMAAMwOwSMAAMBjYv0ZkqtO1JYP+OiSLJZL88BlsJv1fU5qMq+Guzc/pIc97m5W9Tce2JMbqh7r1x2cM2fyfalfVm3tliBumoYrGT342MuHl89W8cWAmVqtplqtlhppqvX1DW1tbWnr+Ei2uKjG2oq2jo90eHSs1dU1raysymxcR+zR9Q/+BgDgYRA8AgAAPLBJFWg3hTujIVYRLNZ61NZr04ajoKdj1mMqjmGjj+3slFvOA+nB7tM+2v29GI9xtFt8Wev4uWN1zv6Y31Zt6GE2s2vfuIVaL3gLQUlItL6xofXtbe3u7Ojo9SulKytqra2qsbKiZHF58MZ3CtMJHQEAD4/gEQAAYMZGAolq0o/Jt/Cqr2o5smO5vIwXY36JuUIVWeaTeVTb689yMmPzEHY+XPTX34MZHgcbfOytXOZeGx20HnkPdtvPrzU+wctDOxvfXn3oRJWRPcy4ohO3XA6Kem9q9/+myyXJXdGjkphJwRSCqdloqNVsqtloSUlDxdQ+un2nCRsBAPOF4BEAAGCGbosNRqoebVJc5QMhz7iJZfIw6b4DlruodQl/UA+9/VkaDR2rcNHrnfXL0DEW1yweKw9yy2S18NGrANFk5vLJM9OM3ZdZRmL9DuU3bPUed6g/l/zNbS5/OFyeZYoxk7pd9XpddbuZkk5HjW5H1m1ISZo/hlaWSo4buxIAgPlD8AgAADAjkyKI2yf7KMOhoo6xPllxUb1mI5N6aM5yiacU+s0bl7vLqhDaaz9F5WO/f35+i2IgxLzS1oqAsgwm89AxnyX6tsblA+179mpjoT7Atica+HbBa79c7lHyqOAui148RMWxtuEVjJ11auxFAAA8BIJHAACAOTW+i2jtpwyMyosszybd8o6ZVg8qyP2erGqUx7KtVL+Lk16EkIN98mvXzbtd1yctUhU63qVhzVk361mqqhNvM+Y6w93WP/PmAADMA4JHAACAR8yLrrO1JRoMh9SfVOTBxtrDQ6vHhFUFoo0ZM9D61x8unvP6Wh5+yMxb1CsdH25Soc8JHetP0bsd2tqDNeEiAAAeGsEjAADAI+FVkNEfo0/ShAk8xiVDhI5PWd5E+qMfVoaaSTl10cD8J0OnTJZXUN4YcD3h9GsgdBwdA8Gq/NbvPEc1AACPEcEjAADAI+FSPgN28Ts/UcRE1RiPtYrHgfCR0BGDlYxRUqgnXSPDBbpUTC4zGmEXY0beujV7wDRtHtr8uH0Y7qY+GDt+1uGah7sIAMANwu1XAQAAwHwjfQAAAMD8IXgEAAAAAAAAMHUEjwAAAAAAAACmjuARAAAAAAAAwNQRPAIAAAAAAACYOoJHAAAAAAAAAFNH8AgAAAAAAABg6ggeAQAAAAAAAEwdwSMAAAAAAACAqSN4BAAAAAAAADB1BI8AAAAAAAAApo7gEQAAAAAAAMDUETwCAAAAAAAAmDqCRwAAAACYFyaZTGYPvSMAAHw9gkcAAAAAmBsmEToCAL4RBI8AAAAAMAdMNiZzJIUEADxe6UPvAAAAAAA8FSZJPmH5F60MAID5RfAIAAAAAPdkJGgselK7yt/9KkcrfsJIokjCCAB4nAgeAQAAAGDa/Oa40ORyr3et7sePVkwwM3QDAAAeHcZ4BAAAePRIJIC5MqYr9eBlUT7hecuzGQDwLSF4BAAAeMRcwxmHjT1nNyYhAGbJ3W4OJwEA+EYQPAIAADxGXuQWVYBxS52Uj5stF8A8MbOpljyOfjEBAMBsMcYjAADAYzIhRfByuUnmtetazMPJ8uIHSCGcxBO4lU35eeJDp3kaAgAeAhWPAAAAc2owKMhrl1wudy+qHUevNZJMkvphonIO5Un4qPAwiselemimU7dI5SMA4CFQ8QgAADAjpvEf/svloxGQD12rv6gMH91VzIzrtXXY+FXobr2y8S0rH3wf+JWftqLsbriBjGswdocyOhra5Gf9uOvlP6a7Vj/e/AAMb5lHAwDwEAgeAQAAZmhi+DghFRiMgawIG10e66GDDYSO5jcEHaQPkDTYEm8KG23MsknnMd7nHqfhxyMWv8tnef1xm+6WAQCYNvpPAAAAzJhN+JFUG6yxPD9667zKMe9yPbxWlxRtcBnTymB8axsOuMrzoXZeY05j+vrHd/zXBj7hUjpQAwDmG8EjAADAnBhfT+Yjl+WhY5FRjskdQm2ZjTmFp2mwqdS744+pePQxoaPXfmhP0zfucRi8wi3nAQCYPwSPAAAAj4RFqQwbymrHcdFDJBMCAADAHGCMRwAAgEfA6yd8cKl7Nfpjvqj8atldLisuE0VqAAAAmCmCRwAAgEfDB3JHr/03ME1IHLwNAAAA8BDoag0AAPCNM7JHAAAAPACCRwAAAAAAAABTR/AIAAAAAAAAYOoIHgEAAAAAAABMHcEjAAAAAAAAgKkjeAQAAAAAAAAwdQSPAAAAAAAAAKaO4BEAAAAAAADA1BE8AgAAAAAAAJg6gkcAAAAAAAAAU0fwCAAAAAAAAGDqCB4BAAAAAAAATB3BIwAAAAAAAICpI3gEAAAAAAAAMHUEjwAAAAAAAACmjuARAAAAAL4V/tA7AABAX/rQOwAAAAAA34Ra6GeyL1pF/3bDt7/tPAAA84fgEQAAAAC+1h1Cx8lRoQ1e7nddw9B5qh0BAHOG4BEAAAAAvsZA6DjMJiwfd73h65ry0bFMcisuMFHtCAB4LAgeAQAAAJBlTcGk0PEugiS5ZF4Ei37bbYvLqXIEAMwxJpcBAAAAUBj9eEAeOccIHQEAc47gEQAAAHiCgiSZ1ZLFwY8GBI4AAOBrETwCAAAAT9L4aDHUyugIHwEAwNcgeAQAAACeqEnBIoEjAACYBiaXAQAAmGvDEZDrcwd2i8xBgTuJGj9jsufLbMwy3OLzjpNXc8rc8dnKQwAAmHMEjwAAAHNvXLpwc6DhJpJG5E3gLu2gbEphcNGkm1r9NqgO1vhnpVf/Tz5kpliuQC4f+wVDfQ1e3Q4AgHlG8AgAAPAo1AOGuyeKZVThwwVreGKK8OumJNJq17W85eSLxo/OdKfw0Z9e/n1TJDg5fKyeqXIvY8cyfIz5b6tHwTybAQCPA8EjAADA3LLaT8mHTo+prwp5buRDF9E59um6MfyruvbaUCMpz0SNDR9pTIMGnqauenRbd9Nj0Q9z/Q7HlxASADD/CB4BAAC+cQSOwEO5a71nEVFa/kw1+/zhFQAAmEfMag0AAAAAAABg6ggeAQAAAAAAAEwdwSMAAAAAAACAqSN4BAAAAAAAADB1BI8AAAAAAAAApo7gEQAAAAAAAMDUETwCAAAAAAAAmDqCRwAAAAAAAABTR/AIAAAAAAAAYOoIHgEAAAAAAABMHcEjAAAAAAAAgKkjeAQAAAAAAAAwdQSPAAAAAAAAAKaO4BEAAAAAAADA1BE8AgAAAAAAAJg6gkcAAAAAAAAAU0fwCAAAAAAAAGDqCB4BAAAAAADwVdxd7v7Qu4E5Q/AIAAAAAAAAYOoIHgEAAAAAAABMHcEjAAAAAAAAvljZxdrMHnhPMG/Sh94BAAAAAAAAPE71cR3HjfF4WxhJaPltI3gEAAD4pjCoOz4Dn/EAAF+pHhi2221dXFyo3W4rxqiFhQWtr68rSZI73R7fHoJHAACAR8MkWZUVmSxfNJI1ukYTpXHLgJIN/Bpz5n7U2y7NEwAevW63q19//VUfP37U9fW1VldXlSRJ9XuYuxM8fuMIHgEAAB4bs9qb9LHJ48AyG1jGm/unrmwZbvUYWyqD7f6Fs6mepVUCwLej1+vp48eP+tOf/qTvvvtOaZrq5cuXOj4+1t7entbX17W8vEzY+IQQPAIAADwqVv2YWa0G0od+eEOPyaIpDxcl3d5W7m8+Si/+d1mec9JsAeBRy7JM5+fn+v777/V3f/d36nQ6+uGHH/Tb3/5Wv/vd73R0dKSdnR0tLCzIzJSEoJAkBJHfMIJHAACARyFI9U7WVgSQVoSOPvyG3ctrzm4X8bi5FYmk8uZWtql7bEKT6nW/HdM8eHdcFwEugAdkZgohKIQgM9Pl5aW+//57XV9f682bN9rb29PBwYF2d3e1vb2tjY0Nra2tKU2Jp75VPLIAAACzNikY8NGz9Z8oKY8Sy4rHehiZSbKi+2x5vVpv2bkLIj4nbpq7nX+8akmfW3HSvdYm81YWYqgySEnycWNA9hvbeF47cdPD7UV+Xt7msT7cA/fxayL/u1ai2vjrPNbjB+CbYGYKRfhoZrq+vtbbt2/1/v17/elPf9LW1pYODw/14sULvXr1SkdHR3J3LS0tKU3TgdAS3waCRwAAgFnyod/SxKDAJUWzIvSp/ViSh44W8njDXXmJWtRgslRbtStPd8YVRz4Ecsd7N9jU8v9j2VykCeF3GVu7Eje5WR5FViFlf1Kj8vztO2KyCVccmzM+5vBRXzqtU/05rqHfYej8Iz44AL55ZmVvjP75Mkx0d52fn+vHH3+sumMfHh7q5ORE+/v72tnZ0dramlZWVtRoNMau33307wkh5XwjeAQAAJiVSSHNLclEtLLqMQ8hzExmafG+Pg8ay3Cy3nW1XGK1sHEW3VqH5ySZFHS6/Pb5S8xmNcfJvXi4kLdeQpgbqGC8bb+KNmmex15Ztdra5DO3Krv7l//f/EA+6m7XxY5PGvDg87LUSRWPEyYCAoA5ZrXqR3fX1dWVrq6u9PbtW0nS999/rzdv3ujly5d69eqV9vb2tLW1peXlZS0tLY2EiuV68HgQPAIAAMzaHVOIvNoxDxy96Ebdr3os4hwzRZOsCILG9X4dDnTMvbau6XrMIeG3YvAhMPnwgxLU7/1sY5pjvVSynITGhkOvu7h72GhD578d/WP1ZeFjeZqQEcC36ezsTN99950+fvyoH374Qbu7u9rd3dX+/r729/e1vr6u1dVVJUlS3YYKx8eF4BEAAGBWhlMWDZ6uxtzTaMxQFpiV4zx6NQVwMQKkxf5pRUmhf84Gw5x+sdr0B4C8a4XfuB7n45T1nOMv5IPHsMnHMy9fLIdz9KIhxglXHUkD70m9IhAA8PRcXV3p/Pxcp6en+v7777W5uand3V09f/5cZ2dnOjg40N7e3sQKSMw/gkcAAIBZumE8x35k2F8mq42nZ8Vs1lZex4sKx6ioqKAok8vlihbzwjYP/XXplslAHsIt+zMpkJq3uzGvxgaLRRc1d1fwegRca321Axy/8mDfGiryYALAk2O1nhsh5H972u223r9/r+vra338+FF/+ctfdHBwoMPDQ+3v7+tgf1/P1te1trZW3Qbzj+ARAADgAfiY07GoQ6vinwk9LN0kt7IO0PP+zZ5XPLpcZuV6TKZYq2sMta0gw8BPAAAgAElEQVQ9ljfskyYlmTxhyTya3Z72G0w9dCyraasf77c1dx/TzGqB94T13wtCSAB4MurhY4xRvV5P3W63qoBM01Q//fSTfvjhB718+VJnZ2c6PDzU3t6elpaW1Gq1lCQJVZBzjuARAABgRsaFjaV6R+naXJC1f32huHG/ljHmvY69XFN/Cy5Vt3aLtTXVaysfJ8aWH5UHzxO6UFfX6M9IPTJA/9BYjh766bd9TSrIZ0IAgAbDxlL5t6isYrSih4e768OHD7q8vNSnszO9efNGh4eHOjo60s72tra2t7W2tqbV1VWlaToxgHR3wskHRPAIAAAwY+PysqB+ZBgGfvI6xcSlxKREeYZTdpENypeVE4XM6+QuE8dp/Io1YlBZtzg5dCyv6JL7UMg9zIZyaT6wAQCmqz5DdRk2lqdLl5eX+vjxo87Pz/X23Tudnp7q3bt31eQzu7u72tnZ0crKipaXl5UkyUg37OHtYLYIHgEAAOaE5X1gZSF/U5zKlJqpYUGJBaVuCjJZdHkWq/EeB8LGfunjfJnDXQIAAPOnHhKGENRoNCTlY0C+e/dOl5eX+umnn7S0tKSDgwMdHBzo5OREx8fHWl1d1erq6tiAMcaoEEIVRJaVkISR94vgEQAAYAZumsV5eJLr8nxipjSEouLRlciUuGTRZVmUkqBQzhfjmstZnn1CB3NyyPtQdKz3wZnLvWogAAA8LiGEqoKx1+vp7OxMZ2dn1eW//PKLfv75Z52dneny8rKqgFxaWtLS0tJA9208DIJHAACAGSjrEOv1iCOBo9lAeNhKG3m1o0vWzWSJKbhkmUuZK5gUzIqKx3wmkDxkGl7zuNM3j+84tdmkB1ZUuzUDNN4TH6iC/doZqQEAmGdnZ2dVIPnHP/4xn/26VgG5tramlZUVSVKSJNXtqHScHYJHAACAGbGh3wPGDLgXXEpdSmI/aEzdlCgoKMnHf3RT4olcrmgu80SyTHIpeBhcpdudksObIsGbxwUcNanjdz4ntc+2EG9eB8CcKht9kKYS8n7uI4/PNXCExz1mPAQAvjEjE5yNufymCWMk6erqStfX13r//r3MTD///LN++uknffz4saqA3N7e1uLiohYWFqoKSkLH2SF4BAAAeAh3yIK801Hs9WTdTEl0hSJMbCYNLaRNpeYK0RXclXfEzucrzt+MF3MQl31uzb8isxi+5RcEWSOVj2V55gzDwFlv7yGMCa/Lqsd68P15R6Feq8sHtfvgnhc7ezHOaznrOAA8Nl5MYDbV9d3xMnfXx48f1e12dX5+rj//+c86OjrSwcFB1QV7bW1Na2trajabU9vHSftFuJkjeAQAAJiF296Du/q5Tqcndbu6+HCmi1/PFNsdNUOiphI1LMgzV9aN8mqARytixvKn3426iB+HRloc3hmvrjdq3PJ+dHVbEaEPXMdqy60ISmf1przYiSf0IaA87PXw8evWRvh4L6oBYL0qWC0SyKErcdwBPA6z+N5kUiB5fX2tTqejs7Mz/fjjjzo9PdXPP/9cTUKzt7en3d3dqgt2fQzJae/XTRWbTwnBIwAAwEOpzTjjyntIqyfpvK3LT+f69ZdTvfv5F2VnmZ4lz7SYNLToC4rnURfvLpQuLcoWWnmAF3oyC5Jliur10758qmyZ5wP/1SupqijDxn9IiLXTo2/Jy/KsrzCzN+PDo2s+pBncZ8sD6PpwnzYmbr6bWuBV7rp/ZgjGZ66bWTnkQD2Yr5uHdgsAj0MIoRrLMcaod+/e6ezsTG/evNEf//hHHR8f6/DwUMfHx9rf39f6+no1BiTuB8EjAADALAwOtlh1gXaXrJv/6Lyj7vmVrj5c6PzDJ3385UyXv1xo8cOi9sOBUje1eonir4kuvKd02ZUsm5ppqrSZKGlKlkYloSeFntx6iurmwYYNbL3Sr4Tz2kzI9R12mUuxOB/UzxvLmsXPue8PM6fMuKl9Zrntcafvb3OmfJKi/J7WpjKqAq763njtR8rj5qCRCrt6ON2fRv2WnRk81k8hf6wflZHjf5fbFl2tVe+qGHW3ww0Aj8ht4ztKN3dVvmnsx/JHki4uLnR2dqYPHz5Us1+/f/9eHz580Pv377W/v6/t7W0tLCxoYWFBjUZDaZreWqlYbmOa1ZLfKoJHAACAGXMVRWleBA0XUjxr6/T7t3r/wy/qnLV19fFS7bMrdT61tdxd1lLaUuz2pOue4lvTxw9X6rQyXSx2tLKypOVnDS2tNtVaDlIjk5KOFK5k1pUnRZhUBEb1gNFrgVL9I0AZW+W7mf8fqtzq86aXGckzH2pG64cKbgaq2e5/J1zFTOfVpiYFrj5UyTo+3SpjyTj2kr7b5kn/prOz2iEe37qHQlgrv3gYGgTB82XVsR7ocj358Zm0SwAwa/XQb1x49zndj7+kq3KMcWT7ZqYYozqdjt6+fatPnz7phx9+0Orqqg4PD6sKyIODA62vr2ttbW1gBuxx+9Xr9eTuajQaN+7juID1qXW/JngEAACYIZcrkyuVSR1J19LVuwt9+ulXvfvvb3X63VvpPFPvoidru9J2QwvpgtIkqJd11Ot2FduZoruuk6DYiNJqVLyK8rZLXVNjMVFYTKVmqpAGRSvHjhvqwBmKUKkWmETrVzVWUZnlFZrR8vEC+/dlJFa8WRk6zrLwcB7e25tpqJz0PjcmqQiLq5yqPx6nV5fWW8PweIJl1WN/lbG63uT7UYZlNwWQ33z4KJWDNPYXDLf3WpXxwG/PH5W88tGHnq+fFzoCwEMZDtruEj7eFM7dpTJyWIxRZqYQQnV7d1eWZTo/P9f5+bkkKUmSagzIX3/9VR8+fNDe3l41Cc3y8vLY6sfhfa+fN7Mv2udvGcEjAADAfRkIG3ww3smk3qee2u+v9POfftYv//CTOqdX6py21bgOSruJkixRwxtq9poK0ZTGhjLryUMmjyaPJrVNlz1X5+pKncuu2hcNLW+kWtowpWlTnkhJyJOPzKOkqKAiJPJyOMB+xFGGRlbMW1NNDFP21LXa9e74vtqL8Ks+zc2scjgbDndmrnZ/Z3Cn+xP2eC10dAV58eGoH0COTjtUni8TZhtoF2WweFuhxsioApMum7aHLv0b2f5gCWQV5BfPu/II5zPA9q9jsexq/fW7882GvAAevduqGb90YpbhyV1uUh8D8v3pqb777rtqEppyLMitra2xY0CmaTpxH+vh41OrbhyH4BHAfPiSN9e8hgN4FPrVTPmUH5IySW3p4vRc74sqx9M/v1VyZUqvTMoShZgoeENBqeSJortcSfEGNpEFyd3kLmW9qOyiJ/dMsZcp2IKSRqq01ZS1GnnXW/UU1M0nnpErsbxbZyzSiTIIqY9IV05OYlFDl9STFP/Ml+Oys/asg8ByoLxZM0khv79WHdV7Vv8gVDyqXjxOMe807bUQuX67PHTMz0WpGDMyl9S6i9/9XtTazT1XgEzap1kVntx2TMqgNxT1pqGojMy7JRYPTXGdkSpU3vMA+AbdFgzeV+VgvZqy3W7r+vpaV1dXev/rr3r//r1++eUXnZ6e6vT0VCfHx9rd29Pi4qIWFhbUarVkZtXPbdsAwSOAeXBPHwgocMd94q0E7sSq/wbyl9AxxbOuPvx4qu//83/X9S8X6n1oq+kLaqqplrWUJqksJrIY5J5IMQ4FKKYQEpmFIrgIip2u2h512cyUNIMWlhIli4ksRCl0ZZISi4ohk3sxbmORI9YDyIGtjAzs9yWvrrWVzPzJU694fKi/DJlqUe49G+7o7DKPRVxcVD5K+e9YTg80PI5gGTq6rF8DW/x/h/sx3M1uYM0ae27a6r2bH+L1etI286Pp/eeVxapKtawiDh6LoNjLBfe+vwDwVAx3i242m1WF4vX1ddXt+scff9Qf/vAHPX/+XCcnJzo8PNT+/v5IBSQB4+0IHgF8k3iLjvtGFzZ8sShlFz1dnl7o05uP+vD9qdJzqdlO1QipWtZS0xsyT6UYJA/ycjBGs2LsvqKKzhIFS/LXPMu7Xsdups4n11Wjp+UV0+JCKrVaUmpSyCTLFDxWk8rkI8mVoYfXqq5Kg8GHDeRTn1vt+BDPm+HgcdZ/IWYVOJbKkLO+9fxxCp6PL2qe//SrT0uuPIlWNSZo3jXbqtgxjx5vuj/DI4nWY8cy/ry/x8DGnJ7VI37TUckDx6EU31RMK5+Hw/3QuAwdb8Z7HQC42aTuzvXzIQSFENTr9RRjVLfb1eXlpT59+qT379/r/Pxc79+/1/v37/Xrr79W4ePS0pIWFxfVarWUpkRrN+HoAHi8bkh+hsdxB+7DuCZIu8Mk1XB7Ubr+dKXTN+/06d2ZOmfXamRLWkhbanlTDU8UeuXYQGU37aGWZVatLxbjC5kSWWhICmpfdRU/9rS41lFjKVFqqZSY8lAqy6usrAyA+l2QY9kZtDb5xfCb9fIyN8k8fkab96LKctbibdMt37MieIx5WDy7bda2ZnkFXTRTLLpYZ7LqdzQpsbLc1RTN5GXILRXtrd/N+sYu4+5FOj08xpapnO9GY7t5f73+5DlDuyTdf/Y7aXzHQh45BgVFFSWnxRw+LsUqf6yi8epZOSZJ5e8MANzuLmNElpWO5WQ0SZJUE9KUM2G/e/dO5+fnevv2rf70pz9pf39fBwcHOjk50cHBgXZ2dggeb8HRAfDw7unDANVoeAi0O0xkkkfJetLlxYXe/3Kqy08X8m5UKlMjTZVmQSGTkiJQLCOIWMzs4sonhymTCy+jwjwFVDBTdFOvFxUvu7q86Kp53tRKq5HPcq2GZN18XVbGG1FVfGjDoYbfGBC5jRmvsf4m36v/HjgsGYlzhtxwJ7/6SV1UqCazqnzsb6PqzVve/yhF82K80CL3SlPFJFUSEsUQpBDkZooKxdig+RhWYaByc/J98YHQ0Qe+oSnD9HKyoWmrt9WZfwFZe+4MVlr2/ze5stpImUqUP6ctqHy6exEIWwiyNJVCyKtQzfLTCrpLO+JvEYCHUg/z8qFgZv8O4KYKx3HL6pWRw8uvr691fX2ty8tLffz4UR8/ftTp6ak+fPig9+/f6/DwUNvb2wMVkHS/HkTwCAAAMCPmkrrS5fmlPr7/Vd3LthpJQ6k31LBEqYKCTIkHBZfyHtZ53VksQsI8qMgno6h1FJKUd5M2N3lm6nVd10X4uLDWUjMmUpJJIZMXwaPLFc2LqS40lFaUHxRiEarYmMtGQ8V8WEuT/ObQcnbGj2FYuvXDwVQ+PJjMZ9nlevCxquZTTwavFUyytCFLm1LakCzUqh2r0QglsyLiro3zOOm4eG175d54raV42dbu4YNo7TlRX/vM2qEPBp7lfS67ltvInklVXWrxBHSZQpKqIVdoNqU0lZJESoLKBzB/PRjfrRwAHloIQTFGZVlWhY+zdJfQr7zOXSoikyR/7S1DyLdv3+rs7Ew//vij1tfXdXR0pOPjY7148UIHBwfa3t5Wq9WauM4vna37MUvLPuztdnukUTy1gwFgdvq9+Lz22SP/IO39r/1v5Rr8QFEVVoz7Vqvo5gVM5LXRyeqnVfsGNISiefVrvKpRu0aqxYC+Rkzklz31PrX16+k7XZ5fyLuZUkuVeKIQTcFNSbS84lGSR1csxlcMcmWKksUqjBwWLO/Oa5YoeqLOddTleVeNj20tmMlb14rppbLQlpQpWlmB5gOvp/U4MdbTHNXb+EC0U52qv9a6D1/vodQrHYeDx9tuO53gMf95iD7f5StUHoC5lRPHFJV1SapGr6fQaPVDRwtFlW1/bMd6xaPdODt3v7plqJP+QAWshtrV1Ny1ud3X+wGv/+qHsPks4uVzuXbF+g5V4bSpZ1Lzuq3G9ZWShZZCa0GeNqS0oXbxgb4Ms+tjbvaHYy1fI+bh+QfgW1VmRiGE6vy7d+90dnamq6sruXt12UPs19dep349d1ev11Ov19P19bU+fvyoDx8+6NOnT/r111/18eNHvX//XgcHB9UENAsLC2o0Gk8+W0t7vZ4+ffqk09NTXV1dqdvtPkgpLICnZVzwWHXBKsPHz3wtqro4WX8LAy/xxfIn/rqPCW5qblXQaEX7sdGPc/NR2YV51oiJ/DxTdtHRpzcflF11FHpBqRIlsYgOMqtmu80rp4oEUmUAWZt0wsrXyeK1s2ijCiaLiRQStbuZsvMrdZKOQrunrHmtXuNSveS66rZdVj5WQfqY8HHk6XFLV9mym9V8GK52HOpMPiEcHVj8Nc/vqpR0lhWPQztg9S71Ji9761qQh0SW5O3FQ8iXlRWNVgZbxX3wwdDRRoLUWGxxXPBY7Evt9318ELtru7uvD4Hl9qv3NPm5gS+yxj93yidefnwzkxqtltKFBaWtpkKrJU9TxaShbnRlWSw7wlerCyNrm/Q4AMB01V9Tz87O9ObNG3369EkxRiVJ8s0Gb51ORz///LM+fPign378Uf+wva2joyOdnJzo1atX2t3d1bNnzwa6X3+rx+Im6fX1td68eaM//OEPVSodY7z9lgDwhQZ78pXBY63C0X3go8lNL831Lk2D6x8fMFL1iC81ru3MS6yCx6GZpWr0EjW6QeFaSq8SpZ2m0mgKHmRKqtChjBfrsV+QlJWvlTbYU7V8rSwD8BikniTv9XR50VPWvtbV6aXajQtdN87VDdeKcnlRPenBB2sCv6Kt96vO49BkMg/5/tKHfm659kgY+bV/OB4qeCzvb/HoWqxVaLtkSTGeYxk0BlUzp1cTytS/yAtV8D15Zut+q7XhZfXjep+HojaZTX/zQ4/7fX7wK7aXZ87+mZW/+X5lktJGQ0mzoSRNpUZDMUkUQ6qOu/Lp50P+MA4NulCtqQph+WsF4H7Vw7Srq6tqFugsy6quyt+ieg/iq6srfTo/19nZWVUJ+fz5cx0fH2tzc1PLS0tKG42H3uUHkV5cXOgvf/mLfv/73+uXX37R+fk5wSOAe1V9DvC8G1A9eMyLyfrdu8YFj8PnR4v3rb+ecZcQPOJz1D9Axn7tyjCaFW7TyhraaD3TZuuZtpY2tbOwq9BzWczH/zO3ooKsDHuGq/RGu1fXz5cTdrjyqsXMXZ2sp+v2pd6fv9XbzjudhQ/6lJzpKrmuQsfM+tVYPjBcgN0pKgxjWr+ZKcoHw9EHq4C8OXR0G98BOqoYOfOrA6p+6GgzKo12q7edqKBMZfgY69V3oWxVNtTChrrwRqsFjhr4PXb7I4c55u0zltW199sWzFXrJl7sk8a/dk91u/WQNtRrDn3wOhMaXP9RK8ZwDSazIDNTFoKykKhneTdseT40Q/1xCrW713+8CB0B3J/hv+3lZDL1MR7LWaIfsifENKsMh+9H2ZU8xqjLy8sqeP3pp5/05s0bXV9f6/Xr10r3959u8BhCUKvV0tramrrdrhYWFhjnEcD9GqpwDFJe5RhjPp6ZFzOgDVx/8EPOSHciHzxvNr4ag9c03JUXbdTd5THv0lqNPxrrHyI10v6AcRZiU6vpgpbTlhY8UdKTEjc1PCj1fFKZMFTxOCkqGTcvRzl+n5sUzWSWKFiqNG2pla5p2aO6aUPdxqI87eTT1JgrWj+KKnsF54HjzRFT8NGOnZJklldijVY8PuSHjlrVX/VHpf4lVb9Kvv53on96WuHjrMa56o/raIqS5cGjKSuW1kPYflVjVP9xrY8cmIfi5fpuCbOqi6zWevMZ2d37y+6jJdRfj+vDrgxUXFp9yfS3X0aBKp4Hw1lzvlsTtu7FkfVYnc9v48pk6lneBbtng6FjGWj3W9fg+I78XQJwH8aFjpKqMRCvr6/VbrfnaOiV6RgeTqY+I3aSJFW+trGxoWfPnml5eVmtVmuk8rN+u29duri4qKOjI/3zf/7PdXl5WY3x+JT7nwOYjfoA6Ir5N2O9ble9bkexlynGbKBsouwyNPx+fbQCsvZhaeCKvK6hNKbqqd4evVxWBOLFb8XYDyDdx7azh5g6Ao9Do9dQKzbVjA3ZpSlc9JTGqMTysM5jXo022IbKGafzICKP8+pxQq37risPxYMpCUFqNGQNU7qwoOXVDW2uHOlyoa3zhWtdJd2iq3W+7lgEJaM1gZNatNVCnsHX1PKLnzxAGRrZ7sGrHvPTZThq5tXEUWamYFJixQRSPvlLrM9XDx3vtY9x7XQZH+fjO8ri2BrWwYlirLaX/fq9epfp/J74HZK7/CAOtgOvdfW+2z36LPUvNMe4120X2y9j2+pp+YXvOfq9QfJj3lO+/5lZMaN1vyv8YKXj4A7xjgfArJR/48/Pz/Xzzz/rzZs3evPmjdrt9oNMMHOf6hPOlD2GkyTR0tKSDg4OdHx8rJcvX+rk5ESHh4daX18fmOm6XgH6FD6bpq1WS1tbW0qSRN1uVzHGCd/0AsD05R9cXeYuz6I67Wt12211r6/V63aUqvhAmH8szo18sz+0vvL02IqCcZ0C8bT1P4iXn/OqGhl3xZjJez1l3Z563a7M40Bn2C/9YGdjAht829LYVOgEWTvo6v2lLq7bSjNXsKIizYLkIe8mWzbGsvYx5FGDlL+K9SsS8+rIcnAKd8myYiIRj7JWQ4sbi1o9XlfYaepyoaOLhbauQ7eaVCaq6Jo7Ugl2U/usvVcceantB1Xj6jV91iP65GX1/fMxT4eqoTfcFWRqJKY0SZQmiZJgKg9JGCyay0O3z2ITTt8XHzo9+DOua/nwLNXlYzr8OaCqovO7H4ehV9iZdPyddJRnFXv36xSHKy8/U/WFqytTHmLmv1Wrchz3GGnozn5b1UYA5k81hFYI+vDhgxYWFtTtdnV6elqFbPOcLdX3LYRiiIuiq3h5WSyKEepFemmSaHV1VSsrK9rY2NDOzo6Ojo50cHCgvb09bW5uam1tTc1m89btfsvSZrOpjY0Nra2tVQutHBPliRwEAA/L3BWKirLO1ZXaV5dqn5+rc3WtVhqUJqFf7TjhzfO4cR4nbm86u41H7+YPYuXH8F6vp6zdVuf6Wu3LKwV3pSEoWN4e80qTz09SnsobDfQl3pJfmeK19L4r+YeuPHNZr5dXo1lelSYvu+KUlXlR5lEerKiH7Fc6ea0qTSq+xPGomPXUDVHNRlOtZyvaPDnQysmSLheiLpptXSe9svPrmCrHu5oQeMy5foVBUSQaMyUmLTSbWkhTtRqN/DlefMkQLKg8tv1A+JGoylIHu95OuKLKdlRfMv7ak9Zz87F5REduCr42cK738nC59SeciqrPJz6mJnfkQD+tIw9g9sqALkkSnZ6eqtPp6P3792o0GnPf1Xq48C5N03ys6iJoLPV6vWrMyjKcbCwuan9/XycnJ3r58qWOjo60t7enZ8+eqdlsqtFoVNWew6HlU/oskJaN41ueaQjA42CSFiQlHhU6bTWyrhbSRI0kKT5eS5/75jnM9985PJR+H9G+kQrEsuTH1c0SdZKgZpKH5GkipUWxlNUHDfucXXg67zVQSDIpNoNcQb2FptqLDXV7pm4nyyselSjUO1JX7TTKrZzqpNQf3618dRzomumukAQtLC9paWNNzWeLSlYkawZZY1GWdgeq1qbyUunzHj72u0XJ1B+jKespmJS2mmo2U7VMakgKSpRUt5rvewYAwLxYXl7WwsKCGo3GowjXhie+CSEoSZKBiXLKyxuNhlZWVrS2tqb19XXt7OxU3al3d3e1ubmp1dVVtVqtgcCxvq3HcEymLWUiGQDzw6UY866tMZNnWf4Nv9U+UH/mx+NZ9+jDYzK+Q2lVO1JMJBN7PXnWlbKuPGZ5oFP1SnSF+OWRzbx/A4zpyXv0mhI1pSSo1TItLjcUO5k61x3FfGAJSSbzRGaJyio1U1H17YnyPsJBwUwjnf6tePOsKE9doZWotb6kxY1l2UIxKYWkjqJ6xXhE7lK84XX1cwr8HsfoTdYfbzBYf/xWk7IsPy5ZEvLZrItb9MNHDLqpYdQve8pHb1r3/cu+4AIA3K4MFmMxlnu5rFxeVjo2Gg0tLi5qd3dXx8fHev36tV68eKGDgwNtbGyo2WwOFPTxPr8vrZ/hwAB4CObFCP4eFT2TsqgYXbHsMhjzqRVC2dUNmIZa1WN/bMf+jKuhCB7LbzvL2a29XKa87ZazXwM3qhqZS4mrtZRqZX1Bve6Vri4zZd5Wr5epIVdipl5IlLgXY9omefiYvwoqD8/6U3+UxbquqEyZlEalS6kaW0ta2VnV8uaKwoKrlxTjw3ks3lcX4ztObL+f/0VPbajIOdQfB1NWjIfpxd+a/JLquV3ec57ak3Bk7mYagWG9NQ52cp/f5xoAzKebKg7NTKp1sXZ3pWmqtbU1ra2taXNzUzs7O9rf369+tre3tba2poWFhYnbIWcbCh7rODgAZsWKroFlsBOL2YM9FqGjlXHQuGkKgC/kg9FCP3TMJ5XI5LI42PXC3Wst0VQO+fbFH/4e8lMjT6aZ6U++UgSPwdVcSrXmy7q+6il8uFC7d6VeL8iDqRlSKWaSTImCzK0KHesj8PVPq2qXMUQpjVp8tqyFnTWt7axpecvUWTB1TMosr3Asqxx5v4cvMzTjzsTLn7JpHYPymU6nfwD4GuV7nuHwsRxvsVzW6/WUZZnMTK1WSwcHB3rx4oVev36tk5MT7e7uan19XWmaThy2kN7EgyYGjxwoADMz0I36y2YIBu7D8J/CcnbS/sDQw/HPZ67/gVo7Ef7smIp242WtUk+SKSRR6YJpcSXVymZLSruKWZQ85m92lUkxUXDJPUhKq/zBXFIYfhxdSqSkmaq5mmpt/5mWDza18GxRWjD1EqkjFZPJeFXxONKV2gg28DloLbPBcQaAaRnOusoKxxCC0jTVs2fPtLy8rPX1dW1vb+vly5c6Pj6uZqleWVmZOEv1pO31J7Z7mq/nI8HjUz0QAB6elV0HzfIP6tYveS+/66erNaanHDy0HNOxFgQWgaJZ/++i106bFaPxmX15m3zApmzKx06l7PF+5dXc/TaVd9vJFDzKTQqNhlqrqdbiopsol9QAACAASURBVDy4YtaRt7uK7Uv1MilRIleqoIZc+Zi3WTGZTJTkIQ8OM8srGGMzU/NZQ8nWkpaONrVyvClbN3Ub0nWQ2lHqhlhUO5ah4/AkSySPAADg21bvBh1jVK/XU5qmajab2t7e1vHxsV6+fKkXL17o+PhYOzs7XzVZzlPP2VLSVwBzxcaevGUhMF1VMyvGmC6GhKvGdSyT8HLMx8fYLOm0Nwu1EM/LUkVXlOVzxFhPzUVpWamULGqhtaDLs6irjz15+1q9jsmyVMFSRc8npYmWKiqo567MojJzeQhqrjTVXF3Q8u6qVnfXlOwtq7eWKLakTkO6ltQ1V8/izZNu0SQAAMAjUg8Ry27UIQRlWaYsy5QkyUDWVV4vSZJqDMfl5WVtbm5qa2tLR0dHOjw81Pb2tra2trS+vv5ZFY4YlUoEjgAAjCo7suZVa7EYi7S8JJ975utGHuXv79OQT/5iZZ2i8rP573TBFBqpGksN+XpD73++UBbP1Q5t9WKUWSLrpopJJoWGPInKLFEnk9qxqyxxWTNRc3NFiwfPtHa4pdW9NYXlVO0lqdeSOomrbfnWM/VbthX7BQAA8NiV1YshBIUQ1Ov11O12JUkhhOo6ZeFdkiRqNpva39/X4eGhXr16pefPn+vg4EDb29sKIYyElvgyE8d4BAAAZah4Y43Yl6+doQOeHivDxygpyhKThaA0kTxNtLyRKNqSOpdS99KVtaXedVDnsqOL60tZWJQ1F9RaX9Xy6rqsmShZbmp565kWtlfU3FhSfJaq25K6DamTSNfB1LF8/Mh612reRgMAgMeuHiaWYWGSJFUAKamaLCaEUM1SvbW1pe3tbR0cHGh/f187OzvVLNVUOE4XwSMAAMC98KFzsRgT1KvUz0wK5pIFKbiWn7XUWlhUty11r6Xri56uz7t6++aTPp6fydJlNRtrWtnf0ubRthori2quLqq5tqR0OVHWVP4TpF4i9YIreh5y5rWOsZjk5qvmYwcAAJgL9UrHeuiYJInSJFF0V6/Xq7pWb21t6fnz53r9+rVevnypnZ0dbW5uqtlsKk3TwfVmmZKU2OxrcQQBAABmppia2vuzoefxX5QsU5oGhWBqNBNli1LSivKG1Hl7ptOrH5Q2N7WYSntbQcvPVxWWmkoWWvKFoG5T6oU8bOyFTFlQNZFMMfpR7ac8T/gIAACmp6xALKsQ77uHj5kpSZJqW51OR91uN5+pOkm08eyZnj17Vo3heHJyoqOjI21ublazVC8uLo5fd1Exia9D8AgAAHDvYi3i64eOeQhZ/FamkJiS1CRLJEvkjaBuiGonH/T26gctrPSUpU35lrR8vCRvpuo1EnUV1VNUV/1JZyRTLOa3Scqt2fDAAYSPAADgfkw7dCwnj6kru1SXk8n0ej31ej01m021Wi3t7Ozo5cuXev36tV68eKHDw0Pt7OzcaTuM7zgdBI8AAAD3KtYqDovJrat5xftViK6eomdy78pCKoVEvaStXnqhdvJRV+mv6oaGYljRp8YnXbSulKWJskZQR67MXVGeTyBjkrkpeJDJZG5FkWVe/ejW3wcAAIDHyt2rMRwbjYY2Nja0vLys7e1tbW9v6/nz5zo5OdH29rY2Nze1vLw8dh11BI7TRfAIAHjCapVnZnLvL7np7YYNVKwBtwnK6wzzduOW/zYvO0F70aakGKOy2JMl+Yzp0aPcXDG4MpPkmbpZVz3P1POo6FI3Sj3zgU7U+basX0xZ/C5PVkHkFJk/kijThp+79eczXaoAAHhMYoxydzWbTTWbTe3u7uro6GigwnF/f7+aaEYaDBrLCsn6+JCYLoJHAMCT1o98JJmK8LEeTOQdU/tvQcpKNcJH3J0X4aPVom2vArAikJQkM1lIFSwoWh4OZpKiWdVFupwXO19vP+pzz6+Xh41hoLJS1VZtqNVOJyocyfLm0ridtNrvRxGbAgAw1+pjPFZjPbrnM+qNMTz7dHm+rGScNF5kOYHMysqKVldXqwrH4+NjHR0daWNjQxsbG1pZWZkYJpYzXadpqhAClY73hOARAPBkjZ1iIy9Dk8tlQ6PhSZYHLAyLhy8S5LXKx8FKO8tD8CAlMpkFeQiKRSvMw8f8DbLb6BQx5ftwq1U1RpmCBsNJqRa1Tbvk8ZvAMQEA4HONG3tx4HJN/gsbQlCj0agqF4fPl+FjfVtSf1KZzc3NqsLx1atXOjo60uHh4cj+De9n+busdMT9IXgEADxJw7VPRQ1afmagmLEf8YyfHASYZPgttmu42/VAtWN1m1BdWyZlZopmysog0fpri7Xb5esIqlfxRUmBMG3I8McfG/oNAADuWxn8leFiOTFMWXlYDwt7vV5Vnfjs2TOtr69rZ2dHOzs7Ojo6qiocnz17prW1tVu3SWXjbBE8AgBQoJAR88cGRh0crl4EAAB4zMrgsdfrqdvtVt2i6wFkPZBcW1vT8+fP9dvf/la/+c1vdHx8rN3d3ZF1lr8JGx8ewSMAAAAAAAC+2tgxHoeMCwPLsRbLoLHsAr2+vq6VlZVqDMeTkxOdnJxoc3NTmxsbWh1T4UjYOF8IHgEAAAAAAPDVqslkJlxWDwXrwaCZKU3TapZpKQ8j19fX9eLFC/3mN7/R69evx1Y4Yr4RPAIAAAAAAOCrufuNI6GP6wZdr4osZ6ne3d3V3t6eDg8PdXR0pO3tbW1tbWllZeXGdVPlOH8IHgEAAAAAAPDFPif0q4ePpbICcnV1Vc+fP9dvfvMb/fa3v9Xh4aH29vbUbDZvXWeWZdVYkASQ84PgEQCACTxIkg18G+vlbMTxplsCAAAA3z53V4yxCvvKMLGchbqcLKYeNrp7NabjysqKNjY2tLm5qe3tbe3t7Wl/f187Ozva3t7WysqKGo3GrfthZkqSpDqN+UHwCADAGPnblSAzDU517S53yc1lN/UjAQAAAJ6Coe7VZQg5LngsL0+SRK1WS1tbW3rx4oVevXqlV69eaW9vT9vb22q1Wp+9GwSO84ngEQAAAAAAAJ/NzGRFuDiwzEwxRvV6vYEQcnV1VRsbG9rd3dXu7q4ODg50eHio7e1tbWxsaGlpSWlKVPUt4dEEAKAw/jtSk7wse7QJ16b0EZ8jKO+rX3Tbr37X1dsb394DAID5FWrBY32sxxijYoxKkkRJkqjZbGpzc1MvX77U69ev9fLlSx0eHmpnZ+eLKhzxOBA8AgBQGRcATbreTVwEk7jZuPDRiuXjAu76coJIAAAwP+rdqMuwUZIajYY2Nja0s7OjnZ2dqsLx+PhYW1tbWl1d1erq6kjoyOzU3xaCRwAASqaiujGfRKYc5/G20Ke67nBuadY/X1s+bg349vnIAz8cPtZNqnjkTfg0MUcUAADTUU4aU/4kSaLl5WUtLi5W1Y1lhePe3l41EUxdjHEgdCR8/DYQPAIAoHqck08eYyNVi/m1fOjaxU1qi7y67s3bGV5K+PitM7eh8NE1GD6WAfe4VmKDN8NXMy8P5bjnOgAA+Bz12aqXl5d1cnKipaUltVotnZycaGdnR+vr61paWpp4+16vpxDC2FASjxfBIwDgSepHfXn64CaFItCpz8vn5nIzRQuKFiRz9UxKzAY6yQaVt6+FiF6u6y7BIuHjt87L/6qMq96Nun4+Dx9tqPt1uQTT4kOnef4BAPA1ykrH1dVVJUmik5MTra6uam9vT4uLi9X18u7YmcxCdT7LMsUYB8aLxLeB4BEA8AT16xbdXTFGmbk8hCLYcZkFhSRRkOSZK2k0lLRa8hgVJblHBXe5SUkwueexUFAeNrq8P96Nj4aPgxEHgcfTYaMPd5kmev9M3rXIBv5NrobE57npGFL9CADAlyhnrl5cXNTOzk5VvdhoNNRoNEauK+UzX5dVkpKqma/xbSF4BAA8MfXUJ8o9ymOWj8dY/ijPCj2L6vZ6anc66nQ66vS6UnQFMyWSgkyppGBBZiYr+tGaJPOoLI8oa9sbqmp0AscnxzRUt+hDgz/awI95yC/3/7+9O39v6zzwu/19DgBSorVaiyVLcuQlm5O3M1cmk/Z9r/S/bv+Bdpo2M+1rZZqZTJrEiZ3Elq1Ym2NrIXGe/nCwESS1+Yggxfu+LgogCOAcyAwjfPgsomNfpv8r7JZzXRzp6H+PAPCiSulC4rFjx3Ls2LGn3nf5uunVry7hEYAjqttWopSSZtAsbA5Tk1rz9YO/5v79L3P7iy9y67PP8/XXD7K1Oc5rr72W82dfz6mTJ3PqxGsZDoaTaSIlpU3S1tS6tTBdez6cTTY66vbaMCbZvrP1dLTj8mN2exz9apN44wMAz8MmMDyJ8AjAkdYNcpxP6dgcb+XRo0f5y1/+kj/+8Y/56OOP88fff5S/fvVVatvm/MWLeevqt/Lm5ctJcyknNzbSjAZJKSklado2bVu7nSu2/RusG2dVptvW1LqUIo22OhLM5AUA4AgRHgE4YiYTLWtJnY56bLoS1LZtvrhzO7/73Yf59a//Lf/yy1/mkz//OXfv3M7m5lZSmpw4eSpnz/xL3r1+Pe+98+28e/3tvP3WW9kYraXWbqzU9Pnma0kubkNTtyXIunxevNI0x4Oj1Jq2VmMcAQBeIuERgCNokn9qSUpNKSVt2+bx1lY+v3Urv/jFjfzj//jv+aef/zKftck48wmvg9zOev6QP378UW795XbaWvP6ufNpTjQ51gwma/h1W8yU2j2ySU0zCY1NLZMl/eokPnbX5+clPsJ+aFd9AgDwiptutGgq9tEmPAJwdJWSpul20Hvw6FFu376djz76KDdu/P/51a/+Nfcm0XFx+4nNdLd9/OkXefDoH3Pi9OlcuXYtg+ZKjp99PaWt2Xr8OE26oNlMdrSeZ8aaUufjHicnsnSdV0td+PPZ8rIEDQAcFgIjTyI8AnDETJJOmYw2LCW1NHn8eDN/+eKLfPzHj/OrX/7v/PZum81dHr01+fh0nHx66+u8+eFv893vv59Tp07n/LkLKWmzWWsGqRlMgmNbkkE7DZhlcllTt633t316Nq+S5bU8F7NiXfpa0pakSU2bkq2SjEsXu9vuu8Z3CAAAh4bwCMARtH2X4FpLvn7wMDdvfpabN2/m/v3HeTj56nIeGk8ut5I0Sb6492X+8Kc/5+KFN3Ll8tWsp2Sr1oxrTZM2g7QptWRca7f+4+z5uoBUd/xiWFZ6Nc3/u9ZmeTzjfCzkZMBABoNkXEvaWjNOzWZts9mOu02JDCYAAA6QUsps1OPy7SA8AnA0lekf3T+UHj16nNt37uT27Tv5arObUt1k+zpwtUwS0eTfVW2Suw8e5LPbt3Pnq6/yqB2nNMPJqMZJWKyl27iilKSWDGpSS5s2JWkmy0yaXv2KWszW87U9O7tPte++Zyb/UG8GaZtx2qakNmU27R8A4KARGdmL8AjA0VTTTbOuNVttzda4Ta0l45pstl1UfJbI0w6GGawfy2C0ljoYphmOkiRNbTOotdtYZrrbdZKmTdIkg6bb2KaWRnZ8pbXbguP21R6XL8skbJcMhsO0g7WMSslwvJXB+lqG62tpBo34CADAoSE8AnBkldKFxlrblFIyGo2yPlrLKPNdrBftFnyOHT+Wk6dOZuO1jaytjTIajpKmyaC2XWhMm0Gd7Ihdk2Y68q1MptzORl7y6pl+x7Q7bqtJUubbFs23H+q+OQaDYdrBKA9LzWDzcQZrwwxGw5Sm2b/TBwCAb0h4BOBomkwHaZompWly/PhGXn/9XM6fv5Azpwb5/P44W9mejNpkW30cJDl34XyuXr2a8xcu5MSJEzk2GCTjcdJ2G8yU2u1f3Uzn0M6O3320qWlS0hrH9gpa/G/a7vG1uvBR0jRNUgZJM8xgOMigjlNGg2Q4SAZN6qD4TgEA4NAQHgE4wrr6V0rJsWPHc/78+bz55rV869338td/+XU+e5zZJjNJN2Jxus7eiVFy/uxreeuta7n61rWcP38u68ePZS0ldTxOJtOskyTt5HLWl+Yj3ZrZZexX/MqajmpcNv1umofHNINuZ5lmmJQmGQzSNk3aMt3tGgAADg/hEYCjqS7sLF1rjq2v5403Luc73/1uvrh7J8O19fzTP/1zbi0NVJtuA/KtSxfy7/72b/M3P/ybvPP22zl79mxKkra23dTtpNvZejLNetuuNNNnKsvTt025frVs3zxm6b9+kmY6FDaz8DhbmL1NUjKubbbG42yOx9na2kpTjY0FAODwEB4BOGImOwxPQ1DtLoejYU6fPpW33rqWh4+6cY6PHj7KJ5/8OY8fPc64JCklw7W1rK0dyw//n7/Jj3/09/nBt7+dy+fO57Vjx7q81NbUSdQsqRmX7mizADntSiVpG6Hx1bb3f9/ZONfSRepaktJtcT7ZYqampovYtbZJbVNr973luwYAgMNCeATgyCp1vtFHSTJompw5cybf++73cvLEybz5xuX86U9/ys2bN/Po0aPUkpw5ey5vXLqU62+/nXfeeTfnzp/LejNIGbeppUzHUC48b3dLO5kj27Tz6xwl01y4uM5nd326dmhJnY2obbrsOHlkSVOaNKWZD4gEAIBDQHgE4Aiapsa5bkBjycbx49k4vpHXjm/k3Omz+da1b+Xmp5/m8cOHaZOce/31vHH5cs5fuJDz5y9kNOr+r7Rpa0pZnFBbZ9FxOv6xJBk3Cwc0afZomQ15rbOkOP0eaEtmo2IX71HTzb5ukjRluus1AAAcDsIjAEdSWUiETeZ7Dk+zzmvHj2d48WLOnDqdt996K+24u8dobZRjx45lbW09a4MmzXSn6tmAtjqbZj1PR9uPt/iAbdOveeXtus/15L9/2820nmw4ZPdqAAAOP+ERADLfLbidXG9Gw4xGo5w8eXJplNl8Dcfa1m23p9Zt95mu1ZcktSyNVat73M4RMB/p+GR1j0sAADgchEcAjqxdVt1Ls+3rXUxsF+9UMgmRtVujb3HJvsm4xrLjWWHZ9LtvOt52r++X6bhI8REAgMNHeATgyHvSiMOamlq3B8b5Dh97bTG8ePvClOptB93jdtiT6AgAwOEiPALADjunUM8GPG4b+bjzcc8TEkVHns2TRkQCAMDBJTwCwG6eOrP1WdfpewLlEQAAeIU1T78LABxN22ZXZ7oDdZlPtRYOAQAA9mTEIwA8TZkXxlmAzHRitSmwAAAAuzHiEQD2MB3hOI2NsxGPsK+aGF4LAMBhZMQjAOxmOpu6JvVJsfEFQ6SMxPPzXQMAwOEiPALAU+zIPZMZ1jIQL990ckpZugQAgINPeASAJ9mr8+g/vHTLsdE3HQAAh4vwCACwcmWP609Xs9sWRyLli7H8OQBAn/zrCgDgwNhrlONySOxSY922sbpNaJ7N/O+01JJSp7f5uwMA6JvwCACw75bHKC6Gr+ll98+0UnePjtufo1n49MVHT77atv8dl5q0u94HAIC+CI8AAPtqZzis2z9N3RHAlkfk7Zxc/eT7s7cSf18AAC+H8AgAcGA8LTg+z2MzmUbMdgIjAMB+ER4BAA68PWJZqywCAHBw2dUaAOBA2m304051xxqQAABwMBjxCABwoO228QwAABx8wiMAwIElNAIAcHgJjwAAAABA74RHAAAAAKB3wiMAAAAA0DvhEQAAAADonfAIAAAAAPROeAQAAAAAeic8AgAAAAC9Ex4BADgyauqqTwEA4MgYrvoEAAB4mcqqT2Bi1cGvpi78XbQrPBMAgKNCeAQAeGUdlOiYdOdSV3JGdeFaLSW1rjqCAgAcDcIjAMArb9UBsh6MsyjJ6kdeAgAcHdZ4BAAAAAB6JzwCAHDkPWk0Zo1xkgAAL0J4BACAJGWX+ig4AgC8OOERAACW2PUaAOCbEx4BAGAXRjsCAHwzwiMAAK++Mv2Hb0kpZdu06pLM5lkvrue46l24AQAOO+ERAIAjoKRuC45dgJx/1qmtkY4AAH0ZrvoEAADgpat1FhRrnYxsrN0t20Y5Nl2E9Nt5AIBvTngEANhXJV3mmlzWJqW0C199+gTfustdSrqgZn7w7mpqJp1xdjn9yuKN0+hYFj4AAHgxwiMAwL4raVLTLsTHLnZNI1izd/EqOz+dpkz2UhdGPNYkTQaDJqU0KXWQ0aDJ2vooa4NklGSQ7aMexUcAgBcjPAIArMRSfJzctvj13QiML2YaHWutKaWmlCZNM0iTZDAoGTQ7Rzoa8QgA8M0IjwAAK9PFx1neqpnsrvzk3NXu+Gwwf8aatJPnLKmpC2GzLPw5V58aM3d/3OFSyvx1bG5u5vbtO7l3/8vcvXM7Ww8fZmN9lNMnXsvFc2dz4fSZnDt1Khtrw0P+qgEAVkt4BADYF7slrPlajzvi3i7rENbZPbc/V5Oa8eR6O3ueum0tw1LmR9l5XnUpZi4+916Pex7LEbSfnPeszzIbvVhrxuNxHn/9VT775E/56KOP8+GHH+bu7dvZWB/l0rlz+c7b1/Pu9esZXf9W1s+cTTO0zQwAwIsSHgEA9snyWoxl1xBXdlzbOUYxaUt3a5Mm7cJzN7OIWCab0ExHP5bUUlLK7vHxZeW12YYukz9L3fmqlqPntnN5wbnlpZRtR6i1zcOvvsrHH3+U3/zud/nlL/8l/+e3v82tzz/P13/9a44Nmpw+8VpunLuQ7777Tn70t3+TH3z3e3nnnes5c/r0YR/wCQCwEsIjAMA+KjXZniCnowGzEAUnY/TqdMOZOrv/fERj0qSkLXWXVJksB81a5rO4S8pLC2l111BYkzp5JWVxannZ9THj5BuF0Ono0Wa2eU8y3hrnq/v38+tf/Sr/7Wf/kP/yDz/LvV//Kstl80aSD65ezxc3b2brwcOcPnUyr21sZDQaiY8AAM9JeAQA2A+zvjWPi2VbfNz+9b1H/ZVZPGxLFzJLmU6JXs5o86nctSa11sX6+HLseJ2Tm+rOs5vdb5chndNRkHsHyLpH5Jw+a1daS5Ktra3cuX0nH//hD/nnGzfyv/7pf+beZzf3OJ/kzq0v8osPbuT0iRO5euVKNo4fz7nz57K2vrb3AQEA2EF4BABYmZ2Tr+cbzCzdbXLZLNwwjY3d+oXzADkd5Td//umYyqStdTIS8GXbbRzmbqHvyXOpd5zp4t33KI9NkqbMJpin3dzM3dtf5KOPPsovfnEjn/zzje6Zp3/Ps6fprjx69GX++X/fyInXNvLDH/4gb7xxMSdPnhQeAQCek/AIALBSZSELdp/vNN9WppYktabU2o1grHW2Acyg1ozLZL3GpVnXNd2Ix8GOZ37BRRSfaCGoLnXVbSf0DOZjQheeZvrUu4THMv2j7UrsoClp263cvXM7n938JPfu3lt45rJnvExq7t65m08/+SS3bt3K1atXn+2EAQCYER4BAFZouh7h9m1mltdqnN/SLN5epyMdSwZJxpPLdttakfOJ3F18XHjmJ81V/kbmz9um2026lpJm4XDd7c/+jDtHPu7+4OnozyZtmtKkKSV1PM6X9+7nL5/fypdf3l+485PCY3L/3v189vnnuXPndja3Np/9ZAEASCI8AgCsxK57S9fF9Q53iY8lKU2TQTPIcDBMbZqkaZJS0pYmw6Zsi47TzWqmba1tF9dFfPIaiS/DrhtqP4uF85yG1zZ1z3BZatIMus1lmqZkrWkyHHSjH5ttf61P/gto2/FzxVEAALYTHgEADomSkkFpMhoMMhoMk0EXHmspqU1J0kyqW3e91PlIytSkLd307K6l7XdRKy8eHpdNXtBer6AkGZSSZrK5zMPhIBtro2ysr+f4YJg7255nb00zyGA0ynA4XNhxHACAZyU8AgAcEk3pwuPacJTj6+vJoElpmm6U42Sz6kWLN5WajOv2EZD76iV0uyeFx5L5Zjtbx9dz+eKFXL96NefPns0nT32Gzukzp3L58uWcP38ha2s2lgEAeF7CIwDAIVAymTpcSkbDYdZGozSDbrOZ6dqQy/u4NJlHuLq8gfMKtD08x9POf7FvzqZlH1vPpQsXcv3atbx15Up+uXYs7eOHT3yeQTPM5TffzNVrV3PhovAIAPAihEcAgMOmlm7twcms6jaLm850lgdAlqXLVVg+x+fxIsF0+lrXR8NcunAh3//Od/LT//Af8vjrr/PBBx/k1uc3d33c6dfO5O9+/KP89Kc/zfe+97288cYbWVsXHgEAnpfwCACwHxYXW3zm/FeymBBLnV5rtz1Ps/SIxcuVe56X+wTf5CmGTcmZ0yeTt97K3/3oR9l6/Di1bXPjg5r79+9nc/NxkmRtOMrJE6fy/vvfy09/+tP85Cd/n7evX8+Zs2e++QsAADiChEcAgH03Hb/3/DmtSdKkG+64uHnM3sGx7np1X81OcLU59OSJ1/KD97+fUydO5PLly/m7H/0oNz+9mXv37iVJTpw4kTffvJx33nk3P/zhD/Ktb13P6dOnV3rOAACHmfAIALBfpt1tFgCfcThgLd16jWXhY/r4WhY+3/HAhY8VqklSuiGbO1aj7NtuE8w7g+Egl9+8nNfPvp5z58/lvXffzZ8/+ST37t5NUnLy5IlcuXI1V65eybWrV3Ns49hLPE8AgFef8AgAsC8WYltJ6mS04l7axTsvXJ9Gxmbxq7v2y5oDEx5nXnZ0TLaPJt19ZOna2iiXL76RUydP5e23387m1lZKkuFwmGPHj2fj+PGsHxMdAQC+KeERAGCFampKymxQYLd/9fST+Uc7jY6T8lj3HOW46ICs9DibZr2K89l5zDJosnHqRDZOnVjB+QAAHB3CIwDAPpqNwStJnW0WszxkcXrrJEjOxjhO5lnv+pjdjrL9+VaqHIBzAABgXwmPAAD7pC5d377kY3dLLdPb5tvFTK/XUnaOG1xcNrHMn22u7Hr11XZkXigAwIEmPAIArERdWvKwLCTDxT2qt+9XXUsmm7RMP8ou8XGRCAcAwGo0T78LAAAHQsmOKcv1iZu1iI4AAKyOEY8AAIfEdKXHOuuJu02r3nPoIwAA7CvhEQBgXy3GwmePg7VM1gfNzAAAE9xJREFUVoKcPOTJe7WIjgAArJ6p1gAAh0pd+BMAAA4u4REAAAAA6J3wCAAAAAD0TngEAAAAAHonPAIAAAAAvRMeAQAOiRqbygAAcHgIjwAAh0Gd/FFr6uQSAAAOMuERAOAQqZNhj9PsWFZ5MgAA8ATDVZ8AAAB7KNsvdx3kWBbupEICAHCAGPEIALCvlmriE+1c1bHWmpqkbHu86AgAwMEjPAIA7LvnrYQ1SZsyHfJoeUcAAA4B4REA4JBoM59u3V0Y5ggAwMElPAIAHGhLU627Pa2z8AcAABxIwiMAwGFR68Kyj91Kj0kMfAQA4EASHgEADomabnOZbSMdi+oIAMDBJDwCABxWmiMAAAeY8AgAAAAA9E54BAAAAAB6JzwCAAAAAL0THgEAAACA3gmPAAAAAEDvhEcAAAAAoHfCIwAAAADQO+ERAAAAAOid8AgAAAAA9E54BAAAAAB6JzwCAAAAAL0THgEAAACA3gmPAAAAAEDvhEcAAAAAoHfCIwAAAADQO+ERAAAAAOid8AgAAAAA9E54BAAAAAB6JzwCAAAAAL0THgEAAACA3gmPAACHRl31CQAAwDMTHgEADomSklJmnwAAwIEmPAIAHBal+yhlEiFXfT4AAPAEwiMAwCEyj42mXQMAcLANV30CwFFXu3fRO94/l4WPxdt2eTzAoVB2flb3+nrd4/ZMhzumTu5l1CMAAAeV8AisUF26XHqrPXlXPZ9MWF9KZlz9m/bVnwGwP7b9nmXXH2h1UhO7pFhrTZuaWnf7/Uzx4wMAgANNeARW5FkS4m7rl+06PPKbW9n797LwahQEeBVtG8dYJ/+rr3v8770mtdSk1tmvWqa/hEmt84cV6zsCAHDwWeMRWLHFUY+7BcX5lOt29jb7VXq7bao4HDkL0fH5fpqVlDrZWSZ+egAAcPAZ8QgcKIurOu72hrzN/Dcm8wnYr4pX55UAc7OZ09/4lyY1aZ78LLVu/zlSyqv0ixoAAA4b4RE4MOZvzvd+Yz2PjmUySbmbev1Nkt30uC9nBcmnmZ6/OACvou2/IHmRrWAWRoWX+WWZD3x8wecFAICXT3gEVm+h95UsrGe28OXZm/dS0qRbI63U0i2YNnngN8uGqxptOI2ORjvCq2hbEqxl+ZZnePTkcvKQ4tcUAAAcItZ4BA6M8oT2trwCZFneeEa3A15pe62DCwAAB5cRj8DqlSS1pBvAWDNu22zWNlu1zSA1tdRulGMpaaejfhbWMatmGQIAAMCBIzwCK1FrTa01TTPZTqZ0Ix6/fvAg9+7dzddf3s/Wo4c5deJENoYbGY2GGQyatG2b2rYZJxnUagwQcOh0Cyz4bQkAAK8+4RFYgToLj23bjWZsNzfz6MGD3PrLrXx+82YefHk/483NPNrazNnUnDj5WsrasdTU1JoMkoxLN/KxjwGPBk0CL8vixll18kctyfKKj36JAgDAq0Z4BFagpGkGqWnz1y+/zP27d/PRhx/m97/7XT775JPc+vSTbD56mLRtzl84n0uX3sh7334vV69eycbx4zm+tpbUZDDd27p044debNHaeQ2oi5/vG7taw6tsz12ta51tS12ne8fs+DFQ9rgOAACHg/AIrExta27fvp3ff/hhfv6zn+XnP/tZPrv5Sb74/LO0m+MMB8nF8xdy9fq1/PXRg4yb5PKlSxkNz6YkaUpJW5r5ztYvfCKLV/b/zf08Oi4fez8i6F6vd5XHXvXxvfbVHHvVx385x14c7Zil/61Pf3RNRz5269WWyYMW77vwUcuOWwEA4KASHoGVePz4ce7du5sPPvgg//Bf/2t+ceNGfvmLD/L44cNsPt5KSZtBkr98cSd/vvVpHm5u5vb9e/l///2/z2vrx7Oxtp7BcJiSNqlduqu1Lu2M/SwhYeFte52+/d9nZZX5YJXZYtXJxGs/esdezfHnv9Ios88zG+W4fD5LwbHOE2NJSSmr/xsEAIBnJTwCK/Hgwdf57LPPcuPGjfyn//yf8rvffpitcbvLPce59end3Pnyv+Te13/NxcuX8+blNzMcDHNstJa2SUrbToJjSSl1MoroRUcvLsfHlx0iF8PCwins2+jLsv0l7mvRmE45XeHxl//z7tvxF1/75HvOa9+/4+/na992rJI6W9ehzEdDzkY5ZmG04/SjSdKkpEkpg8nnRjsCAHA4CI/ASnz++ef5zW/+T37729/md7/bKzrOffHXcX7z4Yf58Pe/z1tXrmXt+lo2jh1Pxt0u18OUDEpJrSXtc0a7nfdcjI/7E/9qSmpZxYjL6fCpFY32nO1o3q3V2dnH6LrScrP42qe3ee37dez9Ml17dv6/rjK5Pj+J6RqP06nWpRvLPbtvm+mSDN3XmmRpdDcAABxMwiOw72qdrO34+z/k448/ztbW9ui4VwL78ydf5OM//TmffPppLr9xKZtJ2lq7+Ng0z5gtyq77N9Ralt7Jv8wQt9tZLk6v3McAs+vnKzj+tvi5itc+5bXv6/GPwGtvtz1t91qf+JOldAMeS+mi7FYpaUvJuOl+OVGbpM1isN3x8H39tQkAADyJ8Ajsu1prHjx4mLt37+Xhw0fP9divv/o6d+9/ma8ePsqjtp3vB93WjFO37Wxddqydtric2uKop2by6fTZ2vl9XprpdMndpnWvIsDs93znvY7vta/m2Ks+/tF47TUlqe0kGu7Mj4uzrJuSpDQZN8l4siLDeDCJjrNzXvyFxeKRlp+055cCAADPSHgE9l0pyXg8zqNHj7K1tbX9a098XMm4rdls29RmkIzWUpphmmE7W+fxaeExaRZuL7OL6TjIdh/eoE/Xo+z+XJxevJ8WRzfut8W/5FUe/yi/9lUc/2i/9nbyu45Sa9rJghA777VwpRl2vxMZjpLRMO2gSS3d89SlX1kAAMBBJTwC+66UJsePH8/JkyeztrY+v/1pj0vJ6+cu5M0r13Lx8uWcf+NSMh4nbZth7d7QJ5kPWEyS1NSSlLZOP52exDMc8WUoS9fr0sd+HjtLx9yv4+8WgLz2l3/sxete+/4ef/m118mPqe7PuvBLklpram0zGAxTmkG2miZfbz3OYH0t41Jm8XH6TDtGNwIAwAEiPAIrcfLkyVy8eDGvnz07u232JnqP5RXPnD6ZS5cu58qVazl37kJGa8d3eealB9bJVOw6CXtLO8xmx6f7FCMXd/Tdl+i4zKg/r31Vx1718Vd47JKk1tSlZSHmX0vStkltk8EwGTRZ39rM2tcP0oxG3RqPy89pHjUAAAeY8AisxPnz5/P+++/nX//1X3Pjxo3cunUrW+NxFx936QKnT2zke9//Yd5799u5du1ajh+bRsfavVGfXl+46K7W2aTmnRbWl9vP6LjrofaorS/94Pt53OVjr/r4Xvtqjr3q46/4tZeFn3G7/LW0ZdIdS5I0aYajDNbX0wyHGWe6xuPOnbEBAOAgEh6BlThz5kzeefvt/OAHP8hPfvKT/Nu//Vt+85vfJOmmGi46vr6WH/zw3+VHP/q7vPvee3nj4qWsT8NjW9Muh8clZfpOf9c1H6d3WuXooWkIWVVEWHW8WOXxvfajefzVHnvHZO+F02lT0jYlpZQ0SdpBk2Y0TB0MuhGPRXQEAODwEB6BlTh+/HhGFy/mxz/+cUajUf7x5z/PiddO5PPPbuazz29la7yVUkquXrmSb3/72/npf/yP+fsf/zjvvfteTp48lcFo8uOrlKQ0mYa7ust78XbHLWVbg5yOiZyu+3hU8x/w8i0urLAtQE7XbRw0SS0Zp6RNm3FbM25rtx3NSn9BAgAAz094BFZmOBrl3XffzcbxjayNRtk4vpE//elP+ezmp9nc2spoOMr169/Ku++9l5/85Cd5//33c/78+Xl0nCiTadI1y2OJlpWF+89v68Yb7j0h++WaHn2/p38CqzIb41y239ZdKUkpqTWpbbfRTPfJ/p8nAAB8U8IjsFIbGxt588qbWVv7//Kdb38nd+/dzZdffpna1gwGg5w5eyZnz5zN2dfP5vTp0xmtrb3AUcoTZ1kn83gJsB8m+8xsv2HvT7fdVvb4OgAAHDTCI7BSw+EwJ0+ezMmTJ/PWW9fy8OHDPH70KElSmibHjx3LaG0tta1JSQaDl/Bjyzt4YJ8sjm3e9qNnaUTj7D51e2j04woAgMNEeAQOjKZpsra2lkEzSCbrmQ2HozRNkzTJfPfpBX1MP6zT9dWmU54BVuupiy+Yeg0AwCEgPAIHRmmajIbDDAaD2Zvqpmn23o26Lo4b2nUMUXfLs7TE+pRdrwEAAIDnIjwCB0vTpKnJLCTuGR0nl2VxexZDgIBXW61JrTU1kw1n/L4EAIADrFn1CQDsUDLb2XVXi2Fy4SHegQNHxvTn4BM2qAEAgFUz4hE4PJ5pdM9hfud9mM8deDbPOkxx7+UjnvxMz7A9NgAA7BPhEThEJrvA7Nh1ocy//kJWu6WMLgBHyVO3jZndryxcX9zbejbVOrvERz9QAAA4QIRH4PBYnHq9Yxr2N92RuqxwubRnDRHAq6A8w0ZWdbbMbZl/pKSmTsLjdE8sCz0CAHBwCY/AK+Kbv/Fe7Vt34QCYK6VO4uPCaMfSXXbLO9bYXQYAgIPO5jIAAAfOk4NiXfgAAICDSngEADgkau2mWgMAwGEgPAIAAAAAvRMeAQAOmVrrfAcaAAA4oIRHAAAAAKB3wiMAAAAA0DvhEQAAAADonfAIAAAAAPROeAQAAAAAeic8AgAAAAC9Ex4BAAAAgN4JjwAAAABA74RHAAAAAKB3wiMAAAAA0DvhEQAAAADonfAIAAAAAPROeAQAAAAAeic8AgAAAAC9Ex4BAAAAgN4JjwAAAABA74RHAAAAAKB3wiMAAAAA0DvhEQAAAADonfAIAAAAAPROeAQAAAAAeic8AgAAAAC9Ex4BAAAAgN4JjwAAAABA74RHAAAAAKB3wiMAAAAA0DvhEQAAAADonfAIAAAAAPROeAQAAAAAeic8AgAAAAC9Ex4BAAAAgN4JjwAAAABA74RHAAAAAKB3wiMAAAAA0DvhEQAAAADonfAIAAAAAPROeAQAAAAAeic8AgAAAAC9Ex4BAAAAgN4JjwAAAABA74RHAAAAAKB3wiMAAAAA0DvhEQAAAADonfAIAAAAAPROeAQAAAAAeic8AgAAAAC9Ex4BAAAAgN4JjwAAAABA74RHAAAAAKB3wiMAAAAA0DvhEQAAAADonfAIAAAAAPROeAQAAAAAeic8AgAAAAC9Ex4BAAAAgN4JjwAAAABA74RHAAAAAKB3wiMAAAAA0DvhEQAAAADonfAIAAAAAPROeAQAAAAAeic8AgAAAAC9Ex4BAAAAgN4JjwAAAABA74RHAAAAAKB3wiMAAAAA0DvhEQAAAADonfAIAAAAAPROeAQAAAAAeic8AgAAAAC9Ex4BAAAAgN4JjwAAAABA74RHAAAAAKB3wiMAAAAA0DvhEQAAAADonfAIAAAAAPROeAQAAAAAeic8AgAAAAC9Ex4BAAAAgN4JjwAAAABA74RHAAAAAKB3wiMAAAAA0DvhEQAAAADonfAIAAAAAPROeAQAAAAAeic8AgAAAAC9Ex4BAAAAgN4JjwAAAABA74RHAAAAAKB3wiMAAAAA0DvhEQAAAADonfAIAAAAAPROeAQAAAAAeic8AgAAAAC9Ex4BAAAAgN4JjwAAAABA74RHAAAAAKB3wiMAAAAA0DvhEQAAAADonfAIAAAAAPROeAQAAAAAeic8AgAAAAC9Ex4BAAAAgN4JjwAAAABA74RHAAAAAKB3wiMAAAAA0DvhEQAAAADonfAIAAAAAPROeAQAAAAAeic8AgAAAAC9Ex4BAAAAgN4JjwAAAABA74RHAAAAAKB3wiMAAAAA0DvhEQAAAADonfAIAAAAAPROeAQAAAAAeic8AgAAAAC9Ex4BAAAAgN4JjwAAAABA74RHAAAAAKB3wiMAAAAA0DvhEQAAAADonfAIAAAAAPROeAQAAAAAeic8AgAAAAC9Ex4BAAAAgN4JjwAAAABA74RHAAAAAKB3wiMAAAAA0DvhEQAAAADonfAIAAAAAPROeAQAAAAAeic8AgAAAAC9Ex4BAAAAgN4JjwAAAABA74RHAAAAAKB3wiMAAAAA0DvhEQAAAADonfAIAAAAAPROeAQAAAAAeic8AgAAAAC9Ex4BAAAAgN4JjwAAAABA74RHAAAAAKB3wiMAAAAA0DvhEQAAAADonfAIAHDIlFKSUlZ9GgAA8ETCIwDAAVVK6T5WfSIAAPAChEcAAAAAoHfCIwAAAADQO+ERAOAAapqmW8sxSVtrxuNxkvn0awAAOOiERwCAA6ppun+q1VrTtm2SZDAY7AiP06/XWvf9HAEAYC/DVZ8AAABPV2tNnYx8rLVuG/m4fAkAAAeBEY8AAIdAKSVt287C425fBwCAg8SIRwCAA6ppmqytreXixYv5zne+k2PHjuXMmTM5ceKE0AgAwIEnPAIAHFCllKytreXSpUv5/ve/n9FolI2NjZw6dWrVpwYAAE8lPAIAHFBN02R9fT2XL1/OxsZGBoNBRqNRzpw+bXdrAAAOvFJtfwgAcOC0bSsuAgBwqNlcBgDgABIdAQA47IRHAIADSHQEAOCwEx4BAAAAgN4JjwAAAABA74RHAAAAAKB3wiMAAAAA0DvhEQAAAADonfAIAAAAAPROeAQAAAAAeic8AgAAAAC9Ex4BAAAAgN4JjwAAAABA74RHAAAAAKB3wiMAAAAA0DvhEQAAAADonfAIAAAAAPROeAQAAAAAeic8AgAAAAC9Ex4BAAAAgN79X0Rq/v458ZfGAAAAAElFTkSuQmCC;shadow=0;" vertex="1" parent="57">
                    <mxGeometry x="8.060000000000002" y="280" width="471.94" height="330" as="geometry"/>
                </mxCell>
                <mxCell id="58" value="" style="rounded=1;whiteSpace=wrap;html=1;" vertex="1" parent="1">
                    <mxGeometry x="8" y="1240" width="120" height="60" as="geometry"/>
                </mxCell>
                <mxCell id="59" value="variance方差，数据与均值的离散程度，" style="whiteSpace=wrap;html=1;rounded=1;" vertex="1" parent="1">
                    <mxGeometry x="212.5" y="530" width="225" height="30" as="geometry"/>
                </mxCell>
                <mxCell id="61" style="edgeStyle=orthogonalEdgeStyle;html=1;entryX=0.483;entryY=0;entryDx=0;entryDy=0;entryPerimeter=0;" edge="1" parent="1" source="35" target="54">
                    <mxGeometry relative="1" as="geometry"/>
                </mxCell>
                <mxCell id="62" value="Variance, measure how spread out a group of number is." style="rounded=1;whiteSpace=wrap;html=1;" vertex="1" parent="1">
                    <mxGeometry x="210" y="630" width="350" height="260" as="geometry"/>
                </mxCell>
            </root>
        </mxGraphModel>
    </diagram>
</mxfile>